<svg width="35" height="35" viewBox="0 0 35 35" fill="none" xmlns="http://www.w3.org/2000/svg">
<circle cx="17.5" cy="17.5" r="17.5" fill="#F15A3D"/>
<path d="M16.7824 8.61355C14.1554 9.77203 11.5489 10.5715 9.08097 10.9713C8.72201 11.0284 8.36712 11.0855 8.2937 11.0978C8.22027 11.11 8.12237 11.1549 8.0775 11.1997C8 11.2772 8 11.367 8 15.1728C8 17.6285 8.01632 19.2193 8.04487 19.4682C8.46502 23.3719 11.1328 26.313 15.5138 27.708C16.1338 27.9079 16.9007 28.0833 17.1373 28.0833C17.537 28.0833 18.7975 27.7325 19.7479 27.3613C20.2252 27.1737 21.1389 26.729 21.5387 26.4965C24.2839 24.873 25.9074 22.4378 26.2297 19.4682C26.2583 19.2193 26.2746 17.6285 26.2746 15.1728C26.2746 11.367 26.2746 11.2772 26.1971 11.1997C26.1522 11.1549 26.0543 11.11 25.9809 11.0978C25.9074 11.0855 25.5607 11.0284 25.214 10.9713C22.7706 10.5675 20.1355 9.78019 17.843 8.76448C17.1128 8.43815 17.1577 8.44631 16.7824 8.61355ZM17.688 12.4765C19.1646 12.5662 20.7392 13.4269 21.7345 14.6915C22.5585 15.7398 22.9705 16.9391 22.9705 18.2934C22.9705 19.2193 22.8032 19.9699 22.4239 20.7612C21.9629 21.7239 21.4041 22.4011 20.5475 23.0333C20.1395 23.3393 19.2748 23.7635 18.7893 23.9022C17.7859 24.1877 16.6763 24.2081 15.6973 23.9593C13.462 23.3882 11.7365 21.4996 11.3653 19.2112C11.2878 18.738 11.2878 17.8447 11.3653 17.3756C11.7487 15.026 13.4865 13.1618 15.8116 12.5989C16.2195 12.501 16.9741 12.4194 17.2189 12.4439C17.276 12.452 17.4881 12.4643 17.688 12.4765Z" fill="white"/>
<path d="M15.9421 15.079C15.8157 15.1769 15.7912 15.3564 15.7912 16.1763V16.9881H14.9305C14.4287 16.9881 14.0412 17.0044 13.9964 17.0289C13.8658 17.0982 13.8332 17.3389 13.8332 18.2934C13.8332 19.2479 13.8658 19.4886 13.9964 19.5579C14.0412 19.5824 14.4287 19.5987 14.9305 19.5987H15.7912V20.3819C15.7912 21.21 15.8279 21.4466 15.9543 21.5159C15.9992 21.5404 16.4765 21.5567 17.1536 21.5567C18.2264 21.5567 18.2835 21.5526 18.361 21.4751C18.4385 21.3976 18.4426 21.3405 18.4426 20.4961V19.5987H19.3237C19.8377 19.5987 20.2334 19.5824 20.2782 19.5579C20.4088 19.4886 20.4414 19.2479 20.4414 18.2934C20.4414 17.3389 20.4088 17.0982 20.2782 17.0289C20.2334 17.0044 19.8377 16.9881 19.3237 16.9881H18.4426V16.0906C18.4426 15.2463 18.4385 15.1892 18.361 15.1117C18.2835 15.0341 18.2264 15.0301 17.1455 15.0301C16.3011 15.0301 15.9951 15.0423 15.9421 15.079Z" fill="white"/>
</svg>
