<svg width="35" height="35" viewBox="0 0 35 35" fill="none" xmlns="http://www.w3.org/2000/svg">
<circle cx="17.5" cy="17.5" r="17.5" fill="#CB7928"/>
<path d="M17.0666 8.78994C16.7157 8.90458 16.4065 9.18251 16.2294 9.54033C16.1356 9.7314 16.1356 9.73835 16.1356 10.4609V11.1905L16.2363 11.4094C16.3058 11.5622 16.4031 11.6873 16.5594 11.8332L16.7817 12.0416L16.476 12.1806C16.3093 12.2605 15.9931 12.4029 15.7743 12.5037C15.2809 12.726 15.0273 12.9449 14.8606 13.2853L14.7459 13.5181L14.7355 15.0189L14.7251 16.5231H15.003H15.2809L15.2914 15.1231C15.3018 13.7578 15.3018 13.7231 15.3782 13.5667C15.4234 13.4799 15.5033 13.3652 15.5589 13.3131C15.6144 13.261 16.073 13.0248 16.5837 12.7885L17.5113 12.3612L18.4354 12.792C18.946 13.0283 19.4046 13.2645 19.4602 13.3166C19.5123 13.3687 19.5922 13.4799 19.6374 13.5667C19.7138 13.7231 19.7138 13.7578 19.7242 15.1231L19.7346 16.5231H20.0126H20.2905L20.2801 15.0189L20.2696 13.5181L20.155 13.2853C19.9883 12.9414 19.7346 12.726 19.2413 12.5037C19.0225 12.4029 18.7063 12.257 18.5396 12.1806L18.2373 12.0382L18.4458 11.8471C18.5847 11.7151 18.689 11.5761 18.7654 11.4233L18.88 11.1905V10.4609V9.7314L18.7793 9.52296C18.6473 9.25546 18.3833 8.99143 18.1158 8.86289C17.9351 8.77257 17.8656 8.75867 17.5599 8.75173C17.3376 8.74478 17.1604 8.75867 17.0666 8.78994ZM17.8483 9.3979C18.0254 9.48822 18.1644 9.63413 18.2512 9.81825C18.3138 9.95374 18.3242 10.0371 18.3242 10.4783C18.3207 11.0307 18.2964 11.1349 18.1053 11.3503C18.0497 11.4163 17.8899 11.524 17.7545 11.59L17.5078 11.7081L17.2889 11.6004C17.0006 11.458 16.8686 11.3434 16.7713 11.1453C16.6983 10.9959 16.6914 10.9369 16.6914 10.4783C16.6914 10.0406 16.7018 9.95374 16.7644 9.81825C16.8477 9.6376 16.9867 9.49169 17.1604 9.3979C17.3271 9.31104 17.6745 9.31104 17.8483 9.3979Z" fill="white"/>
<path d="M12.1404 10.4748C12.064 10.5096 11.9528 10.593 11.8903 10.6555C11.661 10.8987 11.6714 10.7493 11.6714 13.7786V16.5231H11.9493H12.2272V13.9002C12.2272 11.0029 12.2203 11.0793 12.4357 11.0029C12.5156 10.9786 13.0228 10.9647 14.0546 10.9647H15.5623V10.6868V10.4088H13.9226C12.3975 10.4088 12.2689 10.4158 12.1404 10.4748Z" fill="white"/>
<path d="M19.4532 10.6868V10.9647H20.9645C22.6459 10.9647 22.6771 10.9682 22.7501 11.1731C22.7779 11.2565 22.7883 12.0416 22.7883 13.9037V16.5231H23.0662H23.3442V13.7786C23.3442 10.7493 23.3546 10.8987 23.1253 10.6555C22.8891 10.4054 22.9273 10.4088 21.0965 10.4088H19.4532V10.6868Z" fill="white"/>
<path d="M15.8403 14.8555V15.9672H16.1182H16.3961V14.8555V13.7438H16.1182H15.8403V14.8555Z" fill="white"/>
<path d="M18.6195 14.8555V15.9672H18.8974H19.1754V14.8555V13.7438H18.8974H18.6195V14.8555Z" fill="white"/>
<path d="M16.7088 16.3112C15.6805 16.5405 14.8189 17.1172 14.263 17.9579C14.0616 18.2601 13.7767 18.8611 13.7975 18.9271C13.8114 18.9688 14.3117 19.1321 14.3534 19.1078C14.3673 19.0974 14.3812 19.0696 14.3812 19.0453C14.3812 18.9584 14.6904 18.3748 14.8432 18.1698C15.0273 17.9266 15.413 17.5549 15.6457 17.3951C15.9132 17.211 16.3614 17.013 16.7261 16.9226C17.4348 16.742 18.2512 16.8254 18.9252 17.1484C19.0815 17.2214 19.283 17.3326 19.3699 17.3951C19.6026 17.5549 19.9883 17.9266 20.1724 18.1698C20.3252 18.3748 20.6344 18.9584 20.6344 19.0453C20.6344 19.0696 20.6483 19.0974 20.6622 19.1078C20.7039 19.1321 21.2007 18.9758 21.2146 18.9306C21.2215 18.9098 21.1659 18.7534 21.093 18.5797C20.6205 17.4854 19.6547 16.6621 18.4805 16.3494C18.0567 16.2382 17.1326 16.2174 16.7088 16.3112Z" fill="white"/>
<path d="M11.5081 17.1276C11.1572 17.2422 10.8481 17.5202 10.6709 17.878C10.5771 18.0691 10.5771 18.076 10.5771 18.7986V19.5281L10.6778 19.747C10.7473 19.8999 10.8446 20.0249 11.0009 20.1708L11.2233 20.3793L10.9175 20.5182C10.7508 20.5981 10.4346 20.7406 10.2158 20.8413C9.72247 21.0637 9.46887 21.2825 9.30211 21.623L9.18747 21.8557L9.17705 23.6344L9.16663 25.4166H9.44455H9.72247L9.73289 23.7387C9.74332 22.085 9.74332 22.0607 9.81974 21.9044C9.86491 21.8175 9.94481 21.7029 10.0004 21.6508C10.056 21.5987 10.5145 21.3624 11.0252 21.1262L11.9528 20.6989L12.8769 21.1297C13.3876 21.3659 13.8461 21.6021 13.9017 21.6543C13.9538 21.7064 14.0337 21.8175 14.0789 21.9044C14.1553 22.0607 14.1553 22.085 14.1658 23.7387L14.1762 25.4166H14.4541H14.732L14.7216 23.6344L14.7112 21.8557L14.5965 21.623C14.4298 21.2791 14.1762 21.0637 13.6829 20.8413C13.464 20.7406 13.1479 20.5947 12.9811 20.5182L12.6789 20.3758L12.8873 20.1847C13.0263 20.0527 13.1305 19.9138 13.2069 19.7609L13.3216 19.5281V18.7986V18.0691L13.2208 17.8606C13.0888 17.5931 12.8248 17.3291 12.5573 17.2005C12.3766 17.1102 12.3071 17.0963 12.0014 17.0894C11.7791 17.0824 11.6019 17.0963 11.5081 17.1276ZM12.2898 17.7355C12.467 17.8259 12.6059 17.9718 12.6928 18.1559C12.7553 18.2914 12.7657 18.3748 12.7657 18.816C12.7622 19.3683 12.7379 19.4726 12.5469 19.6879C12.4913 19.754 12.3315 19.8617 12.196 19.9277L11.9493 20.0458L11.7305 19.9381C11.4421 19.7956 11.3101 19.681 11.2128 19.483C11.1399 19.3336 11.1329 19.2745 11.1329 18.816C11.1329 18.3782 11.1433 18.2914 11.2059 18.1559C11.2893 17.9753 11.4282 17.8293 11.6019 17.7355C11.7687 17.6487 12.1161 17.6487 12.2898 17.7355Z" fill="white"/>
<path d="M22.6251 17.1276C22.2742 17.2422 21.965 17.5202 21.7878 17.878C21.694 18.0691 21.694 18.076 21.694 18.7986V19.5281L21.7948 19.747C21.8643 19.8999 21.9615 20.0249 22.1179 20.1708L22.3402 20.3793L22.0345 20.5182C21.8677 20.5981 21.5516 20.7406 21.3327 20.8413C20.8394 21.0637 20.5858 21.2825 20.4191 21.623L20.3044 21.8557L20.294 23.6344L20.2836 25.4166H20.5615H20.8394L20.8498 23.7387C20.8603 22.085 20.8603 22.0607 20.9367 21.9044C20.9818 21.8175 21.0618 21.7029 21.1173 21.6508C21.1729 21.5987 21.6315 21.3624 22.1422 21.1262L23.0697 20.6989L23.9938 21.1297C24.5045 21.3659 24.9631 21.6021 25.0187 21.6543C25.0708 21.7064 25.1507 21.8175 25.1958 21.9044C25.2723 22.0607 25.2723 22.085 25.2827 23.7387L25.2931 25.4166H25.571H25.849L25.8385 23.6344L25.8281 21.8557L25.7135 21.623C25.5467 21.2791 25.2931 21.0637 24.7998 20.8413C24.5809 20.7406 24.2648 20.5947 24.0981 20.5182L23.7958 20.3758L24.0043 20.1847C24.1432 20.0527 24.2474 19.9138 24.3239 19.7609L24.4385 19.5281V18.7986V18.0691L24.3378 17.8606C24.2057 17.5931 23.9417 17.3291 23.6742 17.2005C23.4936 17.1102 23.4241 17.0963 23.1184 17.0894C22.896 17.0824 22.7189 17.0963 22.6251 17.1276ZM23.4067 17.7355C23.5839 17.8259 23.7229 17.9718 23.8097 18.1559C23.8722 18.2914 23.8827 18.3748 23.8827 18.816C23.8792 19.3683 23.8549 19.4726 23.6638 19.6879C23.6082 19.754 23.4484 19.8617 23.3129 19.9277L23.0663 20.0458L22.8474 19.9381C22.5591 19.7956 22.427 19.681 22.3298 19.483C22.2568 19.3336 22.2499 19.2745 22.2499 18.816C22.2499 18.3782 22.2603 18.2914 22.3228 18.1559C22.4062 17.9753 22.5452 17.8293 22.7189 17.7355C22.8856 17.6487 23.233 17.6487 23.4067 17.7355Z" fill="white"/>
<path d="M16.9416 17.3812C16.9346 17.3986 16.8929 17.5514 16.8512 17.7251C16.7852 17.9926 16.7574 18.0482 16.688 18.0829C16.5629 18.1385 16.5525 18.1385 16.2398 17.9475C16.08 17.8502 15.9376 17.7738 15.9202 17.7738C15.882 17.7738 15.1455 18.5137 15.1455 18.5519C15.1455 18.5658 15.2254 18.7117 15.3227 18.875C15.4964 19.1599 15.5137 19.2363 15.4304 19.3614C15.4165 19.3822 15.2567 19.4378 15.076 19.483L14.746 19.5664V20.1361V20.7058L15.076 20.7892C15.2567 20.8344 15.4165 20.89 15.4304 20.9108C15.5137 21.0359 15.4964 21.1123 15.3227 21.3972C15.2254 21.5604 15.1455 21.7064 15.1455 21.7237C15.1455 21.7619 15.8855 22.4984 15.9237 22.4984C15.9376 22.4984 16.0835 22.4185 16.2468 22.3213C16.5316 22.1476 16.6081 22.1302 16.7331 22.2136C16.754 22.2275 16.8095 22.3873 16.8547 22.5679L16.9381 22.8979H17.5078H18.0776L18.1609 22.5679C18.2061 22.3873 18.2617 22.2275 18.2825 22.2136C18.4076 22.1302 18.484 22.1476 18.7689 22.3213C18.9322 22.4185 19.0781 22.4984 19.0955 22.4984C19.1337 22.4984 19.8702 21.7585 19.8702 21.7203C19.8702 21.7064 19.7903 21.5604 19.693 21.3972C19.5193 21.1123 19.5019 21.0359 19.5853 20.9108C19.5992 20.89 19.759 20.8344 19.9396 20.7892L20.2697 20.7058V20.1361V19.5664L19.9396 19.483C19.759 19.4378 19.5992 19.3822 19.5853 19.3614C19.5019 19.2363 19.5193 19.1599 19.693 18.875C19.7903 18.7117 19.8702 18.5658 19.8702 18.5485C19.8702 18.5102 19.1302 17.7738 19.092 17.7738C19.0781 17.7738 18.9322 17.8537 18.7689 17.9509C18.484 18.1246 18.4076 18.142 18.2825 18.0586C18.2617 18.0447 18.2061 17.8849 18.1609 17.7043L18.0776 17.3742L17.5182 17.3638C17.2091 17.3603 16.952 17.3673 16.9416 17.3812ZM17.6676 18.1976L17.7336 18.4825L18.1297 18.6457L18.5257 18.809L18.7446 18.6701C19.0955 18.4512 19.1927 18.5485 18.9739 18.8993L18.8349 19.1182L18.9982 19.5142L19.1615 19.9103L19.4463 19.9763C19.7138 20.0423 19.7312 20.0492 19.7312 20.1361C19.7312 20.2229 19.7138 20.2299 19.4463 20.2959L19.1615 20.3619L18.9982 20.7579L18.8349 21.154L18.9739 21.3728C19.1927 21.7237 19.0955 21.821 18.7446 21.6021L18.5257 21.4632L18.1297 21.6265L17.7336 21.7897L17.6676 22.0746C17.6016 22.3421 17.5947 22.3595 17.5078 22.3595C17.421 22.3595 17.414 22.3421 17.348 22.0746L17.282 21.7897L16.886 21.6265L16.4899 21.4632L16.2711 21.6021C15.9202 21.821 15.8229 21.7237 16.0418 21.3694L16.1842 21.147L16.0175 20.7545L15.8507 20.3619L15.5693 20.2959C15.3018 20.2299 15.2844 20.2229 15.2844 20.1361C15.2844 20.0492 15.3018 20.0423 15.5693 19.9763L15.8507 19.9103L16.0175 19.5177L16.1842 19.1252L16.0418 18.9028C15.8229 18.5485 15.9202 18.4512 16.2711 18.6701L16.4899 18.809L16.886 18.6457L17.282 18.4825L17.348 18.1976C17.414 17.9301 17.421 17.9127 17.5078 17.9127C17.5947 17.9127 17.6016 17.9301 17.6676 18.1976Z" fill="white"/>
<path d="M17.0666 19.0973C16.8547 19.1807 16.6081 19.4065 16.4969 19.6184C16.3788 19.8477 16.3649 20.2924 16.4656 20.5633C16.8096 21.4735 18.2061 21.477 18.5466 20.5703C18.7029 20.1534 18.6126 19.6531 18.3277 19.3579C18.0915 19.1181 17.9282 19.0487 17.5599 19.0348C17.3063 19.0278 17.2125 19.0382 17.0666 19.0973ZM17.7788 19.6844C18.2304 19.9589 18.0359 20.6571 17.5078 20.6571C17.2125 20.6571 16.9867 20.4313 16.9867 20.136C16.9867 19.7331 17.4349 19.476 17.7788 19.6844Z" fill="white"/>
<path d="M10.2818 24.027V25.4166H10.5597H10.8376V24.027V22.6374H10.5597H10.2818V24.027Z" fill="white"/>
<path d="M13.061 24.027V25.4166H13.339H13.6169V24.027V22.6374H13.339H13.061V24.027Z" fill="white"/>
<path d="M21.3987 24.027V25.4166H21.6766H21.9545V24.027V22.6374H21.6766H21.3987V24.027Z" fill="white"/>
<path d="M24.1779 24.027V25.4166H24.4558H24.7338V24.027V22.6374H24.4558H24.1779V24.027Z" fill="white"/>
<path d="M15.2879 22.9396C15.2045 23.0473 15.135 23.1619 15.1315 23.1897C15.1281 23.2661 15.6144 23.5823 15.9618 23.7247C16.5212 23.9609 16.7887 24.0096 17.5078 24.0096C18.2269 24.0096 18.4944 23.9609 19.0537 23.7247C19.3421 23.6066 19.8736 23.2766 19.8944 23.2071C19.9049 23.1828 19.6686 22.8458 19.5748 22.7485C19.5679 22.7416 19.488 22.7902 19.3942 22.8562C18.5708 23.4433 17.4036 23.6066 16.4308 23.2696C16.1738 23.1793 15.8264 23.0021 15.6214 22.8597C15.5311 22.7937 15.4546 22.7416 15.4477 22.7416C15.4442 22.7416 15.3713 22.8319 15.2879 22.9396Z" fill="white"/>
</svg>
