<svg width="35" height="35" viewBox="0 0 35 35" fill="none" xmlns="http://www.w3.org/2000/svg">
<circle cx="17.5" cy="17.5" r="17.5" fill="#749D1E"/>
<path d="M12.2825 11.3021C12.2327 11.3326 12.1691 11.3962 12.1387 11.446C12.0833 11.5373 12.0833 11.601 12.0833 17.8874C12.0833 24.1739 12.0833 24.2375 12.1387 24.3288C12.2383 24.4921 12.3351 24.528 12.6727 24.528H12.9687V24.8241C12.9687 25.1617 13.0047 25.2585 13.1679 25.3581C13.2593 25.4135 13.3174 25.4135 18.0599 25.4135C22.8024 25.4135 22.8605 25.4135 22.9518 25.3581C23.0016 25.3277 23.0652 25.264 23.0957 25.2142C23.151 25.1229 23.151 25.0593 23.151 18.7728C23.151 12.4864 23.151 12.4227 23.0957 12.3314C22.9878 12.1543 22.9158 12.1322 22.4012 12.1322C21.8948 12.1322 21.8699 12.1405 21.834 12.3176C21.8229 12.3812 21.834 12.4172 21.8865 12.4808L21.9557 12.5611L22.332 12.5694L22.7083 12.5804V18.7894V24.9984H18.0599H13.4114V24.7632V24.528H17.6946C21.917 24.528 21.9751 24.528 22.0664 24.4727C22.2435 24.3648 22.2656 24.2901 22.2656 23.792C22.2656 23.3964 22.2601 23.3383 22.213 23.2802C22.1383 23.1861 21.9751 23.1916 21.8893 23.294C21.8257 23.3632 21.8229 23.3908 21.8229 23.7284V24.0853H17.1745H12.526V17.8736V11.6618H16.0234C17.9464 11.6618 19.5402 11.6701 19.5651 11.6784C19.6038 11.6923 19.6094 11.8029 19.6094 12.6136C19.6094 13.5101 19.6121 13.535 19.673 13.654C19.7892 13.8864 19.792 13.8892 20.8738 13.8975L21.8229 13.9058L21.8284 18.2775L21.8367 22.6521L21.9031 22.7046C21.9889 22.7738 22.1383 22.7738 22.2103 22.7019C22.2656 22.6465 22.2656 22.6106 22.2656 18.2056V13.7675L22.2075 13.607C22.1522 13.4576 22.0775 13.3746 21.1201 12.4172C20.445 11.7421 20.0521 11.3685 19.9691 11.3243L19.8445 11.2606L16.1092 11.2523C12.4181 11.2468 12.3738 11.2468 12.2825 11.3021ZM20.7991 12.7271L21.5324 13.4603H20.7908H20.0521V12.7271C20.0521 12.3231 20.0548 11.9939 20.0604 11.9939C20.0631 11.9939 20.3952 12.3231 20.7991 12.7271Z" fill="white"/>
<path d="M14.9609 13.5046C14.3273 13.6734 13.8403 14.1659 13.6743 14.8023C13.6217 15.0126 13.6217 15.4138 13.677 15.6463C13.8154 16.2356 14.3134 16.7558 14.9056 16.9301C15.5945 17.1321 16.3886 16.8665 16.8147 16.2882C17.2242 15.7348 17.2824 15.0652 16.978 14.4288C16.8895 14.2407 16.823 14.1549 16.6404 13.9723C16.2669 13.607 15.9044 13.4576 15.3898 13.4631C15.2376 13.4631 15.0439 13.4825 14.9609 13.5046ZM15.7993 13.9612C16.4606 14.1825 16.8562 14.877 16.6902 15.5217C16.6404 15.7182 16.5381 15.9285 16.4301 16.0613L16.3499 16.1554L16.2448 16.0641C15.993 15.8427 15.5447 15.721 15.1961 15.7791C14.9803 15.815 14.6897 15.9423 14.5514 16.0641L14.4518 16.1526L14.3715 16.0585C14.1945 15.8482 14.0755 15.519 14.0755 15.2312C14.0755 14.6474 14.4518 14.1355 15.0107 13.9557C15.2348 13.8837 15.5779 13.8865 15.7993 13.9612ZM15.7882 16.302C15.8712 16.3463 15.9376 16.3906 15.9376 16.4072C15.9404 16.468 15.6665 16.54 15.4174 16.5427C15.1546 16.5455 14.8392 16.4708 14.8585 16.4099C14.8641 16.3933 14.9111 16.3546 14.9609 16.3269C15.2099 16.1803 15.5309 16.172 15.7882 16.302Z" fill="white"/>
<path d="M15.1048 14.4039C14.6122 14.6474 14.6206 15.3641 15.1186 15.6075C15.2652 15.6795 15.5475 15.674 15.6941 15.5992C16.0732 15.4 16.1783 14.9213 15.9155 14.581C15.7522 14.3652 15.3593 14.2794 15.1048 14.4039ZM15.5419 14.8439C15.6637 14.9656 15.6277 15.1455 15.47 15.2036C15.3732 15.2423 15.3621 15.2395 15.268 15.1593C15.1601 15.068 15.1546 14.9545 15.2514 14.8577C15.3344 14.7719 15.4645 14.7664 15.5419 14.8439Z" fill="white"/>
<path d="M17.8966 14.6391C17.7887 14.7747 17.8468 14.9573 18.0101 14.996C18.0461 15.0043 18.6437 15.0071 19.341 15.0043L20.611 14.996L20.6636 14.9296C20.7355 14.8411 20.7327 14.7027 20.6525 14.628C20.5889 14.5672 20.5861 14.5672 19.2718 14.5672H17.952L17.8966 14.6391Z" fill="white"/>
<path d="M17.9077 15.7431C17.8247 15.8233 17.8192 15.9478 17.8911 16.0364L17.9437 16.1028L19.0394 16.1111L20.1351 16.1194L20.2043 16.0502C20.2956 15.9589 20.2983 15.8178 20.2098 15.7348C20.1461 15.6739 20.1351 15.6739 19.0587 15.6739H17.9741L17.9077 15.7431Z" fill="white"/>
<path d="M13.7047 17.7242C13.6494 17.7684 13.6328 17.8044 13.6328 17.8874C13.6328 17.9704 13.6494 18.0064 13.7047 18.0507C13.7794 18.1088 13.7822 18.1088 17.1744 18.1088C20.5667 18.1088 20.5694 18.1088 20.6441 18.0507C20.7465 17.9704 20.7465 17.8044 20.6441 17.7242C20.5694 17.6661 20.5667 17.6661 17.1744 17.6661C13.7822 17.6661 13.7794 17.6661 13.7047 17.7242Z" fill="white"/>
<path d="M13.7047 18.831C13.6494 18.8752 13.6328 18.9112 13.6328 18.9942C13.6328 19.0772 13.6494 19.1132 13.7047 19.1575C13.7794 19.2156 13.7849 19.2156 16.7372 19.2156H19.6951L19.7615 19.1464C19.8058 19.1049 19.8307 19.0468 19.8307 18.9942C19.8307 18.9417 19.8058 18.8835 19.7615 18.842L19.6951 18.7729H16.7372C13.7849 18.7729 13.7794 18.7729 13.7047 18.831Z" fill="white"/>
<path d="M13.7048 19.9378C13.6079 20.0125 13.6052 20.1757 13.6965 20.2615L13.7601 20.3224H15.9543H18.1457L18.2121 20.2532C18.2564 20.2117 18.2813 20.1536 18.2813 20.101C18.2813 20.0485 18.2564 19.9904 18.2121 19.9489L18.1457 19.8797H15.9626C13.7961 19.8797 13.7767 19.8797 13.7048 19.9378Z" fill="white"/>
<path d="M13.702 21.0528C13.6107 21.1441 13.6079 21.2853 13.6965 21.3683L13.7601 21.4291H16.7346H19.7118L19.7699 21.3655C19.8446 21.2853 19.8474 21.1524 19.7782 21.0667L19.7256 21.0003L16.7484 20.992L13.7684 20.9864L13.702 21.0528Z" fill="white"/>
</svg>
