<svg width="35" height="35" viewBox="0 0 35 35" fill="none" xmlns="http://www.w3.org/2000/svg">
<circle cx="17.5" cy="17.5" r="17.5" fill="#20BAA2"/>
<path d="M10.9287 9.64037C10.2915 9.82594 9.79671 10.3331 9.6328 10.9641C9.59259 11.1218 9.58331 11.3785 9.58331 12.5321V13.9114H10.1988H10.8173L10.8266 12.6032L10.8359 11.2981L10.9225 11.1527C10.9781 11.0568 11.0585 10.9764 11.1544 10.9208L11.2998 10.8342H17.5007H23.7016L23.847 10.9208C23.9429 10.9764 24.0233 11.0568 24.0789 11.1527L24.1655 11.2981V17.499V23.6999L24.0789 23.8453C24.0233 23.9412 23.9429 24.0216 23.847 24.0772L23.7016 24.1638H17.5007H11.2998L11.1544 24.0772C11.0585 24.0216 10.9781 23.9412 10.9225 23.8453L10.8359 23.6999L10.8266 22.3917L10.8173 21.0866H10.1988H9.58331V22.4659C9.58331 23.9999 9.58641 24.0339 9.79053 24.4391C9.93898 24.736 10.2637 25.0607 10.5606 25.2092C11.006 25.4319 10.4555 25.4164 17.5007 25.4164C24.546 25.4164 23.9954 25.4319 24.4408 25.2092C24.7377 25.0607 25.0624 24.736 25.2109 24.4391C25.4336 23.9937 25.4181 24.5442 25.4181 17.499C25.4181 10.4538 25.4336 11.0043 25.2109 10.5589C25.0624 10.262 24.7377 9.93727 24.4408 9.78882C23.9954 9.56615 24.549 9.58161 17.4822 9.5847C11.5101 9.5847 11.1018 9.59089 10.9287 9.64037Z" fill="white"/>
<path d="M16.542 14.0815L16.0935 14.53L17.2688 15.7052L18.444 16.8804H14.0121H9.58331V17.499V18.1175H14.0121H18.444L17.2688 19.2928L16.0935 20.468L16.5512 20.9226L17.0059 21.3804L18.945 19.4381L20.8872 17.499L18.9543 15.566C17.8904 14.5021 17.0151 13.6331 17.0059 13.6331C16.9966 13.6331 16.7894 13.8341 16.542 14.0815Z" fill="white"/>
</svg>
