<?xml version="1.0" encoding="UTF-8"?>
<!DOCTYPE svg PUBLIC "-//W3C//DTD SVG 1.1//EN" "http://www.w3.org/Graphics/SVG/1.1/DTD/svg11.dtd">
<!-- Creator: CorelDRAW 2019 (64-Bit) -->
<svg xmlns="http://www.w3.org/2000/svg" xml:space="preserve" width="182.725mm" height="182.576mm" version="1.1" style="shape-rendering:geometricPrecision; text-rendering:geometricPrecision; image-rendering:optimizeQuality; fill-rule:evenodd; clip-rule:evenodd"
viewBox="0 0 18226.02 18211.14"
 xmlns:xlink="http://www.w3.org/1999/xlink"
 xmlns:xodm="http://www.corel.com/coreldraw/odm/2003">
 <defs>
  <style type="text/css">
   <![CDATA[
    .fil0 {fill:#0AA637}
   ]]>
  </style>
 </defs>
 <g id="Layer_x0020_1">
  <metadata id="CorelCorpID_0Corel-Layer"/>
  <path class="fil0" d="M1314.42 8119.19c-0.04,201.63 38.58,389.87 105.66,550.1 -189.49,-37.08 -399.85,-41.32 -603.5,2.5 -327.25,70.41 -632.28,280.98 -816.58,433.77 184.3,152.79 489.33,363.36 816.58,433.77 203.65,43.83 414.01,39.58 603.5,2.5 -67.08,160.23 -105.7,348.47 -105.66,550.1 0,503.33 241.03,924.16 563.13,1028.39 -107.42,-545.4 236.67,-1467.89 980.2,-1490.49 -250.05,834.21 -327.69,1499.76 142.4,2271.75 757.14,1243.29 2357.72,888.56 2326.41,897.69 -82.69,226.59 -230.12,369.33 -159.3,734.17 80.26,413.47 310.76,858.9 375.54,954.83 152.78,226.24 359.89,459.49 616.74,658.71 769.7,596.95 1566.25,465.08 2429.16,206.39 -22.6,743.52 -945.05,1087.62 -1490.49,980.2 104.26,322.11 525.07,563.13 1028.39,563.13 201.63,0 389.95,-38.58 550.07,-105.66 -37.04,189.49 -41.28,399.85 2.54,603.5 70.41,327.25 280.98,632.27 433.8,816.58 152.82,-184.31 363.39,-489.33 433.8,-816.58 43.83,-203.65 39.58,-414.01 2.54,-603.5 160.12,67.08 348.44,105.66 550.07,105.66 503.32,0 924.12,-241.03 1028.39,-563.13 -545.44,107.42 -1467.89,-236.68 -1490.49,-980.2 862.91,258.69 1659.46,390.55 2429.16,-206.39 256.85,-199.22 463.96,-432.47 616.74,-658.71 64.78,-95.93 295.29,-541.36 375.54,-954.83 70.82,-364.84 -76.61,-507.58 -159.3,-734.17 -31.31,-9.13 1569.27,345.6 2326.41,-897.69 470.09,-771.99 392.45,-1437.54 142.4,-2271.75 743.53,22.6 1087.62,945.09 980.2,1490.49 322.11,-104.22 563.13,-525.06 563.13,-1028.39 0.04,-201.63 -38.58,-389.87 -105.66,-550.1 189.49,37.08 399.85,41.32 603.5,-2.5 327.25,-70.41 632.28,-280.98 816.58,-433.77 -184.3,-152.79 -489.33,-363.36 -816.58,-433.77 -203.65,-43.83 -414.01,-39.58 -603.5,-2.5 67.08,-160.23 105.7,-348.47 105.66,-550.1 0,-503.33 -241.03,-924.16 -563.13,-1028.39 107.42,545.4 -236.67,1467.89 -980.2,1490.49 250.05,-834.21 327.69,-1499.76 -142.4,-2271.75 -757.14,-1243.29 -2357.72,-888.56 -2326.41,-897.69 82.69,-226.59 230.12,-369.33 159.3,-734.17 -80.26,-413.47 -310.76,-858.9 -375.54,-954.83 -152.78,-226.24 -359.89,-459.49 -616.74,-658.71 -769.7,-596.95 -1566.25,-465.08 -2429.16,-206.39 22.6,-743.52 945.05,-1087.62 1490.49,-980.2 -104.26,-322.11 -525.07,-563.13 -1028.39,-563.13 -201.63,0 -389.95,38.58 -550.07,105.66 37.04,-189.49 41.28,-399.85 -2.54,-603.5 -70.41,-327.25 -280.98,-632.27 -433.8,-816.58 -152.82,184.31 -363.39,489.33 -433.8,816.58 -43.83,203.65 -39.58,414.01 -2.54,603.5 -160.12,-67.08 -348.44,-105.66 -550.07,-105.66 -503.32,0 -924.12,241.03 -1028.39,563.13 545.44,-107.42 1467.89,236.68 1490.49,980.2 -862.91,-258.69 -1659.46,-390.55 -2429.16,206.39 -256.85,199.22 -463.96,432.47 -616.74,658.71 -64.78,95.93 -295.29,541.36 -375.54,954.83 -70.82,364.84 76.61,507.58 159.3,734.17 31.31,9.13 -1569.27,-345.6 -2326.41,897.69 -470.09,771.99 -392.45,1437.54 -142.4,2271.75 -743.53,-22.6 -1087.62,-945.09 -980.2,-1490.49 -322.11,104.22 -563.13,525.06 -563.13,1028.39zm7489.59 2738.4c126.28,236.68 246.24,491.91 309,752.35 62.76,-260.45 182.72,-515.68 309,-752.35 -98.22,-139.99 -202.3,-280.33 -309,-417.45 -106.7,137.12 -210.78,277.45 -309,417.45zm-1920.05 -1752.02c35.46,13.99 70.93,29.56 106.39,46.78 127.17,61.66 240.72,137.7 357.29,216.58 68.66,-41.13 137.25,-82.52 204.54,-126.11 68.39,-44.31 135.53,-90.09 201.6,-137.25 -66.06,-47.16 -133.21,-92.94 -201.6,-137.25 -67.29,-43.59 -135.87,-84.98 -204.54,-126.11 -116.57,78.88 -230.12,154.92 -357.29,216.58 -35.46,17.22 -70.93,32.79 -106.39,46.78zm2229.05 -2504.38c-62.76,260.45 -182.72,515.68 -309,752.35 98.22,139.99 202.3,280.33 309,417.45 106.7,-137.12 210.78,-277.45 309,-417.45 -126.28,-236.68 -246.24,-491.91 -309,-752.35zm2229.05 2504.38c-35.46,-13.99 -70.93,-29.56 -106.39,-46.78 -127.17,-61.66 -240.72,-137.7 -357.29,-216.58 -68.66,41.13 -137.25,82.52 -204.54,126.11 -68.39,44.31 -135.53,90.09 -201.6,137.25 66.06,47.16 133.21,92.94 201.6,137.25 67.29,43.59 135.87,84.98 204.54,126.11 116.57,-78.88 230.12,-154.92 357.29,-216.58 35.46,-17.22 70.93,-32.79 106.39,-46.78zm-2229.05 577.92c-127.03,146.72 -560.87,673.39 -871.56,1148.18 127.04,226.49 595.85,955.54 374.88,1421.7 -432.64,-386.58 -1157.65,-212.74 -1431.81,-138.04 -1398.64,380.95 -1208.99,2071.83 209.11,2212.68 908.55,90.27 973.52,-953.9 91.33,-1125.34 358.15,-678.33 1004.83,-30.18 992.55,-30.18 171.17,185.68 273.16,418.24 273.16,670.83 0,607.17 -588.51,1099.59 -1314.14,1099.59 -725.63,0 -1291.54,-669.24 -1472.59,-1031.68 -141.44,-283.15 -192.64,-678.17 -150.94,-916.55 54.19,-310.79 339.83,-698.74 563.23,-905.3 179.85,-166.34 404.93,-295.22 557.38,-385.28 214.24,-126.52 205.71,-157.35 486,-171.62 274.98,-14.02 644.87,-12.86 733,19.07 110.16,-318.74 -267.82,-478.49 -523.76,-604.56 412.24,-302.25 663.04,-862.98 620.55,-996.6 -595.58,12.14 -755.22,214.55 -974.52,541.25 -189.52,-194.42 -209.34,-467.24 -641.09,-505.51 -40.37,364.28 -1.98,813.05 -133.37,1098.11 -394.24,855.19 -1206.76,1216.84 -1377.73,1241.81 -601.96,87.97 -1315.18,-285.69 -1634.53,-785.62 -143.42,-224.5 -219.94,-492.69 -219.94,-758.42 0,-725.62 492.41,-1314.17 1099.59,-1314.1 252.59,-0.04 485.14,101.96 670.79,273.12 0.03,-12.31 648.19,634.37 -30.18,992.56 -171.37,-882.19 -1215.54,-817.24 -1125.3,91.33 54.87,554.36 424.61,1069.4 1027.97,1068.35 258.73,-0.45 521.98,-100.35 724.84,-274.78 519.52,-446.7 827.8,-1450.09 321.83,-2016.28 702.72,-333.08 1026.02,177.24 1398.24,324.64 225.5,-146.41 603.46,-329.48 1171.64,-821.28 -568.18,-491.8 -946.15,-674.87 -1171.64,-821.28 -372.21,147.4 -695.52,657.72 -1398.24,324.64 505.97,-566.19 197.69,-1569.58 -321.83,-2016.28 -202.86,-174.43 -466.11,-274.33 -724.84,-274.78 -603.36,-1.06 -973.1,513.99 -1027.97,1068.35 -90.24,908.56 953.93,973.52 1125.3,91.33 678.37,358.19 30.21,1004.87 30.18,992.56 -185.65,171.16 -418.2,273.16 -670.79,273.12 -607.17,0.07 -1099.59,-588.48 -1099.59,-1314.1 0,-265.72 76.51,-533.92 219.94,-758.42 319.36,-499.93 1032.58,-873.58 1634.53,-785.62 170.96,24.98 983.49,386.62 1377.73,1241.81 131.39,285.06 93,733.83 133.37,1098.11 431.75,-38.27 451.57,-311.09 641.09,-505.51 219.29,326.7 378.93,529.11 974.52,541.25 42.49,-133.62 -208.31,-694.35 -620.55,-996.6 255.95,-126.07 633.92,-285.82 523.76,-604.56 -88.14,31.93 -458.02,33.1 -733,19.07 -280.3,-14.27 -271.76,-45.11 -486,-171.62 -152.45,-90.06 -377.53,-218.94 -557.38,-385.28 -223.4,-206.56 -509.04,-594.51 -563.23,-905.3 -41.7,-238.38 9.5,-633.41 150.94,-916.55 181.05,-362.44 746.96,-1031.68 1472.59,-1031.68 725.63,0 1314.14,492.41 1314.14,1099.59 0,252.59 -101.99,485.15 -273.16,670.83 12.28,0 -634.4,648.15 -992.55,-30.18 882.19,-171.44 817.23,-1215.61 -91.33,-1125.34 -1418.1,140.85 -1607.75,1831.73 -209.11,2212.68 274.16,74.7 999.17,248.55 1431.81,-138.04 220.97,466.15 -247.85,1195.2 -374.88,1421.7 310.69,474.79 744.53,1001.47 871.56,1148.18 127.03,-146.72 560.87,-673.39 871.56,-1148.18 -127.04,-226.49 -595.85,-955.54 -374.88,-1421.7 432.64,386.58 1157.65,212.74 1431.81,138.04 1398.64,-380.95 1208.99,-2071.83 -209.11,-2212.68 -908.55,-90.27 -973.52,953.9 -91.33,1125.34 -358.15,678.33 -1004.83,30.18 -992.55,30.18 -171.17,-185.68 -273.16,-418.24 -273.16,-670.83 0,-607.17 588.51,-1099.59 1314.14,-1099.59 725.63,0 1291.54,669.24 1472.59,1031.68 141.44,283.15 192.64,678.17 150.94,916.55 -54.19,310.79 -339.83,698.74 -563.23,905.3 -179.85,166.34 -404.93,295.22 -557.38,385.28 -214.24,126.52 -205.71,157.35 -486,171.62 -274.98,14.02 -644.87,12.86 -733,-19.07 -110.16,318.74 267.82,478.49 523.76,604.56 -412.24,302.25 -663.04,862.98 -620.55,996.6 595.58,-12.14 755.22,-214.55 974.52,-541.25 189.52,194.42 209.34,467.24 641.09,505.51 40.37,-364.28 1.98,-813.05 133.37,-1098.11 394.24,-855.19 1206.76,-1216.84 1377.73,-1241.81 601.96,-87.97 1315.18,285.69 1634.53,785.62 143.42,224.5 219.94,492.69 219.94,758.42 0,725.62 -492.41,1314.17 -1099.59,1314.1 -252.59,0.04 -485.14,-101.96 -670.79,-273.12 -0.03,12.31 -648.19,-634.37 30.18,-992.56 171.37,882.19 1215.54,817.24 1125.3,-91.33 -54.87,-554.36 -424.61,-1069.4 -1027.97,-1068.35 -258.73,0.45 -521.98,100.35 -724.84,274.78 -519.52,446.7 -827.8,1450.09 -321.83,2016.28 -702.72,333.08 -1026.02,-177.24 -1398.24,-324.64 -225.5,146.41 -603.46,329.48 -1171.64,821.28 568.18,491.8 946.15,674.87 1171.64,821.28 372.21,-147.4 695.52,-657.72 1398.24,-324.64 -505.97,566.19 -197.69,1569.58 321.83,2016.28 202.86,174.43 466.11,274.33 724.84,274.78 603.36,1.06 973.1,-513.99 1027.97,-1068.35 90.24,-908.56 -953.93,-973.52 -1125.3,-91.33 -678.37,-358.19 -30.21,-1004.87 -30.18,-992.56 185.65,-171.16 418.2,-273.16 670.79,-273.12 607.17,-0.07 1099.59,588.48 1099.59,1314.1 0,265.72 -76.51,533.92 -219.94,758.42 -319.36,499.93 -1032.58,873.58 -1634.53,785.62 -170.96,-24.98 -983.49,-386.62 -1377.73,-1241.81 -131.39,-285.06 -93,-733.83 -133.37,-1098.11 -431.75,38.27 -451.57,311.09 -641.09,505.51 -219.29,-326.7 -378.93,-529.11 -974.52,-541.25 -42.49,133.62 208.31,694.35 620.55,996.6 -255.95,126.07 -633.92,285.82 -523.76,604.56 88.14,-31.93 458.02,-33.1 733,-19.07 280.3,14.27 271.76,45.11 486,171.62 152.45,90.06 377.53,218.94 557.38,385.28 223.4,206.56 509.04,594.51 563.23,905.3 41.7,238.38 -9.5,633.41 -150.94,916.55 -181.05,362.44 -746.96,1031.68 -1472.59,1031.68 -725.63,0 -1314.14,-492.41 -1314.14,-1099.59 0,-252.59 101.99,-485.15 273.16,-670.83 -12.28,0 634.4,-648.15 992.55,30.18 -882.19,171.44 -817.23,1215.61 91.33,1125.34 1418.1,-140.85 1607.75,-1831.73 209.11,-2212.68 -274.16,-74.7 -999.17,-248.55 -1431.81,138.04 -220.97,-466.15 247.85,-1195.2 374.88,-1421.7 -310.69,-474.79 -744.53,-1001.47 -871.56,-1148.18z"/>
 </g>
</svg>
