<?xml version="1.0" encoding="UTF-8"?>
<svg xmlns="http://www.w3.org/2000/svg" xmlns:xlink="http://www.w3.org/1999/xlink" width="100px" height="100px" viewBox="0 0 100 100" version="1.1">
<g id="surface1">
<path style=" stroke:none;fill-rule:evenodd;fill:rgb(3.921569%,65.098039%,21.568627%);fill-opacity:1;" d="M 7.21875 44.578125 C 7.214844 45.683594 7.429688 46.71875 7.796875 47.597656 C 6.757812 47.394531 5.601562 47.371094 4.484375 47.613281 C 2.6875 48 1.011719 49.15625 0 49.992188 C 1.011719 50.832031 2.6875 51.988281 4.484375 52.375 C 5.601562 52.617188 6.757812 52.59375 7.796875 52.390625 C 7.429688 53.269531 7.214844 54.300781 7.21875 55.410156 C 7.21875 58.171875 8.539062 60.484375 10.308594 61.054688 C 9.71875 58.0625 11.609375 52.996094 15.691406 52.871094 C 14.316406 57.453125 13.890625 61.105469 16.472656 65.34375 C 20.628906 72.171875 29.417969 70.222656 29.246094 70.273438 C 28.792969 71.519531 27.980469 72.300781 28.371094 74.304688 C 28.8125 76.574219 30.078125 79.019531 30.433594 79.546875 C 31.273438 80.789062 32.410156 82.070312 33.820312 83.164062 C 38.042969 86.441406 42.417969 85.71875 47.15625 84.296875 C 47.03125 88.378906 41.96875 90.269531 38.972656 89.679688 C 39.546875 91.449219 41.855469 92.769531 44.617188 92.769531 C 45.726562 92.769531 46.761719 92.558594 47.640625 92.191406 C 47.4375 93.230469 47.414062 94.386719 47.652344 95.503906 C 48.039062 97.300781 49.195312 98.976562 50.035156 99.988281 C 50.875 98.976562 52.03125 97.300781 52.417969 95.503906 C 52.65625 94.386719 52.632812 93.230469 52.429688 92.191406 C 53.308594 92.558594 54.34375 92.769531 55.449219 92.769531 C 58.214844 92.769531 60.523438 91.449219 61.097656 89.679688 C 58.101562 90.269531 53.039062 88.378906 52.914062 84.296875 C 57.652344 85.71875 62.023438 86.441406 66.25 83.164062 C 67.660156 82.070312 68.796875 80.789062 69.636719 79.546875 C 69.992188 79.019531 71.257812 76.574219 71.699219 74.304688 C 72.085938 72.300781 71.277344 71.519531 70.824219 70.273438 C 70.652344 70.222656 79.441406 72.171875 83.597656 65.34375 C 86.179688 61.105469 85.753906 57.453125 84.378906 52.871094 C 88.460938 52.996094 90.351562 58.0625 89.761719 61.054688 C 91.53125 60.484375 92.851562 58.171875 92.851562 55.410156 C 92.851562 54.300781 92.640625 53.269531 92.273438 52.390625 C 93.3125 52.59375 94.46875 52.617188 95.585938 52.375 C 97.382812 51.988281 99.058594 50.832031 100.070312 49.992188 C 99.058594 49.15625 97.382812 48 95.585938 47.613281 C 94.46875 47.371094 93.3125 47.394531 92.273438 47.597656 C 92.640625 46.71875 92.851562 45.683594 92.851562 44.578125 C 92.851562 41.816406 91.53125 39.503906 89.761719 38.933594 C 90.351562 41.925781 88.460938 46.992188 84.378906 47.117188 C 85.753906 42.535156 86.179688 38.882812 83.597656 34.640625 C 79.441406 27.816406 70.652344 29.765625 70.824219 29.714844 C 71.277344 28.46875 72.085938 27.6875 71.699219 25.683594 C 71.257812 23.414062 69.992188 20.96875 69.636719 20.441406 C 68.796875 19.199219 67.660156 17.917969 66.25 16.824219 C 62.023438 13.546875 57.652344 14.269531 52.914062 15.691406 C 53.039062 11.609375 58.101562 9.71875 61.097656 10.308594 C 60.523438 8.539062 58.214844 7.21875 55.449219 7.21875 C 54.34375 7.21875 53.308594 7.429688 52.429688 7.796875 C 52.632812 6.757812 52.65625 5.601562 52.417969 4.484375 C 52.03125 2.6875 50.875 1.011719 50.035156 0 C 49.195312 1.011719 48.039062 2.6875 47.652344 4.484375 C 47.414062 5.601562 47.4375 6.757812 47.640625 7.796875 C 46.761719 7.429688 45.726562 7.21875 44.617188 7.21875 C 41.855469 7.21875 39.546875 8.539062 38.972656 10.308594 C 41.96875 9.71875 47.03125 11.609375 47.15625 15.691406 C 42.417969 14.269531 38.042969 13.546875 33.820312 16.824219 C 32.410156 17.917969 31.273438 19.199219 30.433594 20.441406 C 30.078125 20.96875 28.8125 23.414062 28.371094 25.683594 C 27.980469 27.6875 28.792969 28.46875 29.246094 29.714844 C 29.417969 29.765625 20.628906 27.816406 16.472656 34.640625 C 13.890625 38.882812 14.316406 42.535156 15.691406 47.117188 C 11.609375 46.992188 9.71875 41.925781 10.308594 38.933594 C 8.539062 39.503906 7.21875 41.816406 7.21875 44.578125 Z M 48.339844 59.613281 C 49.03125 60.914062 49.691406 62.3125 50.035156 63.746094 C 50.378906 62.3125 51.039062 60.914062 51.730469 59.613281 C 51.191406 58.84375 50.621094 58.074219 50.035156 57.320312 C 49.449219 58.074219 48.878906 58.84375 48.339844 59.613281 Z M 37.796875 49.992188 C 37.992188 50.070312 38.1875 50.15625 38.378906 50.25 C 39.078125 50.589844 39.703125 51.007812 40.34375 51.441406 C 40.71875 51.214844 41.09375 50.988281 41.464844 50.746094 C 41.839844 50.503906 42.210938 50.253906 42.570312 49.992188 C 42.210938 49.734375 41.839844 49.484375 41.464844 49.242188 C 41.09375 49 40.71875 48.773438 40.34375 48.546875 C 39.703125 48.980469 39.078125 49.398438 38.378906 49.738281 C 38.1875 49.832031 37.992188 49.917969 37.796875 49.992188 Z M 50.035156 36.242188 C 49.691406 37.671875 49.03125 39.074219 48.339844 40.375 C 48.878906 41.144531 49.449219 41.914062 50.035156 42.667969 C 50.621094 41.914062 51.191406 41.144531 51.730469 40.375 C 51.039062 39.074219 50.378906 37.671875 50.035156 36.242188 Z M 62.273438 49.992188 C 62.078125 49.917969 61.882812 49.832031 61.6875 49.738281 C 60.992188 49.398438 60.367188 48.980469 59.726562 48.546875 C 59.351562 48.773438 58.972656 49 58.605469 49.242188 C 58.230469 49.484375 57.859375 49.734375 57.496094 49.992188 C 57.859375 50.253906 58.230469 50.503906 58.605469 50.746094 C 58.972656 50.988281 59.351562 51.214844 59.726562 51.441406 C 60.367188 51.007812 60.992188 50.589844 61.6875 50.25 C 61.882812 50.15625 62.078125 50.070312 62.273438 49.992188 Z M 50.035156 53.167969 C 49.335938 53.972656 46.957031 56.863281 45.25 59.472656 C 45.945312 60.714844 48.519531 64.71875 47.308594 67.277344 C 44.933594 65.15625 40.953125 66.109375 39.445312 66.519531 C 31.765625 68.609375 32.808594 77.894531 40.59375 78.667969 C 45.582031 79.164062 45.941406 73.429688 41.097656 72.488281 C 43.0625 68.765625 46.613281 72.324219 46.546875 72.324219 C 47.484375 73.34375 48.046875 74.621094 48.046875 76.007812 C 48.046875 79.339844 44.8125 82.042969 40.832031 82.042969 C 36.847656 82.042969 33.738281 78.371094 32.746094 76.378906 C 31.96875 74.824219 31.6875 72.65625 31.917969 71.347656 C 32.214844 69.640625 33.78125 67.511719 35.007812 66.375 C 35.996094 65.464844 37.230469 64.753906 38.070312 64.261719 C 39.246094 63.566406 39.199219 63.398438 40.738281 63.320312 C 42.246094 63.242188 44.277344 63.25 44.761719 63.421875 C 45.367188 61.671875 43.292969 60.796875 41.886719 60.105469 C 44.148438 58.445312 45.527344 55.367188 45.292969 54.632812 C 42.023438 54.699219 41.148438 55.808594 39.941406 57.605469 C 38.902344 56.535156 38.792969 55.039062 36.421875 54.828125 C 36.199219 56.828125 36.410156 59.292969 35.691406 60.859375 C 33.527344 65.554688 29.066406 67.539062 28.125 67.675781 C 24.820312 68.160156 20.90625 66.109375 19.152344 63.363281 C 18.363281 62.128906 17.945312 60.65625 17.945312 59.199219 C 17.945312 55.214844 20.648438 51.984375 23.980469 51.984375 C 25.367188 51.984375 26.644531 52.542969 27.664062 53.484375 C 27.664062 53.414062 31.222656 56.964844 27.5 58.933594 C 26.558594 54.089844 20.824219 54.445312 21.320312 59.433594 C 21.621094 62.476562 23.652344 65.304688 26.964844 65.300781 C 28.386719 65.296875 29.832031 64.75 30.945312 63.792969 C 33.796875 61.339844 35.488281 55.828125 32.710938 52.722656 C 36.570312 50.890625 38.34375 53.695312 40.386719 54.503906 C 41.625 53.699219 43.703125 52.695312 46.820312 49.992188 C 43.703125 47.292969 41.625 46.289062 40.386719 45.484375 C 38.34375 46.292969 36.570312 49.097656 32.710938 47.265625 C 35.488281 44.160156 33.796875 38.648438 30.945312 36.195312 C 29.832031 35.238281 28.386719 34.691406 26.964844 34.6875 C 23.652344 34.683594 21.621094 37.511719 21.320312 40.554688 C 20.824219 45.542969 26.558594 45.898438 27.5 41.054688 C 31.222656 43.023438 27.664062 46.574219 27.664062 46.503906 C 26.644531 47.445312 25.367188 48.003906 23.980469 48.003906 C 20.648438 48.003906 17.945312 44.773438 17.945312 40.789062 C 17.945312 39.332031 18.363281 37.859375 19.152344 36.625 C 20.90625 33.878906 24.820312 31.828125 28.125 32.3125 C 29.066406 32.449219 33.527344 34.433594 35.691406 39.128906 C 36.410156 40.695312 36.199219 43.160156 36.421875 45.160156 C 38.792969 44.949219 38.902344 43.453125 39.941406 42.382812 C 41.148438 44.175781 42.023438 45.289062 45.292969 45.355469 C 45.527344 44.621094 44.148438 41.542969 41.886719 39.882812 C 43.292969 39.191406 45.367188 38.316406 44.761719 36.5625 C 44.277344 36.738281 42.246094 36.746094 40.738281 36.667969 C 39.199219 36.589844 39.246094 36.421875 38.070312 35.726562 C 37.230469 35.230469 35.996094 34.523438 35.007812 33.613281 C 33.78125 32.476562 32.214844 30.347656 31.917969 28.640625 C 31.6875 27.332031 31.96875 25.164062 32.746094 23.609375 C 33.738281 21.617188 36.847656 17.945312 40.832031 17.945312 C 44.8125 17.945312 48.046875 20.648438 48.046875 23.980469 C 48.046875 25.367188 47.484375 26.644531 46.546875 27.664062 C 46.613281 27.664062 43.0625 31.222656 41.097656 27.5 C 45.941406 26.558594 45.582031 20.824219 40.59375 21.320312 C 32.808594 22.09375 31.765625 31.378906 39.445312 33.46875 C 40.953125 33.878906 44.933594 34.832031 47.308594 32.710938 C 48.519531 35.269531 45.945312 39.273438 45.25 40.515625 C 46.957031 43.125 49.335938 46.015625 50.035156 46.820312 C 50.730469 46.015625 53.113281 43.125 54.820312 40.515625 C 54.121094 39.273438 51.546875 35.269531 52.761719 32.710938 C 55.136719 34.832031 59.117188 33.878906 60.625 33.46875 C 68.300781 31.378906 67.261719 22.09375 59.476562 21.320312 C 54.488281 20.824219 54.128906 26.558594 58.972656 27.5 C 57.007812 31.222656 53.457031 27.664062 53.523438 27.664062 C 52.585938 26.644531 52.023438 25.367188 52.023438 23.980469 C 52.023438 20.648438 55.253906 17.945312 59.238281 17.945312 C 63.222656 17.945312 66.332031 21.617188 67.324219 23.609375 C 68.101562 25.164062 68.382812 27.332031 68.152344 28.640625 C 67.855469 30.347656 66.289062 32.476562 65.0625 33.613281 C 64.074219 34.523438 62.835938 35.230469 62 35.726562 C 60.824219 36.421875 60.871094 36.589844 59.332031 36.667969 C 57.824219 36.746094 55.792969 36.738281 55.308594 36.5625 C 54.703125 38.316406 56.777344 39.191406 58.183594 39.882812 C 55.921875 41.542969 54.542969 44.621094 54.777344 45.355469 C 58.046875 45.289062 58.921875 44.175781 60.128906 42.382812 C 61.167969 43.453125 61.277344 44.949219 63.648438 45.160156 C 63.867188 43.160156 63.65625 40.695312 64.378906 39.128906 C 66.542969 34.433594 71.003906 32.449219 71.945312 32.3125 C 75.25 31.828125 79.164062 33.878906 80.917969 36.625 C 81.707031 37.859375 82.125 39.332031 82.125 40.789062 C 82.125 44.773438 79.421875 48.003906 76.089844 48.003906 C 74.703125 48.003906 73.425781 47.445312 72.40625 46.503906 C 72.40625 46.574219 68.847656 43.023438 72.570312 41.054688 C 73.511719 45.898438 79.246094 45.542969 78.75 40.554688 C 78.449219 37.511719 76.417969 34.683594 73.105469 34.6875 C 71.683594 34.691406 70.238281 35.238281 69.125 36.195312 C 66.273438 38.648438 64.582031 44.160156 67.359375 47.265625 C 63.5 49.097656 61.726562 46.292969 59.683594 45.484375 C 58.445312 46.289062 56.367188 47.292969 53.25 49.992188 C 56.367188 52.695312 58.445312 53.699219 59.683594 54.503906 C 61.726562 53.695312 63.5 50.890625 67.359375 52.722656 C 64.582031 55.828125 66.273438 61.339844 69.125 63.792969 C 70.238281 64.75 71.683594 65.296875 73.105469 65.300781 C 76.417969 65.304688 78.449219 62.476562 78.75 59.433594 C 79.246094 54.445312 73.511719 54.089844 72.570312 58.933594 C 68.847656 56.964844 72.40625 53.414062 72.40625 53.484375 C 73.425781 52.542969 74.703125 51.984375 76.089844 51.984375 C 79.421875 51.984375 82.125 55.214844 82.125 59.199219 C 82.125 60.65625 81.707031 62.128906 80.917969 63.363281 C 79.164062 66.109375 75.25 68.160156 71.945312 67.675781 C 71.003906 67.539062 66.542969 65.554688 64.378906 60.859375 C 63.65625 59.292969 63.867188 56.828125 63.648438 54.828125 C 61.277344 55.039062 61.167969 56.535156 60.128906 57.605469 C 58.921875 55.808594 58.046875 54.699219 54.777344 54.632812 C 54.542969 55.367188 55.921875 58.445312 58.183594 60.105469 C 56.777344 60.796875 54.703125 61.671875 55.308594 63.421875 C 55.792969 63.25 57.824219 63.242188 59.332031 63.320312 C 60.871094 63.398438 60.824219 63.566406 62 64.261719 C 62.835938 64.753906 64.074219 65.464844 65.0625 66.375 C 66.289062 67.511719 67.855469 69.640625 68.152344 71.347656 C 68.382812 72.65625 68.101562 74.824219 67.324219 76.378906 C 66.332031 78.371094 63.222656 82.042969 59.238281 82.042969 C 55.253906 82.042969 52.023438 79.339844 52.023438 76.007812 C 52.023438 74.621094 52.585938 73.34375 53.523438 72.324219 C 53.457031 72.324219 57.007812 68.765625 58.972656 72.488281 C 54.128906 73.429688 54.488281 79.164062 59.476562 78.667969 C 67.261719 77.894531 68.300781 68.609375 60.625 66.519531 C 59.117188 66.109375 55.136719 65.15625 52.761719 67.277344 C 51.546875 64.71875 54.121094 60.714844 54.820312 59.472656 C 53.113281 56.863281 50.730469 53.972656 50.035156 53.167969 Z M 50.035156 53.167969 "/>
</g>
</svg>
