<svg width="19" height="19" viewBox="0 0 19 19" fill="none" xmlns="http://www.w3.org/2000/svg">
<path d="M8.82937 0.0447309C8.43721 0.172861 8.09165 0.483481 7.89363 0.883403C7.7888 1.09695 7.7888 1.10472 7.7888 1.91233V2.72771L7.90139 2.97232C7.97906 3.14316 8.08777 3.28293 8.26249 3.44601L8.51099 3.67897L8.1693 3.83429C7.98293 3.92359 7.6296 4.08278 7.38499 4.19538C6.83365 4.44388 6.5502 4.68849 6.36383 5.069L6.23571 5.32914L6.22405 7.00649L6.2124 8.68771H6.52302H6.83365L6.84529 7.12297C6.85694 5.59704 6.85694 5.55822 6.94236 5.38349C6.99283 5.28643 7.08213 5.1583 7.14426 5.10006C7.20638 5.04182 7.71891 4.77779 8.28967 4.51376L9.32636 4.03618L10.3592 4.51764C10.9299 4.78168 11.4425 5.0457 11.5046 5.10394C11.5628 5.16218 11.6521 5.28643 11.7025 5.38349C11.788 5.55822 11.788 5.59704 11.7997 7.12297L11.8113 8.68771H12.1219H12.4326L12.4209 7.00649L12.4092 5.32914L12.2811 5.069C12.0947 4.68461 11.8113 4.44388 11.26 4.19538C11.0154 4.08278 10.662 3.9197 10.4757 3.83429L10.1379 3.67509L10.3708 3.46154C10.5261 3.31399 10.6426 3.15868 10.728 2.98785L10.8562 2.72771V1.91233V1.09695L10.7436 0.863989C10.596 0.565018 10.3009 0.26993 10.002 0.126269C9.80005 0.0253172 9.7224 0.00978624 9.38072 0.00202077C9.13222 -0.00574471 8.93421 0.00978624 8.82937 0.0447309ZM9.70298 0.724211C9.90101 0.825161 10.0563 0.988237 10.1534 1.19402C10.2233 1.34545 10.2349 1.43864 10.2349 1.93174C10.231 2.5491 10.2039 2.66558 9.99031 2.90631C9.92819 2.98008 9.74958 3.10044 9.59816 3.17422L9.32248 3.30624L9.07787 3.18587C8.7556 3.02668 8.60806 2.89854 8.49934 2.67722C8.4178 2.51027 8.41003 2.44426 8.41003 1.93174C8.41003 1.44251 8.42168 1.34545 8.49158 1.19402C8.58475 0.99212 8.74006 0.829044 8.93421 0.724211C9.12058 0.627142 9.50885 0.627142 9.70298 0.724211Z" fill="#36E1E8"/>
<path d="M3.3237 1.92784C3.23827 1.96667 3.11403 2.05985 3.04414 2.12974C2.78787 2.40153 2.79952 2.23458 2.79952 5.62032V8.68768H3.11015H3.42076V5.75622C3.42076 2.51801 3.413 2.60344 3.65373 2.51801C3.74303 2.49083 4.30991 2.47531 5.46308 2.47531H7.14819V2.16468V1.85406H5.31554C3.61102 1.85406 3.46736 1.86183 3.3237 1.92784Z" fill="#36E1E8"/>
<path d="M11.4968 2.16468V2.4753H13.1858C15.0651 2.4753 15.1 2.47919 15.1816 2.70827C15.2127 2.80145 15.2243 3.67895 15.2243 5.7601V8.68769H15.5349H15.8455V5.62033C15.8455 2.23457 15.8572 2.40154 15.6009 2.12975C15.3368 1.85019 15.3796 1.85407 13.3333 1.85407H11.4968V2.16468Z" fill="#36E1E8"/>
<path d="M7.45874 6.8239V8.06638H7.76937H8.07998V6.8239V5.58142H7.76937H7.45874V6.8239Z" fill="#36E1E8"/>
<path d="M10.5649 6.8239V8.06638H10.8756H11.1862V6.8239V5.58142H10.8756H10.5649V6.8239Z" fill="#36E1E8"/>
<path d="M8.42939 8.45085C7.2801 8.7071 6.31718 9.35164 5.69593 10.2913C5.47074 10.6291 5.15236 11.3008 5.17565 11.3745C5.19118 11.4211 5.7503 11.6037 5.79689 11.5765C5.81242 11.5648 5.82795 11.5337 5.82795 11.5065C5.82795 11.4095 6.17352 10.7572 6.34436 10.5281C6.55014 10.2563 6.98113 9.84086 7.24127 9.66225C7.54024 9.45647 8.04112 9.23516 8.4488 9.1342C9.24088 8.9323 10.1533 9.02549 10.9066 9.38659C11.0813 9.46812 11.3065 9.59237 11.4036 9.66225C11.6637 9.84086 12.0947 10.2563 12.3005 10.5281C12.4713 10.7572 12.8168 11.4095 12.8168 11.5065C12.8168 11.5337 12.8324 11.5648 12.8479 11.5765C12.8945 11.6037 13.4498 11.4289 13.4653 11.3784C13.473 11.3551 13.411 11.1804 13.3294 10.9863C12.8013 9.76321 11.722 8.843 10.4096 8.49355C9.93589 8.3693 8.90308 8.34601 8.42939 8.45085Z" fill="#36E1E8"/>
<path d="M2.61697 9.36327C2.22481 9.4914 1.87925 9.80202 1.68123 10.2019C1.5764 10.4155 1.5764 10.4233 1.5764 11.2309V12.0462L1.68899 12.2909C1.76664 12.4617 1.87537 12.6015 2.05009 12.7645L2.29859 12.9975L1.9569 13.1528C1.77053 13.2421 1.4172 13.4013 1.17259 13.5139C0.621239 13.7624 0.337799 14.007 0.151427 14.3875L0.0232965 14.6477L0.0116482 16.6356L0 18.6275H0.310619H0.621239L0.632887 16.7521C0.644535 14.9039 0.644535 14.8768 0.729955 14.702C0.780431 14.605 0.869734 14.4768 0.931857 14.4186C0.993982 14.3603 1.5065 14.0963 2.07727 13.8323L3.11395 13.3548L4.14676 13.8361C4.71753 14.1002 5.23005 14.3642 5.29217 14.4225C5.35041 14.4807 5.43972 14.605 5.4902 14.702C5.57562 14.8768 5.57562 14.9039 5.58726 16.7521L5.59891 18.6275H5.90953H6.22015L6.2085 16.6356L6.19685 14.6477L6.06872 14.3875C5.88236 14.0031 5.59891 13.7624 5.04756 13.5139C4.80295 13.4013 4.44962 13.2382 4.26325 13.1528L3.92544 12.9937L4.15842 12.7801C4.31373 12.6326 4.43021 12.4772 4.51563 12.3064L4.64376 12.0462V11.2309V10.4155L4.53115 10.1825C4.38361 9.88356 4.08852 9.58846 3.78955 9.44481C3.58765 9.34386 3.50999 9.32832 3.16832 9.32056C2.91982 9.3128 2.72181 9.32832 2.61697 9.36327ZM3.49058 10.0428C3.6886 10.1437 3.84391 10.3068 3.94098 10.5126C4.01087 10.664 4.02252 10.7572 4.02252 11.2502C4.01863 11.8676 3.99145 11.9841 3.7779 12.2248C3.71579 12.2986 3.53717 12.419 3.38574 12.4927L3.11008 12.6247L2.86546 12.5044C2.54319 12.3452 2.39565 12.2171 2.28693 11.9957C2.2054 11.8289 2.19763 11.7628 2.19763 11.2502C2.19763 10.7611 2.20928 10.664 2.27917 10.5126C2.37235 10.3107 2.52766 10.1476 2.72181 10.0428C2.90817 9.94569 3.29644 9.94569 3.49058 10.0428Z" fill="#36E1E8"/>
<path d="M15.0418 9.36327C14.6497 9.4914 14.3041 9.80202 14.1061 10.2019C14.0012 10.4155 14.0012 10.4233 14.0012 11.2309V12.0462L14.1138 12.2909C14.1915 12.4617 14.3002 12.6015 14.4749 12.7645L14.7235 12.9975L14.3818 13.1528C14.1954 13.2421 13.8421 13.4013 13.5974 13.5139C13.0461 13.7624 12.7627 14.007 12.5762 14.3875L12.4482 14.6477L12.4365 16.6356L12.4248 18.6275H12.7355H13.0461L13.0577 16.7521C13.0694 14.9039 13.0694 14.8768 13.1549 14.702C13.2053 14.605 13.2946 14.4768 13.3567 14.4186C13.4188 14.3603 13.9314 14.0963 14.5021 13.8323L15.5388 13.3548L16.5716 13.8361C17.1424 14.1002 17.6549 14.3642 17.717 14.4225C17.7753 14.4807 17.8646 14.605 17.915 14.702C18.0004 14.8768 18.0004 14.9039 18.0121 16.7521L18.0238 18.6275H18.3344H18.645L18.6333 16.6356L18.6217 14.6477L18.4936 14.3875C18.3072 14.0031 18.0238 13.7624 17.4724 13.5139C17.2278 13.4013 16.8745 13.2382 16.6881 13.1528L16.3503 12.9937L16.5832 12.7801C16.7386 12.6326 16.855 12.4772 16.9404 12.3064L17.0686 12.0462V11.2309V10.4155L16.956 10.1825C16.8084 9.88356 16.5134 9.58846 16.2144 9.44481C16.0125 9.34386 15.9349 9.32832 15.5932 9.32056C15.3447 9.3128 15.1466 9.32832 15.0418 9.36327ZM15.9154 10.0428C16.1135 10.1437 16.2687 10.3068 16.3659 10.5126C16.4357 10.664 16.4473 10.7572 16.4473 11.2502C16.4435 11.8676 16.4163 11.9841 16.2028 12.2248C16.1406 12.2986 15.962 12.419 15.8106 12.4927L15.5349 12.6247L15.2903 12.5044C14.968 12.3452 14.8205 12.2171 14.7117 11.9957C14.6303 11.8289 14.6224 11.7628 14.6224 11.2502C14.6224 10.7611 14.6342 10.664 14.704 10.5126C14.7972 10.3107 14.9525 10.1476 15.1466 10.0428C15.333 9.94569 15.7213 9.94569 15.9154 10.0428Z" fill="#36E1E8"/>
<path d="M8.6896 9.64668C8.68183 9.6661 8.63525 9.83694 8.58866 10.0311C8.51488 10.33 8.48382 10.3922 8.40617 10.431C8.26638 10.4931 8.25474 10.4931 7.90529 10.2796C7.72668 10.1708 7.56749 10.0854 7.54808 10.0854C7.50536 10.0854 6.68223 10.9125 6.68223 10.9552C6.68223 10.9707 6.77153 11.1338 6.88024 11.3163C7.07439 11.6347 7.0938 11.7201 7.00061 11.8598C6.98508 11.8832 6.80648 11.9453 6.60457 11.9957L6.23572 12.0889V12.7257V13.3625L6.60457 13.4557C6.80648 13.5061 6.98508 13.5682 7.00061 13.5916C7.0938 13.7313 7.07439 13.8168 6.88024 14.1351C6.77153 14.3176 6.68223 14.4807 6.68223 14.5001C6.68223 14.5428 7.50925 15.366 7.55196 15.366C7.56749 15.366 7.73057 15.2767 7.91306 15.1679C8.23144 14.9738 8.31687 14.9543 8.45664 15.0475C8.47994 15.0631 8.54206 15.2417 8.59253 15.4436L8.68572 15.8125H9.32249H9.95926L10.0524 15.4436C10.1029 15.2417 10.165 15.0631 10.1883 15.0475C10.3281 14.9543 10.4135 14.9738 10.7319 15.1679C10.9144 15.2767 11.0775 15.366 11.0969 15.366C11.1396 15.366 11.9627 14.5389 11.9627 14.4962C11.9627 14.4807 11.8734 14.3176 11.7648 14.1351C11.5706 13.8168 11.5512 13.7313 11.6444 13.5916C11.6599 13.5682 11.8385 13.5061 12.0404 13.4557L12.4093 13.3625V12.7257V12.0889L12.0404 11.9957C11.8385 11.9453 11.6599 11.8832 11.6444 11.8598C11.5512 11.7201 11.5706 11.6347 11.7648 11.3163C11.8734 11.1338 11.9627 10.9707 11.9627 10.9513C11.9627 10.9086 11.1357 10.0854 11.093 10.0854C11.0775 10.0854 10.9144 10.1747 10.7319 10.2835C10.4135 10.4776 10.3281 10.497 10.1883 10.4038C10.165 10.3883 10.1029 10.2097 10.0524 10.0078L9.95926 9.63892L9.33414 9.62727C8.98857 9.62339 8.70125 9.63115 8.6896 9.64668ZM9.5011 10.5591L9.57487 10.8775L10.0175 11.06L10.4601 11.2425L10.7047 11.0872C11.0969 10.8426 11.2056 10.9513 10.961 11.3434L10.8057 11.5881L10.9882 12.0307L11.1707 12.4733L11.4891 12.5471C11.788 12.6209 11.8075 12.6286 11.8075 12.7257C11.8075 12.8228 11.788 12.8306 11.4891 12.9043L11.1707 12.9781L10.9882 13.4207L10.8057 13.8633L10.961 14.1079C11.2056 14.5001 11.0969 14.6089 10.7047 14.3642L10.4601 14.2089L10.0175 14.3914L9.57487 14.5739L9.5011 14.8923C9.42733 15.1913 9.41956 15.2106 9.32249 15.2106C9.22542 15.2106 9.21766 15.1913 9.14388 14.8923L9.07012 14.5739L8.62748 14.3914L8.18485 14.2089L7.94023 14.3642C7.54808 14.6089 7.43937 14.5001 7.68398 14.104L7.84316 13.8556L7.65679 13.4168L7.47043 12.9781L7.15592 12.9043C6.85695 12.8306 6.83754 12.8228 6.83754 12.7257C6.83754 12.6286 6.85695 12.6209 7.15592 12.5471L7.47043 12.4733L7.65679 12.0346L7.84316 11.5958L7.68398 11.3474C7.43937 10.9513 7.54808 10.8426 7.94023 11.0872L8.18485 11.2425L8.62748 11.06L9.07012 10.8775L9.14388 10.5591C9.21766 10.2602 9.22542 10.2407 9.32249 10.2407C9.41956 10.2407 9.42733 10.2602 9.5011 10.5591Z" fill="#36E1E8"/>
<path d="M8.82947 11.5647C8.59261 11.6578 8.31695 11.9103 8.1927 12.1471C8.06068 12.4034 8.04516 12.9003 8.15775 13.2032C8.54214 14.2205 10.103 14.2244 10.4835 13.211C10.6582 12.7451 10.5573 12.1859 10.2389 11.8559C9.97488 11.588 9.79239 11.5103 9.38081 11.4948C9.09738 11.487 8.99254 11.4987 8.82947 11.5647ZM9.62543 12.2209C10.1302 12.5276 9.91275 13.308 9.32257 13.308C8.99254 13.308 8.74017 13.0557 8.74017 12.7256C8.74017 12.2752 9.24104 11.9879 9.62543 12.2209Z" fill="#36E1E8"/>
<path d="M1.24646 17.0744V18.6275H1.55709H1.8677V17.0744V15.5213H1.55709H1.24646V17.0744Z" fill="#36E1E8"/>
<path d="M4.35254 17.0744V18.6275H4.66316H4.97377V17.0744V15.5213H4.66316H4.35254V17.0744Z" fill="#36E1E8"/>
<path d="M13.6711 17.0744V18.6275H13.9817H14.2923V17.0744V15.5213H13.9817H13.6711V17.0744Z" fill="#36E1E8"/>
<path d="M16.7775 17.0744V18.6275H17.0881H17.3987V17.0744V15.5213H17.0881H16.7775V17.0744Z" fill="#36E1E8"/>
<path d="M6.8415 15.859C6.74831 15.9794 6.67066 16.1076 6.66677 16.1386C6.66289 16.224 7.20647 16.5773 7.59475 16.7366C8.21987 17.0006 8.51884 17.0549 9.32257 17.0549C10.1263 17.0549 10.4253 17.0006 11.0504 16.7366C11.3726 16.6046 11.9667 16.2356 11.99 16.158C12.0017 16.1308 11.7377 15.7542 11.6328 15.6455C11.625 15.6377 11.5357 15.6921 11.4309 15.7659C10.5107 16.4221 9.20609 16.6046 8.11892 16.2279C7.83159 16.127 7.44332 15.929 7.21424 15.7697C7.11329 15.6959 7.02787 15.6377 7.0201 15.6377C7.01622 15.6377 6.93468 15.7386 6.8415 15.859Z" fill="#36E1E8"/>
</svg>
