<svg width="16" height="19" viewBox="0 0 16 19" fill="none" xmlns="http://www.w3.org/2000/svg">
<g clip-path="url(#clip0_59_126)">
<path d="M0.252344 0.0660494C0.189258 0.104602 0.108648 0.185212 0.0700954 0.248297C0 0.363955 0 0.444565 0 8.40741C0 16.3703 0 16.4509 0.0700954 16.5665C0.196267 16.7734 0.318934 16.8188 0.746518 16.8188H1.12153V17.1939C1.12153 17.6215 1.16709 17.7441 1.37388 17.8703C1.48952 17.9405 1.56313 17.9405 7.57031 17.9405C13.5775 17.9405 13.6511 17.9405 13.7668 17.8703C13.8298 17.8318 13.9104 17.7511 13.949 17.688C14.0191 17.5724 14.0191 17.4918 14.0191 9.52894C14.0191 1.5661 14.0191 1.48548 13.949 1.36983C13.8124 1.14552 13.7212 1.11748 13.0693 1.11748C12.4279 1.11748 12.3964 1.128 12.3508 1.35231C12.3368 1.43291 12.3508 1.47847 12.4174 1.55908L12.505 1.66073L12.9817 1.67124L13.4583 1.68525V9.54997V17.4147H7.57031H1.6823V17.1167V16.8188H7.10768C12.456 16.8188 12.5296 16.8188 12.6452 16.7488C12.8696 16.6121 12.8976 16.5175 12.8976 15.8866C12.8976 15.3855 12.8906 15.3119 12.831 15.2383C12.7363 15.1191 12.5296 15.1261 12.4209 15.2558C12.3403 15.3434 12.3368 15.3784 12.3368 15.806V16.2581H6.44879H0.560763V8.38989V0.52167H4.99079C7.42662 0.52167 9.44537 0.532185 9.47691 0.542698C9.52598 0.560223 9.53298 0.700414 9.53298 1.72732C9.53298 2.86286 9.53649 2.8944 9.61359 3.04511C9.76079 3.3395 9.7643 3.34301 11.1347 3.35353L12.3368 3.36404L12.3438 8.90159L12.3543 14.4427L12.4384 14.5092C12.5471 14.5968 12.7363 14.5968 12.8275 14.5058C12.8976 14.4356 12.8976 14.3901 12.8976 8.81047V3.18881L12.824 2.98552C12.7538 2.79627 12.6592 2.69112 11.4466 1.47847C10.5914 0.623309 10.0937 0.150163 9.9886 0.0940876L9.83089 0.0134778L5.09945 0.00296353C0.424077 -0.00404602 0.368001 -0.00404602 0.252344 0.0660494ZM11.04 1.87101L11.9688 2.79978H11.0295H10.0937V1.87101C10.0937 1.35931 10.0973 0.942243 10.1043 0.942243C10.1078 0.942243 10.5283 1.35931 11.04 1.87101Z" fill="#36E1E8"/>
<path d="M3.64493 2.85592C2.84233 3.0697 2.22549 3.69356 2.01521 4.49966C1.94862 4.76601 1.94862 5.27421 2.01872 5.56861C2.19395 6.31513 2.82481 6.97403 3.57483 7.19482C4.44753 7.45067 5.45339 7.11422 5.99313 6.38172C6.51184 5.68076 6.58543 4.83261 6.19991 4.02651C6.08776 3.78818 6.00364 3.67954 5.77233 3.44822C5.29918 2.9856 4.84005 2.79633 4.18816 2.80335C3.9954 2.80335 3.75007 2.82787 3.64493 2.85592ZM4.70688 3.4342C5.54451 3.71459 6.0457 4.59429 5.83541 5.4109C5.77233 5.65973 5.64265 5.9261 5.50597 6.09433L5.40433 6.21349L5.27114 6.09784C4.9522 5.81745 4.38443 5.66324 3.94284 5.73683C3.66946 5.7824 3.30146 5.94362 3.12623 6.09784L3.00006 6.20999L2.89842 6.09082C2.6741 5.82446 2.5234 5.40739 2.5234 5.04289C2.5234 4.30339 3.00006 3.65501 3.70802 3.4272C3.99191 3.33607 4.4265 3.33958 4.70688 3.4342ZM4.69285 6.39924C4.798 6.45531 4.88212 6.51139 4.88212 6.53243C4.88562 6.60953 4.53865 6.70065 4.22321 6.70416C3.89027 6.70766 3.49072 6.61304 3.51525 6.53592C3.52226 6.5149 3.58185 6.46583 3.64493 6.43078C3.96035 6.24503 4.36692 6.23452 4.69285 6.39924Z" fill="#36E1E8"/>
<path d="M3.82717 3.99499C3.20332 4.30341 3.21383 5.21114 3.84469 5.51956C4.03044 5.61068 4.38793 5.60368 4.57369 5.50904C5.05383 5.2567 5.18702 4.65038 4.85407 4.21929C4.64728 3.94592 4.14961 3.83727 3.82717 3.99499ZM4.38092 4.55224C4.53513 4.70646 4.48957 4.93427 4.28979 5.00786C4.16713 5.05693 4.15311 5.05343 4.03395 4.95179C3.89726 4.83613 3.89025 4.69244 4.01292 4.56977C4.11806 4.46112 4.28279 4.45411 4.38092 4.55224Z" fill="#36E1E8"/>
<path d="M7.36349 4.29285C7.22681 4.46458 7.30041 4.6959 7.5072 4.74496C7.55276 4.75547 8.30978 4.75898 9.19299 4.75547L10.8017 4.74496L10.8683 4.66085C10.9594 4.54869 10.9559 4.37346 10.8543 4.27882C10.7736 4.20172 10.7701 4.20172 9.10536 4.20172H7.43359L7.36349 4.29285Z" fill="#36E1E8"/>
<path d="M7.37758 5.69125C7.27244 5.79289 7.26543 5.95062 7.35655 6.06277L7.42314 6.14687L8.81104 6.15739L10.1989 6.1679L10.2865 6.08028C10.4022 5.96463 10.4057 5.78589 10.2935 5.68074C10.2129 5.60364 10.1989 5.60364 8.83556 5.60364H7.4617L7.37758 5.69125Z" fill="#36E1E8"/>
<path d="M2.05377 8.20061C1.98367 8.25668 1.96265 8.30225 1.96265 8.40739C1.96265 8.51254 1.98367 8.5581 2.05377 8.61417C2.1484 8.68777 2.1519 8.68777 6.44875 8.68777C10.7456 8.68777 10.7491 8.68777 10.8437 8.61417C10.9734 8.51254 10.9734 8.30225 10.8437 8.20061C10.7491 8.12701 10.7456 8.12701 6.44875 8.12701C2.1519 8.12701 2.1484 8.12701 2.05377 8.20061Z" fill="#36E1E8"/>
<path d="M2.05377 9.60258C1.98367 9.65866 1.96265 9.70422 1.96265 9.80937C1.96265 9.91451 1.98367 9.96008 2.05377 10.0162C2.1484 10.0898 2.15541 10.0898 5.895 10.0898H9.64161L9.72572 10.0021C9.78179 9.94956 9.81333 9.87596 9.81333 9.80937C9.81333 9.74278 9.78179 9.66917 9.72572 9.61661L9.64161 9.52899H5.895C2.15541 9.52899 2.1484 9.52899 2.05377 9.60258Z" fill="#36E1E8"/>
<path d="M2.05381 11.0045C1.93115 11.0991 1.92764 11.3059 2.0433 11.4146L2.12391 11.4917H4.90319H7.67896L7.76308 11.404C7.81916 11.3515 7.8507 11.2779 7.8507 11.2113C7.8507 11.1447 7.81916 11.0711 7.76308 11.0185L7.67896 10.9309H4.9137C2.16947 10.9309 2.14494 10.9309 2.05381 11.0045Z" fill="#36E1E8"/>
<path d="M2.05041 12.4169C1.93475 12.5326 1.93124 12.7114 2.04339 12.8165L2.124 12.8935H5.89164H9.66277L9.73638 12.813C9.83101 12.7114 9.83451 12.5431 9.74689 12.4345L9.6803 12.3503L5.90917 12.3398L2.13452 12.3328L2.05041 12.4169Z" fill="#36E1E8"/>
</g>
<defs>
<clipPath id="clip0_59_126">
<rect width="15.2" height="19" fill="white"/>
</clipPath>
</defs>
</svg>
