<svg width="16" height="19" viewBox="0 0 16 19" fill="none" xmlns="http://www.w3.org/2000/svg">
<g clip-path="url(#clip0_59_127)">
<path d="M0.252344 0.0659274C0.189258 0.10448 0.108648 0.18509 0.0700954 0.248175C0 0.363833 0 0.444443 0 8.40729C0 16.3701 0 16.4508 0.0700954 16.5664C0.196267 16.7731 0.318934 16.8187 0.746518 16.8187H1.12153V17.1938C1.12153 17.6213 1.16709 17.744 1.37388 17.8702C1.48952 17.9402 1.56313 17.9402 7.57031 17.9402C13.5775 17.9402 13.6511 17.9402 13.7668 17.8702C13.8298 17.8317 13.9104 17.751 13.949 17.6879C14.0191 17.5723 14.0191 17.4917 14.0191 9.52881C14.0191 1.56598 14.0191 1.48537 13.949 1.36971C13.8124 1.1454 13.7212 1.11736 13.0693 1.11736C12.4279 1.11736 12.3964 1.12787 12.3508 1.35218C12.3368 1.43279 12.3508 1.47835 12.4174 1.55896L12.505 1.6606L12.9817 1.67111L13.4583 1.68513V9.54985V17.4146H7.57031H1.6823V17.1167V16.8187H7.10768C12.456 16.8187 12.5296 16.8187 12.6452 16.7487C12.8696 16.612 12.8976 16.5174 12.8976 15.8865C12.8976 15.3852 12.8906 15.3117 12.831 15.2381C12.7363 15.119 12.5296 15.126 12.4209 15.2557C12.3403 15.3432 12.3368 15.3783 12.3368 15.8059V16.258H6.44879H0.560763V8.38976V0.521548H4.99079C7.42662 0.521548 9.44537 0.532062 9.47691 0.542576C9.52598 0.560101 9.53298 0.700292 9.53298 1.72718C9.53298 2.86274 9.53649 2.89428 9.61359 3.04499C9.76079 3.33938 9.7643 3.34289 11.1347 3.35341L12.3368 3.36392L12.3438 8.90146L12.3543 14.4425L12.4384 14.5091C12.5471 14.5967 12.7363 14.5967 12.8275 14.5055C12.8976 14.4355 12.8976 14.3899 12.8976 8.81033V3.18868L12.824 2.9854C12.7538 2.79615 12.6592 2.691 11.4466 1.47835C10.5914 0.623187 10.0937 0.150041 9.9886 0.0939656L9.83089 0.0133558L5.09945 0.00284145C0.424077 -0.00416809 0.368001 -0.00416809 0.252344 0.0659274ZM11.04 1.87089L11.9688 2.79965H11.0295H10.0937V1.87089C10.0937 1.35919 10.0973 0.942121 10.1043 0.942121C10.1078 0.942121 10.5283 1.35919 11.04 1.87089Z" fill="#86A1FF"/>
<path d="M3.64493 2.85574C2.84233 3.06953 2.22549 3.69338 2.01521 4.49949C1.94862 4.76584 1.94862 5.27404 2.01872 5.56844C2.19395 6.31495 2.82481 6.97386 3.57483 7.19465C4.44753 7.4505 5.45339 7.11404 5.99313 6.38155C6.51184 5.68059 6.58543 4.83243 6.19991 4.02633C6.08776 3.78801 6.00364 3.67937 5.77233 3.44805C5.29918 2.98541 4.84005 2.79616 4.18816 2.80317C3.9954 2.80317 3.75007 2.8277 3.64493 2.85574ZM4.70688 3.43403C5.54451 3.71441 6.0457 4.59411 5.83541 5.41073C5.77233 5.65956 5.64265 5.92593 5.50597 6.09416L5.40433 6.21331L5.27114 6.09765C4.9522 5.81727 4.38443 5.66307 3.94284 5.73666C3.66946 5.78223 3.30146 5.94345 3.12623 6.09765L3.00006 6.20982L2.89842 6.09065C2.6741 5.82428 2.5234 5.40722 2.5234 5.04272C2.5234 4.30322 3.00006 3.65483 3.70802 3.42702C3.99191 3.3359 4.4265 3.3394 4.70688 3.43403ZM4.69285 6.39907C4.798 6.45514 4.88212 6.51122 4.88212 6.53225C4.88562 6.60936 4.53865 6.70048 4.22321 6.70398C3.89027 6.70749 3.49072 6.61286 3.51525 6.53575C3.52226 6.51473 3.58185 6.46566 3.64493 6.43061C3.96035 6.24486 4.36692 6.23434 4.69285 6.39907Z" fill="#86A1FF"/>
<path d="M3.82717 3.9948C3.20332 4.30322 3.21383 5.21095 3.84469 5.51938C4.03044 5.6105 4.38793 5.60349 4.57369 5.50886C5.05383 5.25652 5.18702 4.65019 4.85407 4.2191C4.64728 3.94573 4.14961 3.83709 3.82717 3.9948ZM4.38092 4.55206C4.53513 4.70626 4.48957 4.93407 4.28979 5.00768C4.16713 5.05675 4.15311 5.05324 4.03395 4.9516C3.89726 4.83595 3.89025 4.69225 4.01292 4.56958C4.11806 4.46094 4.28279 4.45393 4.38092 4.55206Z" fill="#86A1FF"/>
<path d="M7.36349 4.29272C7.22681 4.46446 7.30041 4.69576 7.5072 4.74483C7.55276 4.75535 8.30978 4.75886 9.19299 4.75535L10.8017 4.74483L10.8683 4.66072C10.9594 4.54856 10.9559 4.37333 10.8543 4.2787C10.7736 4.2016 10.7701 4.2016 9.10536 4.2016H7.43359L7.36349 4.29272Z" fill="#86A1FF"/>
<path d="M7.37758 5.69107C7.27244 5.79271 7.26543 5.95042 7.35655 6.06258L7.42314 6.14669L8.81104 6.1572L10.1989 6.16772L10.2865 6.0801C10.4022 5.96444 10.4057 5.7857 10.2935 5.68056C10.2129 5.60345 10.1989 5.60345 8.83556 5.60345H7.4617L7.37758 5.69107Z" fill="#86A1FF"/>
<path d="M2.05377 8.20044C1.98367 8.25651 1.96265 8.30207 1.96265 8.40722C1.96265 8.51237 1.98367 8.55793 2.05377 8.614C2.1484 8.6876 2.1519 8.6876 6.44875 8.6876C10.7456 8.6876 10.7491 8.6876 10.8437 8.614C10.9734 8.51237 10.9734 8.30207 10.8437 8.20044C10.7491 8.12683 10.7456 8.12683 6.44875 8.12683C2.1519 8.12683 2.1484 8.12683 2.05377 8.20044Z" fill="#86A1FF"/>
<path d="M2.05377 9.6024C1.98367 9.65848 1.96265 9.70404 1.96265 9.80919C1.96265 9.91433 1.98367 9.95989 2.05377 10.016C2.1484 10.0896 2.15541 10.0896 5.895 10.0896H9.64161L9.72572 10.0019C9.78179 9.94938 9.81333 9.87577 9.81333 9.80919C9.81333 9.7426 9.78179 9.66899 9.72572 9.61642L9.64161 9.52881H5.895C2.15541 9.52881 2.1484 9.52881 2.05377 9.6024Z" fill="#86A1FF"/>
<path d="M2.05381 11.0044C1.93115 11.099 1.92764 11.3058 2.0433 11.4144L2.12391 11.4916H4.90319H7.67896L7.76308 11.4039C7.81916 11.3514 7.8507 11.2778 7.8507 11.2112C7.8507 11.1446 7.81916 11.071 7.76308 11.0184L7.67896 10.9308H4.9137C2.16947 10.9308 2.14494 10.9308 2.05381 11.0044Z" fill="#86A1FF"/>
<path d="M2.05041 12.4167C1.93475 12.5324 1.93124 12.7111 2.04339 12.8162L2.124 12.8934H5.89164H9.66277L9.73638 12.8128C9.83101 12.7111 9.83451 12.5429 9.74689 12.4343L9.6803 12.3502L5.90917 12.3396L2.13452 12.3326L2.05041 12.4167Z" fill="#86A1FF"/>
</g>
<defs>
<clipPath id="clip0_59_127">
<rect width="15.2" height="19" fill="white"/>
</clipPath>
</defs>
</svg>
