<svg width="25" height="24" viewBox="0 0 25 24" fill="none" xmlns="http://www.w3.org/2000/svg">
<path d="M8.48581 0.010456C7.97507 0.0990534 6.51582 0.802621 5.62464 1.38632C4.79078 1.93354 4.35821 2.36089 4.24356 2.74134C4.12369 3.13742 4.13933 3.45533 4.29046 3.92437C4.79078 5.43574 4.29046 6.91584 3.00841 7.74448C2.6019 8.00507 2.23709 8.14057 1.67423 8.23959C0.371332 8.4689 0.0586354 9.09429 0.00651935 11.6011C-0.0508084 14.2642 0.251465 14.9261 1.65339 15.1658C2.74261 15.3534 3.60253 15.9788 4.082 16.9273C4.4885 17.7404 4.52499 18.569 4.18623 19.5436C3.9465 20.2471 3.9465 20.6328 4.19144 21.0862C4.5302 21.7168 6.39595 22.9363 7.91774 23.5357C8.76202 23.8692 9.48644 23.7389 9.93464 23.1813C10.3724 22.6288 10.8206 22.2432 11.2636 22.0295C11.8056 21.7741 12.0975 21.7064 12.6603 21.7064C13.6453 21.7064 14.5678 22.1442 15.1827 22.9051C15.4902 23.2959 15.7508 23.4679 16.1781 23.5721C16.4856 23.6503 16.5377 23.6503 16.8609 23.5669C17.7833 23.3428 19.7325 22.1963 20.5038 21.4302C21.0302 20.9038 21.1188 20.4139 20.8425 19.5488C20.5455 18.6263 20.5872 17.8759 20.9885 17.0524C21.4471 16.1143 22.2966 15.4889 23.4014 15.2805C23.8809 15.1867 24.1311 15.0668 24.3916 14.7958C24.8086 14.3632 24.9545 13.6961 24.991 12.018C25.0118 11.0643 25.0014 10.7881 24.9076 10.1731C24.7929 9.38614 24.6835 9.08908 24.3969 8.80765C24.1571 8.56271 23.8913 8.43763 23.4067 8.34382C23.1826 8.29692 22.8021 8.16141 22.5572 8.04676C21.7702 7.66631 21.124 6.89499 20.8582 5.9986C20.7122 5.5087 20.7331 4.71133 20.9103 4.15368C21.1292 3.45533 21.0771 2.91853 20.7539 2.49118C20.4621 2.11595 19.2791 1.27167 18.3358 0.771351C18.0647 0.625426 17.5696 0.396115 17.2413 0.260613C16.7254 0.0521489 16.5899 0.0156676 16.2772 0.0156676C15.7456 0.0156676 15.5006 0.140746 14.8752 0.750505C14.0779 1.52182 13.4316 1.80846 12.4987 1.80846C11.5607 1.80846 10.9144 1.52182 10.1275 0.755716C9.80956 0.44302 9.50729 0.203286 9.36657 0.140746C9.12684 0.0365141 8.7047 -0.0260253 8.48581 0.010456ZM13.515 7.84872C13.6609 7.8852 14.0101 8.02591 14.2968 8.16141C15.1879 8.59398 15.7612 9.16725 16.199 10.0637C16.5065 10.7047 16.6159 11.1685 16.6159 11.8773C16.6159 13.4773 15.7091 14.9 14.2446 15.5932C13.6453 15.8746 13.1658 15.9788 12.4831 15.9788C10.9144 15.9788 9.5125 15.1085 8.81935 13.7118C8.50666 13.076 8.38158 12.5548 8.38158 11.8773C8.38158 11.1685 8.49102 10.7047 8.79851 10.0637C9.23628 9.16725 9.80956 8.59398 10.7007 8.16141C10.9874 8.02591 11.3418 7.8852 11.4825 7.84872C12.0766 7.70279 12.9105 7.70279 13.515 7.84872Z" fill="#36E1E8"/>
</svg>
