<svg width="25" height="26" viewBox="0 0 25 26" fill="none" xmlns="http://www.w3.org/2000/svg">
<path d="M11.3603 0.107462C11.3261 0.170955 11.2333 0.468881 11.1601 0.771692C11.0673 1.15265 10.9989 1.33336 10.9452 1.35289C10.9012 1.36755 10.7498 1.43104 10.6033 1.49453L10.3347 1.61663L9.8023 1.29428C9.50926 1.11846 9.21622 0.976822 9.14296 0.976822C9.04039 0.976822 8.85968 1.13311 8.29313 1.69966C7.79008 2.20272 7.5703 2.45669 7.5703 2.52995C7.5703 2.59344 7.71193 2.87672 7.88776 3.16487L8.21011 3.69235L8.07335 4.03912L7.9366 4.39077L7.31144 4.54706C6.81327 4.66916 6.67163 4.72288 6.61302 4.8108C6.50069 4.98174 6.53488 6.91582 6.64721 7.00373C6.69117 7.03304 6.99886 7.12583 7.32609 7.20398C7.72658 7.30166 7.93171 7.37004 7.94637 7.42376C7.96102 7.46283 8.0294 7.61912 8.09289 7.77053L8.21499 8.04403L7.89264 8.57151C7.71682 8.85967 7.5703 9.15271 7.5703 9.22109C7.5703 9.309 7.66798 9.44576 7.92683 9.70461C8.21987 9.99277 8.31267 10.0611 8.43966 10.0611C8.60083 10.0611 8.74247 9.91951 8.74247 9.75345C8.74247 9.70461 8.63013 9.54344 8.49338 9.4018L8.24429 9.13806L8.5471 8.64477C8.89387 8.08311 8.89387 8.09776 8.62037 7.4726C8.52268 7.24305 8.425 7.0135 8.40058 6.95489C8.37128 6.87675 8.26383 6.82791 7.92683 6.74488C7.6924 6.68627 7.41401 6.61789 7.31633 6.58859L7.13073 6.53975V5.87063V5.19664L7.70705 5.05988C8.31755 4.91336 8.42012 4.85475 8.47384 4.64962C8.49338 4.57636 8.58129 4.35658 8.67409 4.15633C8.76689 3.96097 8.84015 3.74608 8.84015 3.68258C8.84015 3.61909 8.70339 3.35047 8.53734 3.08185C8.37128 2.80834 8.24918 2.58367 8.25895 2.5739C8.2736 2.56902 8.49338 2.35901 8.75223 2.10504L9.21622 1.65082L9.72416 1.94875C9.99767 2.1148 10.2663 2.24667 10.3151 2.24667C10.364 2.24667 10.5105 2.19295 10.6375 2.12946C10.7645 2.06596 11.0038 1.9634 11.1747 1.90479C11.3457 1.8413 11.502 1.75827 11.5215 1.71431C11.5459 1.67036 11.6241 1.38708 11.6973 1.08427L11.8292 0.537258H12.5081H13.1821L13.2309 0.717968C13.2602 0.820532 13.3286 1.09892 13.3872 1.33336C13.4702 1.67036 13.5191 1.77781 13.5972 1.80711C13.6558 1.83153 13.8854 1.92921 14.1149 2.02689C14.7401 2.3004 14.7205 2.3004 15.292 1.95363L15.7901 1.6557L16.2639 2.10992C16.5276 2.35901 16.7425 2.58367 16.7474 2.60321C16.7474 2.62763 16.6204 2.86206 16.4593 3.12092C16.2981 3.38466 16.1662 3.64839 16.1662 3.707C16.1662 3.76561 16.2297 3.93655 16.3079 4.09284C16.3811 4.24425 16.4837 4.48845 16.5276 4.6252C16.6253 4.91336 16.5911 4.89871 17.4849 5.11849L17.8512 5.2064V5.88529V6.56417L17.4849 6.65208C16.5814 6.87675 16.6302 6.84744 16.5081 7.18933C16.4495 7.36027 16.3469 7.59959 16.2834 7.72657C16.2199 7.85356 16.1662 8.00985 16.1662 8.07334C16.1662 8.13195 16.2981 8.40057 16.4593 8.66431L16.7572 9.14294L16.4837 9.42622C16.2151 9.71438 16.1662 9.83648 16.2639 10.0172C16.303 10.0807 16.3665 10.11 16.4934 10.11C16.6497 10.11 16.7181 10.066 17.0551 9.72903C17.3091 9.47506 17.4361 9.309 17.4361 9.23574C17.4361 9.17225 17.2895 8.88409 17.1137 8.58616L16.7914 8.0538L16.9184 7.77053C16.9867 7.61424 17.0453 7.46283 17.0453 7.42864C17.0453 7.39934 17.104 7.36027 17.1821 7.34073C17.2554 7.32608 17.5435 7.25282 17.8268 7.17956C18.2517 7.07211 18.3494 7.03304 18.3982 6.93047C18.4861 6.76441 18.4861 5.00616 18.3982 4.8401C18.3494 4.73754 18.2468 4.69358 17.7145 4.56171C17.3677 4.4738 17.0844 4.39565 17.0746 4.39077C17.0698 4.381 17.0063 4.21983 16.933 4.03912L16.8011 3.707L17.1186 3.18929C17.2944 2.90114 17.4361 2.61298 17.4361 2.5446C17.4361 2.37366 16.0441 0.976822 15.8781 0.976822C15.8146 0.976822 15.5264 1.12334 15.2285 1.29917L14.6961 1.62152L14.4177 1.49941C14.2663 1.43592 14.1051 1.36755 14.0661 1.35289C14.0124 1.33824 13.944 1.12823 13.8463 0.73262C13.7681 0.400505 13.6705 0.102578 13.6363 0.0635055C13.5874 0.0146651 13.3286 1.29472e-05 12.5032 1.29472e-05C11.4433 1.29472e-05 11.4287 1.29472e-05 11.3603 0.107462Z" fill="#86A1FF"/>
<path d="M11.9317 3.68745C11.5751 3.78513 11.2479 3.96096 10.9842 4.19539C9.97805 5.0794 10.0171 6.80347 11.0574 7.63376C12.3175 8.6301 14.1393 8.10751 14.6472 6.60322C14.8523 5.99272 14.7546 5.18197 14.4079 4.63984C13.8999 3.84374 12.845 3.44325 11.9317 3.68745ZM13.2015 4.36145C13.6948 4.58611 14.0758 5.08917 14.1588 5.62641C14.2858 6.42251 13.7681 7.23815 12.9817 7.47747C12.381 7.66306 11.8389 7.53119 11.3749 7.09651C10.4323 6.21738 10.7546 4.72775 11.9805 4.28819C12.337 4.1612 12.8303 4.19051 13.2015 4.36145Z" fill="#86A1FF"/>
<path d="M11.7461 8.33707C11.0086 8.43964 10.3786 8.76199 9.81205 9.32365C9.32853 9.80717 9.08432 10.2419 8.95734 10.8426C8.83524 11.414 8.88408 13.4556 9.0306 13.9928C9.23573 14.7547 9.65576 15.4482 10.1881 15.9073L10.4519 16.1369V16.7718V17.4116L9.65576 17.6998C8.73756 18.0319 8.59592 18.1003 8.28334 18.3396L8.04891 18.5154L7.84866 18.3836C7.73633 18.3054 7.30165 18.1247 6.8865 17.9733L6.12948 17.7047L6.11482 17.5288L6.10017 17.3579L6.44694 17.2993C7.1014 17.187 7.66795 16.806 7.99518 16.259C8.27846 15.7852 8.30288 15.585 8.30288 13.8463C8.30288 12.0392 8.27357 11.834 7.94146 11.1601C7.54585 10.364 6.90604 9.80229 6.04156 9.49948C5.79248 9.41645 5.4799 9.28946 5.34314 9.2162C4.49821 8.78641 3.30161 8.82059 2.32969 9.309C1.41637 9.76321 0.796099 10.4861 0.48352 11.4531C0.380955 11.7706 0.371187 11.8975 0.351651 13.3921C0.332115 15.1015 0.366303 15.5948 0.537245 16.0001C0.835172 16.6888 1.47987 17.1821 2.25643 17.3139C2.43225 17.3433 2.44202 17.353 2.44202 17.5288V17.7144L1.94385 17.9C0.791215 18.3249 0.390724 18.6619 0.112333 19.4239C0 19.7315 0 19.7609 0 21.7487C0 23.2529 0.0146521 23.7804 0.0586085 23.8244C0.102565 23.8683 0.986577 23.883 3.74606 23.883H7.37491V24.386C7.37491 24.7133 7.39444 24.9086 7.43352 24.9477C7.51654 25.0307 17.4898 25.0307 17.5728 24.9477C17.6119 24.9086 17.6314 24.7133 17.6314 24.386V23.883H21.2651C24.3225 23.883 24.9037 23.8732 24.9526 23.8146C24.9965 23.7658 25.0063 23.1992 24.9965 21.6754L24.9819 19.6094L24.8256 19.292C24.4837 18.5985 24.1028 18.3103 23.038 17.9489L22.3201 17.7047V17.5288V17.353L22.6424 17.2993C23.5362 17.1528 24.2542 16.5032 24.4398 15.6778C24.5472 15.204 24.5521 12.5422 24.4446 11.9855C24.3616 11.5459 24.1076 10.9793 23.8293 10.6082C23.4483 10.11 22.7743 9.65088 22.1443 9.4604C22.0124 9.42133 21.7682 9.32365 21.607 9.24062C20.8402 8.85478 19.9171 8.80594 19.0087 9.10875C18.4519 9.29435 18.0026 9.5825 17.5533 10.0367C17.06 10.53 16.7376 11.1259 16.6302 11.7461C16.5325 12.3029 16.5325 15.1259 16.6302 15.5948C16.8206 16.5032 17.5191 17.1528 18.4763 17.3139C18.6473 17.3433 18.6571 17.353 18.6571 17.5288V17.7144L18.1589 17.9C17.5972 18.11 17.2407 18.2761 17.0404 18.4275L16.9037 18.5252L16.7425 18.3884C16.5081 18.1882 16.1515 18.0319 15.1796 17.7047L14.3103 17.4116V16.85V16.2883L14.6424 16.0392C15.2578 15.5752 15.7559 14.8133 15.9757 13.9928C16.0636 13.6704 16.0832 13.4165 16.1027 12.5715C16.132 11.3701 16.0734 10.95 15.795 10.364C15.4727 9.69484 14.7449 9.0648 14.0416 8.84501C13.8805 8.79129 13.6021 8.68384 13.4262 8.60081C12.9085 8.35661 12.3029 8.25893 11.7461 8.33707ZM12.6887 8.96223C12.8548 9.0013 13.1039 9.08922 13.2406 9.15759C13.3774 9.23085 13.6265 9.32853 13.7925 9.37737C14.3298 9.54343 14.8817 9.97323 15.1796 10.4567C15.414 10.8426 15.4922 11.1698 15.5166 11.9024C15.5313 12.2883 15.5264 12.6008 15.5068 12.6008C15.4287 12.6008 14.9012 12.215 14.6179 11.9464C14.237 11.5947 14.0123 11.2919 13.729 10.7498C13.5142 10.3542 13.4946 10.3298 13.3286 10.3151C13.1674 10.3005 13.1381 10.3249 12.8499 10.6668C12.6106 10.9549 12.4836 11.0673 12.2345 11.1894C11.9268 11.3408 11.8975 11.3456 11.2235 11.3505C10.5495 11.3554 10.5153 11.3603 10.2028 11.5068C10.0221 11.5947 9.78763 11.7461 9.67529 11.8438L9.47505 12.0245V11.6143C9.47505 10.8963 9.68018 10.3346 10.1295 9.83648C10.784 9.09898 11.7999 8.75222 12.6887 8.96223ZM20.6693 9.54343C21.0453 9.61669 21.3384 9.72414 21.5386 9.86578C21.607 9.90974 21.7731 9.97323 21.9049 10.0074C22.5106 10.1588 23.2236 10.701 23.5411 11.2577C23.8586 11.8096 23.8976 11.9952 23.9172 13.0648L23.9416 14.0416L23.0576 13.1625C22.5692 12.679 21.9001 11.9806 21.5728 11.6143C20.8158 10.7644 20.8353 10.7693 20.2981 11.3603C19.7999 11.9024 19.3897 12.2101 18.7303 12.5276C18.237 12.7669 17.5142 12.9916 17.2358 12.9916C17.1332 12.9916 17.1283 12.9818 17.1576 12.5862C17.27 11.0721 18.0758 9.94392 19.292 9.60204C19.795 9.46529 20.1662 9.44575 20.6693 9.54343ZM4.94265 9.66553C5.09406 9.72414 5.26988 9.81205 5.33338 9.8609C5.39687 9.90974 5.55804 9.97323 5.68991 10.0074C6.35903 10.1735 7.05256 10.7303 7.38956 11.3652C7.65818 11.878 7.71679 12.1955 7.71679 13.1869V14.0416L6.86208 13.1869C6.38833 12.7181 5.7241 12.0196 5.38222 11.6387C4.87428 11.0624 4.73752 10.9403 4.63007 10.9403C4.52263 10.9403 4.3761 11.0624 3.92189 11.5117C3.31627 12.1173 2.88159 12.4153 2.24666 12.6692C1.88036 12.8157 1.21613 12.9916 1.03542 12.9916H0.913316L0.947505 12.5618C1.05495 11.0575 1.81198 10.0172 3.06718 9.63623C3.57512 9.48482 4.50797 9.49948 4.94265 9.66553ZM13.4458 11.4629C13.8316 12.088 14.4861 12.7132 15.1015 13.0502L15.4873 13.2602L15.4678 13.5044C15.4092 14.1051 15.0477 14.8329 14.5642 15.3066C13.6363 16.2297 12.3762 16.4544 11.2577 15.9025C10.4519 15.502 9.8267 14.7303 9.60203 13.8463C9.47505 13.3383 9.48481 13.1918 9.68506 12.8304C9.93415 12.3908 10.0562 12.2541 10.3639 12.088C10.613 11.9464 10.6472 11.9415 11.3066 11.9366C11.8536 11.9268 12.0489 11.9073 12.2687 11.8292C12.5666 11.7266 12.8939 11.5166 13.0844 11.3115C13.1527 11.2431 13.2211 11.1845 13.2358 11.1845C13.2553 11.1845 13.3481 11.3115 13.4458 11.4629ZM5.76806 12.9281C6.42252 13.6118 6.44694 13.6558 6.44694 14.1393C6.44694 14.4421 6.31995 14.955 6.17832 15.2626C6.00249 15.6241 5.54339 16.1125 5.21616 16.2785C4.49332 16.6448 3.76071 16.5227 3.1209 15.9318C2.47133 15.331 2.2027 14.3347 2.45179 13.4165C2.50551 13.2162 2.52994 13.1869 2.76437 13.0892C3.17463 12.9232 3.86816 12.4397 4.254 12.0489L4.61542 11.6875L4.88404 11.9855C5.03057 12.1515 5.43106 12.5715 5.76806 12.9281ZM21.9635 12.9183C22.5936 13.5874 22.6082 13.607 22.6424 13.8707C22.7303 14.5691 22.408 15.4482 21.8854 15.9318C21.2505 16.5227 20.5179 16.6448 19.795 16.2834C19.3262 16.0441 18.9013 15.5264 18.701 14.9452C18.574 14.5691 18.5447 13.8414 18.6473 13.4556C18.7108 13.2113 18.7157 13.2113 19.1357 13.0062C19.6339 12.762 20.1271 12.4006 20.5374 11.9855L20.8305 11.6924L21.0747 11.961C21.2065 12.1124 21.607 12.5422 21.9635 12.9183ZM1.78756 13.7828C1.69965 14.4372 1.89989 15.2968 2.27108 15.8585C2.42249 16.0881 2.44202 16.1515 2.44202 16.4348V16.7474L2.28573 16.723C1.97804 16.6693 1.6215 16.4592 1.3773 16.1906C1.011 15.7901 0.962157 15.6192 0.937737 14.5447L0.9182 13.6314L1.03542 13.6021C1.13798 13.5777 1.74849 13.4458 1.81198 13.436C1.82663 13.4311 1.81686 13.5874 1.78756 13.7828ZM18.0026 14.0758C18.0026 14.6424 18.0221 14.7742 18.1345 15.121C18.2077 15.3359 18.3542 15.6485 18.4617 15.8194C18.6375 16.0929 18.6571 16.1515 18.6571 16.4348V16.7474L18.5008 16.723C18.2614 16.679 17.8707 16.4837 17.69 16.3078C17.2407 15.8829 17.1332 15.5117 17.1528 14.4031L17.1674 13.607L17.5826 13.5239C17.8121 13.48 17.9977 13.4409 17.9977 13.436C17.9977 13.436 18.0026 13.7242 18.0026 14.0758ZM7.70214 15.1894C7.67772 15.6045 7.56539 15.8976 7.29676 16.2053C7.10628 16.4299 6.63253 16.6839 6.31507 16.7327L6.10506 16.7669V16.5911C6.10506 16.4544 6.16366 16.342 6.34926 16.0929C6.48601 15.9122 6.63742 15.6876 6.68626 15.5899C6.81813 15.331 6.96465 14.8231 7.00372 14.4959L7.03791 14.2126L7.38468 14.5203L7.72656 14.8231L7.70214 15.1894ZM23.9172 15.1992C23.8781 15.8341 23.5411 16.3323 22.9794 16.5862C22.8476 16.6497 22.6424 16.7132 22.5301 16.7327L22.3201 16.7669V16.5862C22.3201 16.4446 22.3738 16.3371 22.5741 16.0783C22.9404 15.5996 23.1308 15.121 23.2236 14.4421L23.2529 14.2126L23.5948 14.5154L23.9416 14.8231L23.9172 15.1992ZM11.5996 16.6741C12.2296 16.8304 13.0013 16.8158 13.5239 16.6351L13.7242 16.5667V17.0356V17.4995L13.1772 18.5301C12.8792 19.0966 12.6057 19.5997 12.5715 19.6534C12.5178 19.7315 12.4348 19.6241 11.7754 18.6375L11.0379 17.5337V16.9965V16.4544L11.1747 16.5276C11.248 16.5667 11.4433 16.6302 11.5996 16.6741ZM3.66303 16.9525C4.21005 17.1235 4.99638 17.0746 5.43594 16.8451C5.51409 16.8011 5.51897 16.8402 5.51897 17.3677V17.9391L4.97196 18.784C4.66915 19.248 4.41029 19.629 4.39564 19.629C4.38099 19.629 4.06841 19.2138 3.70211 18.7059L3.02811 17.7779V17.2163V16.6546L3.18928 16.7523C3.27231 16.806 3.48721 16.8939 3.66303 16.9525ZM19.8781 16.9525C20.3323 17.0942 20.933 17.0844 21.3872 16.933L21.734 16.8207V17.3774V17.9342L21.187 18.784C20.8842 19.248 20.6253 19.629 20.6107 19.629C20.596 19.629 20.2834 19.2138 19.9171 18.7108L19.2431 17.7877V17.2211V16.6546L19.4043 16.7523C19.4873 16.806 19.7022 16.8939 19.8781 16.9525ZM11.4189 19.1699L12.2101 20.3665V21.0014C12.2101 21.5728 12.2199 21.6461 12.3078 21.734C12.3615 21.7877 12.4494 21.8317 12.5032 21.8317C12.5569 21.8317 12.6448 21.7877 12.6985 21.734C12.7864 21.6461 12.7962 21.5728 12.7962 21.0698V20.5081L13.4653 19.2529C13.8316 18.5643 14.1344 17.9928 14.1393 17.9879C14.1588 17.9538 16.0246 18.6326 16.1955 18.7303C16.6253 18.9794 16.9574 19.4971 17.0453 20.0588C17.0746 20.2151 17.0942 21.27 17.0942 22.4031V24.4691H16.1418H15.1894V23.1357C15.1894 22.1638 15.1747 21.7877 15.1308 21.7438C15.0966 21.7096 14.9989 21.6852 14.9159 21.6852C14.6179 21.6852 14.6033 21.7438 14.6033 23.1846V24.4691H12.5032H10.403V23.1846C10.403 21.7438 10.3884 21.6852 10.0904 21.6852C10.0074 21.6852 9.90973 21.7096 9.87554 21.7438C9.83158 21.7877 9.81693 22.1638 9.81693 23.1357V24.4691H8.85966H7.90727L7.92192 22.1833C7.93657 19.9464 7.94146 19.8976 8.04891 19.6241C8.19054 19.2724 8.44451 18.9452 8.7229 18.7499C8.88896 18.6375 10.4372 17.9977 10.5984 17.9782C10.613 17.9782 10.9793 18.5154 11.4189 19.1699ZM3.38953 19.2871L4.1026 20.259V21.0112C4.1026 21.8659 4.13679 21.9782 4.41518 21.9782C4.67403 21.9782 4.68868 21.9343 4.68868 21.0795V20.303L5.31384 19.3506C5.65572 18.828 5.94877 18.3738 5.9683 18.3445C6.00737 18.2859 6.92558 18.5838 7.33095 18.784C7.67772 18.955 7.68749 18.9892 7.53608 19.3213L7.39933 19.6094L7.38468 21.4752L7.37002 23.3457H3.95119H0.527477L0.547013 21.5973L0.561665 19.8536L0.698418 19.5557C0.932853 19.0527 1.20147 18.8329 1.96339 18.5301C2.31992 18.3884 2.62762 18.2859 2.64715 18.2956C2.66669 18.3054 2.9988 18.7547 3.38953 19.2871ZM19.6485 19.3457L20.3176 20.259V21.0112C20.3176 21.8756 20.3518 21.9782 20.6351 21.9782C20.7523 21.9782 20.8207 21.9489 20.8549 21.8854C20.8793 21.8317 20.9037 21.4654 20.9037 21.0405V20.2883L21.5435 19.3164C21.8952 18.7792 22.1931 18.3298 22.2078 18.3152C22.2371 18.2859 23.2676 18.6424 23.5557 18.7889C24.0246 19.0234 24.3323 19.4532 24.4202 20.0051C24.4495 20.1662 24.4691 20.9819 24.4691 21.817V23.3457H21.0502H17.6363L17.6216 21.4996L17.607 19.6583L17.4507 19.3311L17.2993 19.0087L17.4165 18.8964C17.48 18.8378 17.8268 18.6717 18.1784 18.5301C18.784 18.2908 18.8329 18.2761 18.9061 18.3542C18.9501 18.3982 19.2822 18.8475 19.6485 19.3457Z" fill="#86A1FF"/>
<path d="M12.342 22.2566C12.2247 22.2859 12.0978 22.5448 12.1417 22.6766C12.2003 22.8671 12.3127 22.955 12.5031 22.955C12.7962 22.955 12.9574 22.6864 12.8255 22.4275C12.7327 22.2517 12.5764 22.198 12.342 22.2566Z" fill="#86A1FF"/>
</svg>
