<svg width="20" height="25" viewBox="0 0 20 25" fill="none" xmlns="http://www.w3.org/2000/svg">
<path d="M0.351562 0.0920105C0.263672 0.145721 0.151367 0.258026 0.0976562 0.345917C0 0.50705 0 0.619354 0 11.7131C0 22.8069 0 22.9192 0.0976562 23.0803C0.273438 23.3684 0.444336 23.4319 1.04004 23.4319H1.5625V23.9543C1.5625 24.55 1.62598 24.7209 1.91406 24.8967C2.0752 24.9944 2.17773 24.9944 10.5469 24.9944C18.916 24.9944 19.0186 24.9944 19.1797 24.8967C19.2676 24.843 19.3799 24.7307 19.4336 24.6428C19.5312 24.4817 19.5312 24.3694 19.5312 13.2756C19.5312 2.18185 19.5312 2.06955 19.4336 1.90842C19.2432 1.59592 19.1162 1.55685 18.208 1.55685C17.3145 1.55685 17.2705 1.5715 17.207 1.884C17.1875 1.99631 17.207 2.05978 17.2998 2.17209L17.4219 2.31369L18.0859 2.32834L18.75 2.34787V13.3049V24.2619H10.5469H2.34375V23.8469V23.4319H9.90234C17.3535 23.4319 17.4561 23.4319 17.6172 23.3342C17.9297 23.1438 17.9688 23.0119 17.9688 22.133C17.9688 21.4348 17.959 21.3322 17.876 21.2297C17.7441 21.0637 17.4561 21.0735 17.3047 21.2541C17.1924 21.3762 17.1875 21.425 17.1875 22.0207V22.6506H8.98438H0.78125V11.6887V0.726776H6.95312C10.3467 0.726776 13.1592 0.741425 13.2031 0.756073C13.2715 0.780487 13.2812 0.9758 13.2812 2.40646C13.2812 3.98849 13.2861 4.03244 13.3936 4.2424C13.5986 4.65256 13.6035 4.65744 15.5127 4.67209L17.1875 4.68674L17.1973 12.4016L17.2119 20.1213L17.3291 20.2141C17.4805 20.3362 17.7441 20.3362 17.8711 20.2092C17.9688 20.1115 17.9688 20.0481 17.9688 12.2746V4.4426L17.8662 4.15939C17.7686 3.89572 17.6367 3.74924 15.9473 2.05978C14.7559 0.868378 14.0625 0.209198 13.916 0.131073L13.6963 0.0187683L7.10449 0.00411987C0.59082 -0.00564575 0.512695 -0.00564575 0.351562 0.0920105ZM15.3809 2.60666L16.6748 3.9006H15.3662H14.0625V2.60666C14.0625 1.89377 14.0674 1.31271 14.0771 1.31271C14.082 1.31271 14.668 1.89377 15.3809 2.60666Z" fill="#86A1FF"/>
<path d="M5.07814 3.97873C3.95997 4.27658 3.1006 5.14573 2.80763 6.26877C2.71486 6.63987 2.71486 7.34787 2.81251 7.75803C3.05665 8.79807 3.93556 9.71604 4.98048 10.0237C6.1963 10.3801 7.59767 9.91135 8.34962 8.89084C9.07228 7.91428 9.17482 6.73264 8.63771 5.60959C8.48146 5.27756 8.36427 5.12619 8.042 4.80393C7.38282 4.1594 6.74318 3.89573 5.83497 3.90549C5.56642 3.90549 5.22462 3.93967 5.07814 3.97873ZM6.55763 4.7844C7.72462 5.17502 8.42286 6.40061 8.1299 7.5383C8.042 7.88498 7.86134 8.25608 7.67091 8.49045L7.52931 8.65647L7.34376 8.49533C6.89943 8.10471 6.10841 7.88987 5.49318 7.9924C5.11232 8.05588 4.59962 8.28049 4.35548 8.49533L4.1797 8.65158L4.0381 8.48557C3.7256 8.11447 3.51564 7.53342 3.51564 7.02561C3.51564 5.99533 4.1797 5.09201 5.16603 4.77463C5.56154 4.64768 6.167 4.65256 6.55763 4.7844ZM6.5381 8.91526C6.68458 8.99338 6.80177 9.07151 6.80177 9.1008C6.80665 9.20822 6.32325 9.33518 5.8838 9.34006C5.41993 9.34494 4.86329 9.21311 4.89747 9.10569C4.90724 9.07639 4.99025 9.00803 5.07814 8.9592C5.51759 8.70041 6.084 8.68576 6.5381 8.91526Z" fill="#86A1FF"/>
<path d="M5.33199 5.56564C4.46285 5.99533 4.4775 7.25998 5.35641 7.68966C5.6152 7.81662 6.11325 7.80685 6.37204 7.67502C7.04098 7.32345 7.22653 6.47873 6.76266 5.87814C6.47457 5.49728 5.78121 5.34591 5.33199 5.56564ZM6.10348 6.34201C6.31832 6.55685 6.25485 6.87424 5.97653 6.97677C5.80563 7.04513 5.7861 7.04025 5.62008 6.89865C5.42965 6.73752 5.41988 6.53732 5.59078 6.36642C5.73727 6.21506 5.96676 6.20529 6.10348 6.34201Z" fill="#86A1FF"/>
<path d="M10.2588 5.98068C10.0683 6.21994 10.1709 6.54221 10.459 6.61057C10.5224 6.62521 11.5771 6.6301 12.8076 6.62521L15.0488 6.61057L15.1416 6.49338C15.2685 6.33713 15.2636 6.09299 15.122 5.96115C15.0097 5.85373 15.0048 5.85373 12.6855 5.85373H10.3564L10.2588 5.98068Z" fill="#86A1FF"/>
<path d="M10.2784 7.92893C10.1319 8.07053 10.1221 8.29025 10.2491 8.4465L10.3418 8.56369L12.2754 8.57834L14.209 8.59299L14.3311 8.47092C14.4922 8.30979 14.4971 8.06076 14.3408 7.91428C14.2285 7.80686 14.209 7.80686 12.3096 7.80686H10.3955L10.2784 7.92893Z" fill="#86A1FF"/>
<path d="M2.86133 11.425C2.76367 11.5031 2.73438 11.5666 2.73438 11.7131C2.73438 11.8596 2.76367 11.9231 2.86133 12.0012C2.99316 12.1037 2.99805 12.1037 8.98438 12.1037C14.9707 12.1037 14.9756 12.1037 15.1074 12.0012C15.2881 11.8596 15.2881 11.5666 15.1074 11.425C14.9756 11.3225 14.9707 11.3225 8.98438 11.3225C2.99805 11.3225 2.99316 11.3225 2.86133 11.425Z" fill="#86A1FF"/>
<path d="M2.86133 13.3781C2.76367 13.4563 2.73438 13.5197 2.73438 13.6662C2.73438 13.8127 2.76367 13.8762 2.86133 13.9543C2.99316 14.0569 3.00293 14.0569 8.21289 14.0569H13.4326L13.5498 13.9348C13.6279 13.8615 13.6719 13.759 13.6719 13.6662C13.6719 13.5735 13.6279 13.4709 13.5498 13.3977L13.4326 13.2756H8.21289C3.00293 13.2756 2.99316 13.2756 2.86133 13.3781Z" fill="#86A1FF"/>
<path d="M2.86131 15.3313C2.69042 15.4631 2.68553 15.7512 2.84667 15.9026L2.95897 16.01H6.83104H10.6982L10.8154 15.8879C10.8935 15.8147 10.9375 15.7121 10.9375 15.6194C10.9375 15.5266 10.8935 15.424 10.8154 15.3508L10.6982 15.2287H6.84568C3.02245 15.2287 2.98827 15.2287 2.86131 15.3313Z" fill="#86A1FF"/>
<path d="M2.85639 17.299C2.69525 17.4602 2.69037 17.7092 2.84662 17.8557L2.95893 17.9631H8.20795H13.4618L13.5644 17.8508C13.6962 17.7092 13.7011 17.4748 13.579 17.3235L13.4863 17.2063L8.23236 17.1916L2.97357 17.1819L2.85639 17.299Z" fill="#86A1FF"/>
</svg>
