<svg width="25" height="26" viewBox="0 0 25 26" fill="none" xmlns="http://www.w3.org/2000/svg">
<path d="M6.6911 0.117309C6.37341 0.263936 6.10459 0.532753 5.95797 0.850447C5.85044 1.08505 5.84066 1.15348 5.84066 2.0088V2.9179L5.12219 2.94722C4.22776 2.98143 3.70479 3.1134 2.93255 3.49463C1.57869 4.16912 0.542522 5.435 0.136852 6.91594C0.00977517 7.3656 0 7.47312 0 8.3089C0 9.14468 0.00977517 9.25221 0.136852 9.70186C0.542522 11.1828 1.57869 12.4487 2.93255 13.1232C3.70479 13.5044 4.22776 13.6364 5.12219 13.6706L5.84066 13.6999V18.8123V23.9247L5.95797 24.174C6.10459 24.4917 6.37341 24.7605 6.6911 24.9071L6.94037 25.0244H15.4203H23.9003L24.1496 24.9071C24.4673 24.7605 24.7361 24.4917 24.8827 24.174L25 23.9247V14.5161V5.10753L22.4438 2.55621L19.8925 6.67572e-06H13.4164H6.94037L6.6911 0.117309ZM19.1349 3.29424V5.60607L19.262 5.73803L19.3939 5.86511H21.7058H24.0225L24.0127 14.7703C23.998 24.4477 24.0176 23.8074 23.7341 23.959C23.5582 24.0518 7.2825 24.0518 7.10655 23.959C6.82796 23.8123 6.84262 24.1056 6.82796 18.5924L6.81818 13.5044L7.02346 13.4458C7.14076 13.4115 7.41447 13.2991 7.6393 13.1916C9.07625 12.5269 10.132 11.261 10.567 9.69698C10.694 9.24732 10.7038 9.14468 10.7038 8.3089C10.7038 7.47312 10.694 7.37049 10.567 6.92083C10.132 5.3568 9.07625 4.09092 7.6393 3.4262C7.41447 3.31868 7.14076 3.20626 7.02835 3.17205L6.81818 3.1134V2.34605C6.81818 1.92083 6.83284 1.51027 6.84751 1.42229C6.88172 1.24634 7.07234 1.04106 7.22385 1.01174C7.2825 1.00196 9.98534 0.987299 13.2356 0.982411L19.1349 0.977524V3.29424ZM21.7009 3.32356L23.2649 4.88759H21.6862H20.1124V3.32356C20.1124 2.46335 20.1173 1.75954 20.1271 1.75954C20.132 1.75954 20.8407 2.46335 21.7009 3.32356ZM4.86315 6.25123V8.53862L4.99022 8.67058L5.12219 8.79766H7.40958H9.70186L9.67253 8.95406C9.34506 10.8162 8.04497 12.1799 6.21212 12.5855C5.69404 12.7028 4.70674 12.6637 4.17889 12.5122C2.74194 12.1017 1.55425 10.9189 1.14858 9.48192C0.997067 8.95895 0.962854 8.02053 1.07038 7.47312C1.36364 6.0264 2.35582 4.81917 3.70479 4.27664C4.02248 4.14468 4.58456 3.98828 4.82893 3.96384C4.84848 3.95895 4.86315 4.99023 4.86315 6.25123ZM6.40762 4.08114C8.1085 4.51125 9.35973 5.88955 9.67253 7.65885L9.70186 7.82014H7.77126H5.84066V5.88955C5.84066 4.82405 5.86022 3.95895 5.88465 3.95895C5.90909 3.95895 6.1437 4.01271 6.40762 4.08114Z" fill="#86A1FF"/>
<path d="M12.1261 3.05964C12.0235 3.16228 11.999 3.23559 11.999 3.42132C11.999 3.60705 12.0235 3.68036 12.1261 3.783L12.2581 3.91008H15.0782H17.8983L18.0303 3.783C18.1329 3.68036 18.1574 3.60705 18.1574 3.42132C18.1574 3.23559 18.1329 3.16228 18.0303 3.05964L17.8983 2.93256H15.0782H12.2581L12.1261 3.05964Z" fill="#86A1FF"/>
<path d="M12.1261 5.01467C12.0235 5.11731 11.999 5.19063 11.999 5.37635C11.999 5.56208 12.0235 5.6354 12.1261 5.73804L12.2581 5.86511H15.0782H17.8983L18.0303 5.73804C18.1329 5.6354 18.1574 5.56208 18.1574 5.37635C18.1574 5.19063 18.1329 5.11731 18.0303 5.01467L17.8983 4.8876H15.0782H12.2581L12.1261 5.01467Z" fill="#86A1FF"/>
<path d="M11.8329 7.94723C11.7302 8.04987 11.7058 8.12318 11.7058 8.30891C11.7058 8.49464 11.7302 8.56795 11.8329 8.67059C11.9355 8.77323 12.0088 8.79767 12.1946 8.79767C12.3803 8.79767 12.4536 8.77323 12.5563 8.67059C12.6589 8.56795 12.6833 8.49464 12.6833 8.30891C12.6833 8.12318 12.6589 8.04987 12.5563 7.94723C12.4536 7.84459 12.3803 7.82015 12.1946 7.82015C12.0088 7.82015 11.9355 7.84459 11.8329 7.94723Z" fill="#86A1FF"/>
<path d="M13.7878 7.94723C13.6852 8.04987 13.6608 8.12318 13.6608 8.30891C13.6608 8.49464 13.6852 8.56795 13.7878 8.67059L13.9198 8.79767H17.8641H21.8084L21.9403 8.67059C22.043 8.56795 22.0674 8.49464 22.0674 8.30891C22.0674 8.12318 22.043 8.04987 21.9403 7.94723L21.8084 7.82015H17.8641H13.9198L13.7878 7.94723Z" fill="#86A1FF"/>
<path d="M11.8329 9.90226C11.7302 10.0049 11.7058 10.0782 11.7058 10.2639C11.7058 10.4497 11.7302 10.523 11.8329 10.6256C11.9355 10.7283 12.0088 10.7527 12.1946 10.7527C12.3803 10.7527 12.4536 10.7283 12.5563 10.6256C12.6589 10.523 12.6833 10.4497 12.6833 10.2639C12.6833 10.0782 12.6589 10.0049 12.5563 9.90226C12.4536 9.79962 12.3803 9.77518 12.1946 9.77518C12.0088 9.77518 11.9355 9.79962 11.8329 9.90226Z" fill="#86A1FF"/>
<path d="M13.7878 9.90226C13.6852 10.0049 13.6608 10.0782 13.6608 10.2639C13.6608 10.4497 13.6852 10.523 13.7878 10.6256L13.9198 10.7527H17.8641H21.8084L21.9403 10.6256C22.043 10.523 22.0674 10.4497 22.0674 10.2639C22.0674 10.0782 22.043 10.0049 21.9403 9.90226L21.8084 9.77518H17.8641H13.9198L13.7878 9.90226Z" fill="#86A1FF"/>
<path d="M20.8162 13.1183C20.4985 13.2649 20.2297 13.5337 20.083 13.8514C19.9266 14.1838 19.9218 14.7116 20.0684 15.0538L20.171 15.2933L18.4946 17.0919L16.8132 18.8905L16.4565 18.8759C16.261 18.8661 16.0361 18.8808 15.9579 18.9052C15.8211 18.9541 15.8113 18.9443 15.0684 18.0205C14.3206 17.0919 14.3157 17.0821 14.3743 16.9355C14.4868 16.6813 14.4574 16.0899 14.3255 15.8065C14.0713 15.2591 13.5874 14.956 12.9765 14.956C12.3558 14.956 11.8768 15.2639 11.6226 15.8211C11.5151 16.0557 11.5053 16.129 11.5249 16.4858C11.5395 16.7058 11.5591 16.9355 11.5689 16.9941C11.5884 17.1408 9.91198 18.9834 9.79956 18.9296C9.76046 18.915 9.54541 18.8905 9.32547 18.8759C8.97845 18.8612 8.89047 18.871 8.66076 18.9785C8.10357 19.2327 7.79565 19.7116 7.79565 20.3324C7.79565 21.1926 8.40171 21.7986 9.26193 21.7986C9.88265 21.7986 10.3616 21.4907 10.6158 20.9335C10.7233 20.6989 10.7331 20.6256 10.7135 20.2688C10.6989 20.0489 10.6793 19.8192 10.6696 19.7605C10.65 19.6139 12.3264 17.7713 12.4389 17.8202C12.5708 17.8837 13.2649 17.8984 13.4115 17.8495C13.5532 17.8006 13.5581 17.8006 14.3059 18.7341C15.0537 19.6628 15.0586 19.6725 15 19.8192C14.8875 20.0733 14.9169 20.6647 15.0488 20.9482C15.303 21.4956 15.7869 21.7986 16.3978 21.7986C17.0088 21.7986 17.4926 21.4956 17.7468 20.9482C17.9032 20.6158 17.9081 20.088 17.7614 19.7459L17.6588 19.5064L19.3352 17.7077L21.0166 15.9091L21.3929 15.9238C21.7155 15.9384 21.8132 15.9238 22.0332 15.8211C22.5904 15.567 22.8983 15.0831 22.8983 14.4673C22.8983 13.6071 22.2922 13.001 21.432 13.001C21.1485 13.001 21.0068 13.0303 20.8162 13.1183ZM21.7448 14.1545C22.0234 14.4379 21.8279 14.9071 21.432 14.9071C21.3001 14.9071 21.2121 14.8729 21.1192 14.7801C20.8406 14.4966 21.0361 14.0274 21.432 14.0274C21.564 14.0274 21.652 14.0616 21.7448 14.1545ZM13.2893 16.1095C13.5679 16.393 13.3724 16.8622 12.9765 16.8622C12.8445 16.8622 12.7566 16.828 12.6637 16.7351C12.3851 16.4516 12.5806 15.9824 12.9765 15.9824C13.1085 15.9824 13.1964 16.0166 13.2893 16.1095ZM9.57474 20.0196C9.85333 20.303 9.65782 20.7723 9.26193 20.7723C9.01266 20.7723 8.82205 20.5816 8.82205 20.3324C8.82205 19.9365 9.29126 19.741 9.57474 20.0196ZM16.7106 20.0196C16.9892 20.303 16.7937 20.7723 16.3978 20.7723C16.1485 20.7723 15.9579 20.5816 15.9579 20.3324C15.9579 19.9365 16.4271 19.741 16.7106 20.0196Z" fill="#86A1FF"/>
<path d="M2.05276 7.95211C1.92079 8.08896 1.92079 8.09385 1.94523 8.57772C1.98922 9.43793 2.28736 10.088 2.92764 10.7331C3.5728 11.3734 4.22285 11.6716 5.08306 11.7155C5.56693 11.74 5.57182 11.74 5.70867 11.608C5.8162 11.5005 5.84064 11.4272 5.84064 11.2415C5.84064 10.914 5.68912 10.7674 5.31278 10.7331C4.58453 10.6598 4.12021 10.4497 3.66566 9.99512C3.21112 9.54057 3.00095 9.07625 2.92764 8.348C2.89342 7.97166 2.7468 7.82014 2.41933 7.82014C2.2336 7.82014 2.16029 7.84458 2.05276 7.95211Z" fill="#86A1FF"/>
</svg>
