<svg width="25" height="23" viewBox="0 0 25 23" fill="none" xmlns="http://www.w3.org/2000/svg">
<path d="M9.25157 0.0783947C9.05618 0.200517 3.37503 5.61788 3.23337 5.81816C3.08682 6.01844 3.07705 6.44343 3.21383 6.66325C3.36037 6.90261 9.10503 12.3639 9.31019 12.4616C9.68145 12.6375 10.1895 12.4568 10.3556 12.0855C10.4386 11.8999 10.4484 11.7338 10.4484 10.112V8.34366H14.1267C16.1442 8.34366 18.0542 8.36809 18.3619 8.39251C19.7053 8.50486 20.8728 9.04709 21.8058 9.98011C22.7535 10.9278 23.281 12.0806 23.3934 13.4679C23.4471 14.142 23.5106 14.3032 23.7842 14.484C23.9014 14.567 24.0138 14.5963 24.2189 14.5963C24.5413 14.5963 24.7612 14.484 24.9126 14.2446C25.0054 14.0883 25.0103 14.0297 24.9908 12.5691C24.9712 11.2502 24.9566 10.9962 24.8637 10.6005C24.1212 7.31294 21.6739 4.92422 18.3961 4.27942C17.8686 4.17683 17.7269 4.17195 14.1511 4.15241L10.4484 4.13775V2.39384C10.4484 0.679239 10.4484 0.640159 10.3409 0.430108C10.1846 0.132129 10.0185 0.0246607 9.68145 0.00512109C9.46651 -0.00953364 9.36393 0.00512109 9.25157 0.0783947Z" fill="#36E1E8"/>
<path d="M0.346347 8.44135C0.258419 8.49509 0.146066 8.60744 0.0874469 8.69537C-0.00536633 8.85169 -0.0102512 8.9103 0.0092884 10.3709C0.0337129 12.0464 0.0630224 12.2809 0.404966 13.3018C1.29402 15.9592 3.62901 18.0402 6.35479 18.602C7.21941 18.7778 7.68837 18.7974 11.1567 18.7974H14.5517V20.5462C14.5517 22.2608 14.5517 22.2998 14.6591 22.5099C14.7226 22.6271 14.8301 22.7688 14.9034 22.8225C15.0841 22.9495 15.514 22.9837 15.7094 22.886C15.8804 22.7932 21.6055 17.3514 21.7716 17.1218C21.9132 16.9216 21.923 16.4966 21.7862 16.2767C21.6397 16.0374 15.895 10.5761 15.6898 10.4784C15.3137 10.3025 14.8154 10.4784 14.6445 10.8545C14.5614 11.0401 14.5517 11.2062 14.5517 12.8231V14.5963H10.8782C8.85586 14.5963 6.94586 14.5719 6.63811 14.5475C5.29476 14.4351 4.12727 13.8929 3.19425 12.9599C2.24658 12.0122 1.71901 10.8594 1.60665 9.47207C1.55292 8.79795 1.48942 8.63675 1.21586 8.45601C1.00092 8.30946 0.575938 8.29969 0.346347 8.44135Z" fill="#36E1E8"/>
</svg>
