<svg width="25" height="25" viewBox="0 0 25 25" fill="none" xmlns="http://www.w3.org/2000/svg">
<path d="M2.92339 0.100808C2.82258 0.201615 2.82258 0.267139 2.82258 8.97178V17.7419H1.41129H0V18.1452V18.5484H2.41935H4.83871V20.9677V23.3871H2.41935H0V23.7903V24.1936H3.1502H6.3004L7.10685 24.5968L7.91331 25H10.5696C13.5383 25 13.4476 25.0101 13.7954 24.6421C14.123 24.2944 14.1129 24.4103 14.1129 21.0181C14.1129 18.0091 14.1129 17.9436 14.0121 17.8427C13.9163 17.747 13.8458 17.7419 11.996 17.7419H10.0806V16.3558C10.0806 14.7329 10.0504 14.5917 9.62702 14.1633C9.28427 13.8256 8.96169 13.7097 8.34173 13.7097C7.62601 13.7097 7.66129 13.6391 7.66129 15.1109V16.3054L6.94052 17.0262L6.2248 17.7419H4.9244H3.62903V9.2742V0.806454H10.8871H18.1452V2.31855C18.1452 3.76512 18.1502 3.83569 18.246 3.93145C18.3417 4.02722 18.4123 4.03226 19.8589 4.03226H21.371V8.26613V12.5H21.7742H22.1774V7.95363V3.40222L20.4738 1.70363L18.7752 1.88091e-06H10.8972C3.08972 1.88091e-06 3.02419 1.88091e-06 2.92339 0.100808ZM19.8589 2.34375L20.7409 3.22581H19.8437H18.9516V2.34375C18.9516 1.85988 18.9567 1.4617 18.9667 1.4617C18.9718 1.4617 19.375 1.85988 19.8589 2.34375ZM8.87097 14.6825C8.96673 14.7429 9.0877 14.874 9.14314 14.9698C9.24395 15.1361 9.24899 15.247 9.27419 16.7742C9.29939 18.3165 9.30444 18.4073 9.39516 18.4778C9.47581 18.5333 9.83367 18.5484 11.4012 18.5484H13.3065V18.9516V19.3548H11.6935H10.0806V19.7581V20.1613H11.6935H13.3065V20.5645V20.9677H11.6935H10.0806V21.371V21.7742H11.6935H13.3065V22.1774V22.5806H11.6935H10.0806V22.9839V23.3871H11.6935H13.3065V23.5585C13.3065 23.6492 13.2812 23.8004 13.251 23.8911C13.1452 24.1885 13.1099 24.1936 10.5343 24.1936H8.21573L7.40927 23.7903L6.60282 23.3871H6.12399H5.64516V20.9677V18.5484H6.15927H6.67339L7.57056 17.6512L8.46774 16.754V15.6603V14.5665H8.58871C8.64919 14.5665 8.78024 14.6169 8.87097 14.6825Z" fill="#36E1E8"/>
<path d="M4.43542 2.01613V2.41936H10.887H17.3387V2.01613V1.61291H10.887H4.43542V2.01613Z" fill="#36E1E8"/>
<path d="M4.43542 3.62903V4.03226H10.887H17.3387V3.62903V3.22581H10.887H4.43542V3.62903Z" fill="#36E1E8"/>
<path d="M4.43542 5.24195V5.64517H10.887H17.3387V5.24195V4.83872H10.887H4.43542V5.24195Z" fill="#36E1E8"/>
<path d="M13.0292 6.55747C11.4667 6.94053 10.1562 8.2611 9.77821 9.82864C9.63708 10.4184 9.63708 11.3559 9.77821 11.9456C10.1764 13.5988 11.5373 14.9143 13.2157 15.252C13.7197 15.3528 14.8337 15.3226 15.2974 15.1966C15.7913 15.0655 16.5726 14.6472 16.9808 14.3044C17.6814 13.7147 18.2359 12.8175 18.4476 11.9456C18.5887 11.3559 18.5887 10.4184 18.4476 9.82864C18.0695 8.24598 16.754 6.93045 15.1714 6.55243C14.5917 6.41634 13.6038 6.41634 13.0292 6.55747ZM14.632 7.32864C15.3226 7.40928 16.1593 7.84275 16.6935 8.40727C17.0968 8.83569 17.3387 9.22884 17.5252 9.75303C17.6562 10.126 17.6663 10.2117 17.6663 10.8871C17.6663 11.5776 17.6562 11.6432 17.5101 12.0514C17.3185 12.5958 16.9808 13.1048 16.5574 13.498C14.6371 15.2974 11.5877 14.5161 10.6955 12.001C10.5695 11.6532 10.5595 11.5524 10.5595 10.8871C10.5595 10.2117 10.5695 10.126 10.7006 9.75303C11.1693 8.43247 12.3841 7.44456 13.7097 7.31352C14.0826 7.27823 14.1532 7.27823 14.632 7.32864Z" fill="#36E1E8"/>
<path d="M15.2772 8.83065C15.1109 9.26412 13.997 12.0313 13.9768 12.0665C13.9617 12.0867 13.6895 11.8498 13.377 11.5373L12.8024 10.9627L12.4849 11.2802L12.1724 11.5927L13.0343 12.4496C13.8407 13.2561 13.9012 13.3065 14.0826 13.3065C14.1835 13.3065 14.3145 13.2863 14.3649 13.2561C14.4203 13.2258 14.748 12.4748 15.2923 11.1089C15.756 9.95464 16.129 9.00706 16.1189 8.99698C16.0736 8.96674 15.4133 8.71976 15.373 8.71976C15.3427 8.71976 15.3024 8.77017 15.2772 8.83065Z" fill="#36E1E8"/>
<path d="M19.4708 12.999C18.9416 13.1956 18.5636 13.5383 18.3065 14.0625C18.1906 14.2994 18.1704 14.4153 18.1503 14.8841C18.1351 15.4133 18.1351 15.4335 18.3216 15.8619C18.7148 16.7742 18.871 17.495 18.9265 18.6341L18.9617 19.3548H18.4023C17.7672 19.3548 17.5706 19.4103 17.2934 19.6724C17.0363 19.9143 16.9355 20.1764 16.9355 20.5998V20.9677H16.5827C16.1694 20.9677 15.9275 21.0534 15.6805 21.2853C15.3831 21.5726 15.3226 21.7641 15.3226 22.5202C15.3226 23.3367 15.3529 23.3871 15.8267 23.3871H16.1291V24.0927C16.1291 24.7329 16.1392 24.8085 16.2299 24.8992C16.3307 25 16.3962 25 20.1613 25C23.9265 25 23.992 25 24.0928 24.8992C24.1835 24.8085 24.1936 24.7329 24.1936 24.0927V23.3871H24.496C24.9698 23.3871 25.0001 23.3367 25.0001 22.5151C25.0001 21.7641 24.9396 21.5726 24.6422 21.2853C24.3952 21.0534 24.1533 20.9677 23.74 20.9677H23.3871V20.6149C23.3871 20.2016 23.3015 19.9597 23.0696 19.7127C22.7924 19.4254 22.5807 19.3548 21.9305 19.3548H21.3609L21.3962 18.6341C21.4517 17.4899 21.613 16.744 22.0011 15.872C22.1825 15.4536 22.1876 15.4385 22.1674 14.8942C22.1523 14.4052 22.1371 14.3044 22.0061 14.0373C21.8146 13.6492 21.4315 13.2661 21.0434 13.0796C20.7813 12.9486 20.6755 12.9284 20.2369 12.9133C19.8388 12.9032 19.6775 12.9234 19.4708 12.999ZM20.6402 13.8558C21.0384 14.0423 21.2753 14.3952 21.3458 14.8992C21.371 15.1109 21.3609 15.1966 21.2702 15.3679C21.0888 15.7258 20.8619 16.381 20.7309 16.9355C20.6301 17.369 20.5998 17.6361 20.5797 18.4073L20.5545 19.3548H20.1613H19.7732L19.743 18.4073C19.7228 17.7218 19.6876 17.3438 19.6119 17.0212C19.491 16.4869 19.2339 15.7409 19.0676 15.4032C18.9617 15.1966 18.9517 15.1159 18.9769 14.8992C19.0424 14.4153 19.2843 14.0524 19.6825 13.8458C19.8942 13.7349 20.3882 13.7399 20.6402 13.8558ZM22.2984 20.2319C22.4799 20.3075 22.5807 20.504 22.5807 20.7964V20.9677H20.1613H17.742V20.7964C17.742 20.5141 17.8428 20.3075 18.0142 20.2319C18.246 20.131 22.0565 20.131 22.2984 20.2319ZM23.9113 21.8448C24.0928 21.9204 24.1936 22.1169 24.1936 22.4093V22.5806H20.1613H16.1291V22.4093C16.1291 22.127 16.2299 21.9204 16.4013 21.8448C16.6382 21.744 23.6644 21.744 23.9113 21.8448ZM23.3871 23.7903V24.1935H20.1613H16.9355V23.7903V23.3871H20.1613H23.3871V23.7903Z" fill="#36E1E8"/>
</svg>
