<svg width="25" height="25" viewBox="0 0 25 25" fill="none" xmlns="http://www.w3.org/2000/svg">
<path d="M10.8151 0.211893C10.4684 0.333967 9.81898 0.558581 9.37463 0.709952C8.93517 0.866206 8.53477 1.02734 8.48594 1.07617C8.36387 1.19824 8.37363 1.48145 8.49571 1.60353C8.5543 1.66212 8.65684 1.70119 8.75939 1.70119C8.84728 1.70119 9.53577 1.49122 10.2829 1.23243C11.3034 0.880854 11.7087 0.763664 11.8893 0.763664C12.0847 0.763664 13.2175 1.13965 17.3094 2.5557C20.1561 3.54205 22.4999 4.36238 22.5195 4.38191C22.539 4.39656 21.7968 4.67489 20.869 4.99716C19.9364 5.31944 19.16 5.588 19.1405 5.59776C19.121 5.60753 19.0868 5.5294 19.0672 5.42686C18.9696 4.90439 18.6913 4.67977 17.993 4.56258C15.9519 4.21589 14.2136 4.07429 11.8893 4.07429C9.72132 4.07429 8.55919 4.15242 6.56695 4.44051C5.52689 4.59188 5.23391 4.66024 5.04348 4.80673C4.85304 4.94833 4.69191 5.26084 4.68702 5.48057C4.68702 5.56846 4.66749 5.61241 4.62355 5.59776C4.59425 5.58311 3.81298 5.30967 2.89011 4.99228C1.97212 4.67489 1.22015 4.40144 1.22015 4.3868C1.22015 4.37215 2.58737 3.89362 4.26221 3.31744C6.0396 2.70707 7.34334 2.23343 7.4117 2.17483C7.62655 1.97463 7.47029 1.50587 7.1822 1.50587C7.12849 1.50587 5.67338 1.99416 3.9497 2.58988C1.8061 3.33208 0.766034 3.71295 0.668376 3.79596C0.390049 4.03034 0.311922 4.43563 0.482824 4.77255C0.536537 4.87509 0.629312 4.99228 0.69279 5.03134C0.785566 5.08994 4.58937 6.43763 4.66749 6.43763C4.67726 6.43763 4.68702 7.24331 4.68702 8.22966V10.0266L4.27686 10.1047C3.51024 10.2561 2.66061 10.7639 2.1479 11.384C1.85493 11.7405 1.49847 12.4339 1.38128 12.8831C1.26409 13.3226 1.26409 14.348 1.38128 14.7874C1.5766 15.5199 2.13814 16.3988 2.65573 16.7845C2.7778 16.8773 2.86569 16.9701 2.84616 16.9847C2.82175 17.0043 2.70944 17.0433 2.58737 17.0775C2.05024 17.2338 1.46918 17.6146 0.985766 18.1322C0.560951 18.5863 0.189849 19.2944 0.0726585 19.8559C-0.0347659 20.3735 -0.0201171 21.1792 0.0970731 21.6528C0.433995 22.9907 1.51312 24.0699 2.85104 24.4068C3.23191 24.5045 3.39793 24.5045 13.0808 24.5045C22.4999 24.5045 22.9345 24.4996 23.1201 24.4117C23.3642 24.3043 23.6523 23.9917 23.7304 23.7476C23.7695 23.6353 23.7793 23.44 23.7646 23.2495C23.7256 22.7466 23.4179 22.3755 22.9248 22.2485C22.788 22.2144 22.666 22.1655 22.6464 22.1362C22.6269 22.1118 22.5634 21.8872 22.5048 21.6479C22.3632 21.0522 22.3632 20.3393 22.5048 19.7485C22.622 19.2553 22.666 19.1821 22.8369 19.1821C22.9003 19.1821 23.0371 19.1381 23.1347 19.0893C23.8574 18.7231 24.0088 17.7953 23.4375 17.2289C23.208 16.9994 22.9541 16.8871 22.6464 16.8871H22.4804V16.5306C22.4804 16.2621 22.456 16.1302 22.3779 15.9789C22.2167 15.6761 21.9091 15.4369 21.6015 15.3685L21.3378 15.3099L21.2401 14.9925C21.0399 14.3431 21.0204 13.5081 21.1962 12.8196C21.2548 12.5755 21.289 12.5462 21.3866 12.6634C21.538 12.844 21.9238 12.8929 23.1103 12.8733C24.1601 12.8587 24.2578 12.8489 24.4385 12.7513C24.8242 12.5462 25 12.2483 25 11.8137C25 11.5598 24.9463 11.384 24.5801 10.4856L24.1601 9.45039L24.3017 9.17695C24.4238 8.9328 24.4385 8.85467 24.4385 8.43963C24.4385 8.04411 24.4189 7.94157 24.3164 7.74137C24.1748 7.45816 23.8965 7.19448 23.6035 7.06264L23.3886 6.96986V5.64171C23.3886 4.90927 23.3642 4.23543 23.3398 4.13777C23.2373 3.76178 23.3984 3.83014 17.7147 1.85744L12.4265 0.0214593L11.9382 0.00681054C11.4645 -0.0127212 11.4303 -0.00295531 10.8151 0.211893ZM13.6716 4.87509C14.8289 4.93857 15.8738 5.04111 16.9188 5.19248C18.0418 5.35362 18.2176 5.39268 18.2664 5.46592C18.2909 5.50499 18.3104 6.09094 18.3104 6.76478V8.00016H17.1629C16.2449 8.00016 15.9812 8.01481 15.8738 8.07341C15.6492 8.1906 15.6052 8.43474 15.7762 8.65447L15.8738 8.78143H17.0945H18.3104V9.3918V10.0022H11.8893H5.46829V9.3918V8.78143H10.0045H14.5457L14.6433 8.65447C14.8142 8.43474 14.7703 8.1906 14.5457 8.07341C14.4285 8.00993 13.7644 8.00016 9.93617 8.00016H5.46829V6.7306V5.46104L5.5806 5.41221C5.71244 5.35362 7.06013 5.14853 7.95859 5.05087C9.78968 4.84579 11.9284 4.78231 13.6716 4.87509ZM22.6074 6.09582V6.96986L22.3779 7.07241C21.8359 7.31167 21.5136 7.81949 21.5087 8.43963C21.5087 8.75702 21.5282 8.84979 21.6698 9.12812L21.8261 9.45039L21.704 9.72872L21.582 10.0022H20.3368H19.0917V8.22478V6.44739L20.0585 6.11535C20.7714 5.86632 22.4462 5.28037 22.5976 5.22178C22.6025 5.21689 22.6074 5.61241 22.6074 6.09582ZM23.291 7.79996C23.5351 7.92692 23.6816 8.1613 23.6816 8.42498C23.6816 9.11347 22.915 9.41621 22.4658 8.9035C22.207 8.60565 22.2216 8.20525 22.4999 7.93668C22.749 7.69742 23.0175 7.64859 23.291 7.79996ZM23.8525 10.7932C24.0527 11.2961 24.2187 11.76 24.2187 11.8284C24.2187 12.0725 24.0967 12.1018 22.9931 12.1018C22.0458 12.1018 21.9775 12.0969 21.8554 11.9993C21.787 11.9456 21.7284 11.8723 21.7284 11.843C21.7284 11.8088 21.8993 11.3645 22.1044 10.8469L22.4853 9.90939L22.8271 9.9338C23.0175 9.94845 23.2373 9.93868 23.3154 9.91427C23.3984 9.88985 23.4668 9.87521 23.4716 9.87521C23.4765 9.88009 23.6474 10.2951 23.8525 10.7932ZM21.123 11.1741L20.9716 11.5598L12.8903 11.5647C5.78568 11.5647 4.77003 11.5745 4.51612 11.6379C3.85204 11.8137 3.33934 12.2434 3.0366 12.8684C2.86081 13.2444 2.85593 13.2591 2.85593 13.8353C2.85593 14.4114 2.86081 14.4261 3.0366 14.8021C3.33934 15.4271 3.85204 15.8568 4.51612 16.0326C4.7505 16.0912 5.13625 16.1058 6.53277 16.1058H8.25644L8.37363 15.9837C8.53477 15.8275 8.53477 15.6029 8.37363 15.4466L8.25644 15.3246H6.54742C4.58448 15.3246 4.49171 15.3099 4.08154 14.9144C3.72509 14.5677 3.6372 14.3529 3.6372 13.8353C3.6372 13.3177 3.72509 13.1028 4.08154 12.7561C4.43311 12.4143 4.69191 12.346 5.61478 12.346H6.39605V13.4202V14.4993L6.51812 14.6165C6.67926 14.7825 6.8111 14.7728 7.40682 14.5384L7.91952 14.3382L8.43223 14.5384C9.02306 14.7728 9.14025 14.7825 9.30139 14.6165L9.42346 14.4993V13.4202V12.346H14.9705C20.2343 12.346 20.5175 12.3509 20.4833 12.429C20.2391 13.0686 20.2391 14.6019 20.4833 15.2367C20.5175 15.3197 20.2391 15.3246 15.0925 15.3246H9.66273L9.54554 15.4466C9.3844 15.6029 9.3844 15.8275 9.54554 15.9837L9.66273 16.1058H15.5515H21.4452L21.5868 16.2474C21.7675 16.4281 21.7675 16.5648 21.5868 16.7455L21.4452 16.8871H13.1589C3.97412 16.8871 4.47218 16.9017 3.78368 16.5648C3.16355 16.2621 2.67038 15.7738 2.36275 15.1537C1.62543 13.6644 2.26021 11.8528 3.78368 11.1057C4.45264 10.7737 3.9497 10.7932 13.0417 10.7883L21.2743 10.7834L21.123 11.1741ZM8.6422 13.054C8.6422 13.4446 8.63731 13.762 8.62755 13.762C8.61778 13.762 8.47618 13.7083 8.31016 13.6399C8.14414 13.5716 7.96835 13.5179 7.91952 13.5179C7.87069 13.5179 7.69491 13.5716 7.52889 13.6399C7.36287 13.7083 7.21638 13.762 7.20173 13.762C7.18708 13.762 7.17732 13.4446 7.17732 13.054V12.346H7.90976H8.6422V13.054ZM22.8759 17.7904C23.0371 17.9467 23.0371 18.1518 22.871 18.308L22.7441 18.4252L12.9685 18.4496L3.19285 18.474L2.82663 18.6547C2.26021 18.9379 1.85004 19.3871 1.65473 19.9487C1.19573 21.2817 2.04048 22.7173 3.41746 22.9419C3.6372 22.9761 6.04936 22.9907 11.0983 22.981L18.4666 22.9663L18.5594 22.8491C18.6815 22.7027 18.6766 22.4976 18.5497 22.3413L18.452 22.2095L10.9469 22.1997L3.44188 22.1851L3.19773 22.063C2.22603 21.5845 2.02095 20.3833 2.78757 19.6313C2.90964 19.5141 3.10984 19.3823 3.25633 19.3286C3.51512 19.2309 3.64208 19.2309 9.42346 19.2309H15.3318V20.3051V21.3843L15.4539 21.5015C15.5174 21.5698 15.6248 21.6235 15.6931 21.6235C15.7566 21.6235 16.0447 21.5356 16.3279 21.4233L16.8455 21.2231L17.3485 21.4233C17.9295 21.6577 18.0711 21.6675 18.2371 21.5015L18.3592 21.3843V20.3051V19.2309H20.0878H21.8163L21.748 19.4848C21.5429 20.2758 21.5624 21.2817 21.8066 22.1216C21.831 22.2046 21.7626 22.2095 20.8056 22.2095H19.7802L19.6825 22.3364C19.5555 22.4976 19.5507 22.7027 19.6727 22.8491L19.7655 22.9663L21.289 22.9907L22.8124 23.0152L22.9052 23.1324C23.0371 23.2935 23.0224 23.4888 22.871 23.6304L22.7441 23.7476L13.364 23.7623C7.00641 23.772 3.83251 23.7623 3.52489 23.7232C2.77292 23.6402 2.1772 23.357 1.65961 22.8443C1.09319 22.273 0.829512 21.6772 0.790449 20.8716C0.761151 20.227 0.819746 19.934 1.08342 19.3774C1.44964 18.6059 2.26021 17.9516 3.10007 17.7465C3.3491 17.6879 4.80421 17.6781 13.0759 17.6732L22.7587 17.6684L22.8759 17.7904ZM17.578 19.9438C17.578 20.4956 17.5633 20.6518 17.5194 20.6323C17.4852 20.6225 17.3143 20.5591 17.1483 20.5005L16.8357 20.3881L16.5623 20.4858C16.406 20.5444 16.2449 20.603 16.201 20.6225C16.118 20.6567 16.1131 20.603 16.1131 19.9438V19.2309H16.8455H17.578V19.9438Z" fill="#36E1E8"/>
</svg>
