<svg width="25" height="33" viewBox="0 0 25 33" fill="none" xmlns="http://www.w3.org/2000/svg">
<path d="M11.946 0.0854768C11.4643 0.293799 11.4187 0.40447 10.1492 4.21937L8.95138 7.80642H4.89561C0.488288 7.80642 0.67057 7.7934 0.319026 8.1775C0.0586227 8.45092 3.20385e-05 8.60716 3.20385e-05 9.01079C3.20385e-05 9.68784 -0.0455385 9.64878 3.30064 12.2203C4.98024 13.5092 6.41245 14.616 6.49709 14.6811L6.64682 14.8048L5.69635 18.1509C4.87608 21.0089 4.73937 21.5427 4.76541 21.8356C4.81749 22.4606 5.24715 22.8187 5.89165 22.7666C6.16507 22.7405 6.35386 22.6624 6.88118 22.3369C7.23923 22.1221 7.57125 21.9333 7.61682 21.9203C7.68192 21.9072 7.82514 22.5192 8.20272 24.4722L8.69749 27.0437L7.05044 27.0762L5.40339 27.1088L4.26413 28.5345L3.12487 29.9602V31.119V32.2843H12.4994H21.8739V31.119V29.9602L20.7346 28.5345L19.5954 27.1088L17.9483 27.0762L16.3013 27.0437L16.796 24.4722C17.1606 22.5778 17.3168 21.9072 17.3754 21.9203C17.4275 21.9268 17.7725 22.1286 18.1501 22.3564C18.749 22.7275 18.8858 22.7796 19.1592 22.7796C19.8037 22.7796 20.1878 22.4346 20.2333 21.8096C20.2529 21.4906 20.1357 21.0089 19.3349 18.2225C18.8337 16.4518 18.404 14.9545 18.3845 14.8959C18.3649 14.8178 19.2113 14.1342 21.5354 12.3439C23.2866 10.9964 24.7774 9.81153 24.8425 9.71388C24.9662 9.51857 25.0443 8.90012 24.9727 8.62669C24.9206 8.41186 24.5756 8.02126 24.3412 7.89757C24.185 7.81944 23.5144 7.80642 20.1031 7.80642H16.0474L14.8495 4.21937C13.5735 0.37843 13.5345 0.287289 13.0397 0.0854768C12.7728 -0.0317045 12.1999 -0.0251944 11.946 0.0854768ZM13.9121 4.97454L15.2011 8.84804H19.4652C21.8218 8.84804 23.7683 8.87408 23.8204 8.90663C23.8725 8.93918 23.8985 9.00428 23.879 9.05636C23.8529 9.11495 17.5512 14.017 17.076 14.3425C17.0694 14.349 17.5186 15.9635 18.072 17.9231C18.6254 19.8891 19.068 21.5166 19.0615 21.5427C19.0485 21.5687 17.5707 20.6834 15.7739 19.5766L12.4994 17.565L9.23132 19.5636C7.42803 20.6573 5.93722 21.5687 5.91118 21.5883C5.88514 21.6013 5.90467 21.4711 5.95675 21.3018C6.39292 19.811 7.93581 14.3556 7.92279 14.349C7.1546 13.7957 1.1458 9.11495 1.11976 9.05636C1.10023 9.00428 1.12627 8.93918 1.17836 8.90663C1.23044 8.87408 3.17695 8.84804 5.53359 8.84804H9.79769L11.0867 4.97454C12.1739 1.72602 12.4017 1.10105 12.4994 1.10105C12.597 1.10105 12.8249 1.72602 13.9121 4.97454ZM13.3327 19.3944C13.7688 19.6613 14.1269 19.9282 14.1269 19.9803C14.1334 20.0323 13.8925 21.6534 13.5931 23.5738L13.0592 27.0762H12.4994H11.9395L11.4057 23.5738C11.1062 21.6534 10.8653 20.0323 10.8719 19.9803C10.8719 19.8956 12.4147 18.8735 12.5059 18.8931C12.5254 18.8996 12.8965 19.1274 13.3327 19.3944ZM9.83024 20.6378C9.83024 20.6768 10.0516 22.1286 10.3185 23.8668C10.5854 25.5985 10.8068 27.0372 10.8068 27.0502C10.8068 27.0632 10.5854 27.0762 10.3185 27.0762C10.0516 27.0762 9.83024 27.0567 9.83024 27.0372C9.83024 27.0177 9.58286 25.7091 9.27689 24.1337C8.87326 22.057 8.73655 21.2432 8.78863 21.1911C8.87977 21.1 9.71957 20.5792 9.78467 20.5727C9.81071 20.5662 9.83024 20.5987 9.83024 20.6378ZM15.7153 20.8656C15.9888 21.0284 16.2231 21.1846 16.2427 21.2172C16.2622 21.2497 16.0278 22.5648 15.7219 24.1402C15.4159 25.7156 15.1685 27.0242 15.1685 27.0437C15.1685 27.0632 14.9472 27.0762 14.6737 27.0762H14.179L14.218 26.8614C14.2831 26.4968 15.1685 20.7029 15.1685 20.6313C15.1685 20.5336 15.188 20.5401 15.7153 20.8656ZM6.77051 28.5736C6.77051 29.1074 6.88118 29.4199 7.18064 29.7389C7.64286 30.2206 7.36943 30.2011 12.4994 30.2011C17.6293 30.2011 17.3559 30.2206 17.8181 29.7389C18.1176 29.4199 18.2282 29.1074 18.2282 28.5736V28.1179H18.6058H18.9769L19.9078 29.2832L20.8323 30.4485V30.8456V31.2427H12.4994H4.16648V30.8456V30.4485L5.09742 29.2832L6.02185 28.1179H6.39943H6.77051V28.5736ZM17.1866 28.3392C17.1866 28.7168 17.0564 28.9707 16.8221 29.0683C16.5356 29.1855 8.54776 29.205 8.20272 29.0879C7.96185 29.0032 7.81212 28.7168 7.81212 28.3457V28.1179H12.4994H17.1866V28.3392Z" fill="#86A1FF"/>
<path d="M11.4708 6.89502L10.4683 9.88965L7.10256 9.90267L3.73035 9.9222L6.39297 11.9664C7.85773 13.0926 9.04257 14.0431 9.02955 14.0821C9.01002 14.1212 8.67149 15.3125 8.26787 16.7252C7.86424 18.1379 7.51921 19.3358 7.49968 19.3878C7.44109 19.5441 7.61035 19.4529 10.0256 17.9621C11.3016 17.1809 12.3887 16.5169 12.4408 16.4974C12.5059 16.4713 13.4369 17.0117 14.9277 17.9296C16.2362 18.7368 17.3559 19.4139 17.4145 19.4399C17.5057 19.4725 17.5187 19.4529 17.4926 19.3553C17.4666 19.2902 17.1281 18.0858 16.731 16.6927C16.3338 15.293 16.0018 14.1212 15.9823 14.0756C15.9693 14.0366 17.1541 13.0861 18.6124 11.9599L21.2685 9.9222L17.9093 9.90267L14.5501 9.88965L13.5475 6.89502C13.0007 5.24797 12.532 3.90038 12.5124 3.90038C12.4864 3.90038 12.0177 5.24797 11.4708 6.89502ZM13.1179 9.17354L13.6973 10.9313L15.8847 10.9443L18.0655 10.9638L16.3859 12.2528C15.468 12.9624 14.7128 13.5744 14.7128 13.6199C14.7128 13.6655 14.9277 14.4532 15.1946 15.3711C15.455 16.2956 15.6503 17.0377 15.6308 17.0247C15.6112 17.0182 14.9147 16.595 14.0879 16.0872C13.2611 15.5795 12.545 15.1628 12.5059 15.1628C12.4604 15.1628 11.7377 15.586 10.8979 16.1003C10.0581 16.6211 9.37458 17.0117 9.37458 16.9791C9.37458 16.9466 9.5829 16.1979 9.83029 15.3256C10.0842 14.4532 10.286 13.6915 10.286 13.6395C10.286 13.5874 9.53082 12.9624 8.6129 12.2528L6.9333 10.9638L9.11418 10.9443L11.3016 10.9313L11.881 9.17354C12.2 8.20354 12.4799 7.41582 12.4994 7.41582C12.5189 7.41582 12.7989 8.20354 13.1179 9.17354Z" fill="#86A1FF"/>
</svg>
