<svg width="12" height="15" viewBox="0 0 12 15" fill="none" xmlns="http://www.w3.org/2000/svg">
<path d="M0.199219 0.0520012C0.149414 0.0824374 0.0857747 0.146077 0.0553385 0.195881C0 0.28719 0 0.350829 0 6.63729C0 12.9237 0 12.9874 0.0553385 13.0787C0.154948 13.2419 0.25179 13.2779 0.589356 13.2779H0.885417V13.574C0.885417 13.9115 0.921387 14.0084 1.08464 14.108C1.17594 14.1633 1.23405 14.1633 5.97656 14.1633C10.7191 14.1633 10.7772 14.1633 10.8685 14.108C10.9183 14.0776 10.9819 14.0139 11.0124 13.9641C11.0677 13.8728 11.0677 13.8092 11.0677 7.5227C11.0677 1.23625 11.0677 1.17261 11.0124 1.0813C10.9045 0.904215 10.8325 0.882079 10.3179 0.882079C9.81152 0.882079 9.78662 0.89038 9.75065 1.06746C9.73958 1.1311 9.75065 1.16707 9.80322 1.23071L9.8724 1.31095L10.2487 1.31925L10.625 1.33032V7.53931V13.7483H5.97656H1.32813V13.5131V13.2779H5.61133C9.83366 13.2779 9.89176 13.2779 9.98307 13.2226C10.1602 13.1147 10.1823 13.04 10.1823 12.5419C10.1823 12.1462 10.1768 12.0881 10.1297 12.03C10.055 11.936 9.89176 11.9415 9.80599 12.0439C9.74235 12.113 9.73958 12.1407 9.73958 12.4783V12.8352H5.09115H0.442708V6.62345V0.411702H3.9401C5.86312 0.411702 7.45687 0.420002 7.48177 0.428303C7.52051 0.442138 7.52604 0.552815 7.52604 1.36352C7.52604 2.26001 7.52881 2.28491 7.58968 2.40389C7.70589 2.63631 7.70866 2.63908 8.79053 2.64738L9.73958 2.65568L9.74512 7.02742L9.75342 11.4019L9.81982 11.4545C9.9056 11.5237 10.055 11.5237 10.127 11.4517C10.1823 11.3964 10.1823 11.3604 10.1823 6.95548V2.51733L10.1242 2.35685C10.0688 2.20744 9.99414 2.12443 9.03678 1.16707C8.36165 0.491943 7.96875 0.118407 7.88574 0.0741366L7.76123 0.0104973L4.02588 0.00219647C0.334798 -0.00333738 0.290527 -0.00333738 0.199219 0.0520012ZM8.71582 1.47697L9.44906 2.2102H8.70752H7.96875V1.47697C7.96875 1.073 7.97152 0.743733 7.97705 0.743733C7.97982 0.743733 8.31185 1.073 8.71582 1.47697Z" fill="#86A1FF"/>
<path d="M2.87759 2.25453C2.24396 2.42331 1.75698 2.91582 1.59097 3.55222C1.5384 3.7625 1.5384 4.16371 1.59374 4.39613C1.73208 4.98548 2.23013 5.50567 2.82225 5.67998C3.51122 5.88197 4.30532 5.61634 4.73143 5.03806C5.14094 4.48467 5.19904 3.81507 4.89468 3.17868C4.80614 2.99053 4.73973 2.90476 4.55712 2.72214C4.18358 2.3569 3.82111 2.20749 3.30646 2.21302C3.15428 2.21302 2.9606 2.23239 2.87759 2.25453ZM3.71597 2.71107C4.37726 2.93242 4.77294 3.62692 4.60692 4.27162C4.55712 4.46807 4.45474 4.67836 4.34683 4.81117L4.26659 4.90524L4.16144 4.81393C3.90965 4.59258 3.46141 4.47084 3.11278 4.52894C2.89696 4.56491 2.60643 4.69219 2.46809 4.81393L2.36848 4.90248L2.28824 4.8084C2.11115 4.59811 1.99217 4.26885 1.99217 3.98109C1.99217 3.39727 2.36848 2.88539 2.9274 2.70554C3.15152 2.6336 3.49462 2.63636 3.71597 2.71107ZM3.7049 5.05189C3.78791 5.09616 3.85432 5.14043 3.85432 5.15703C3.85708 5.21791 3.58316 5.28985 3.33413 5.29261C3.07128 5.29538 2.75585 5.22067 2.77521 5.1598C2.78075 5.1432 2.82779 5.10446 2.87759 5.07679C3.12661 4.93015 3.44758 4.92184 3.7049 5.05189Z" fill="#86A1FF"/>
<path d="M3.02145 3.15381C2.52894 3.3973 2.53724 4.11393 3.03528 4.35742C3.18193 4.42936 3.46416 4.42383 3.61081 4.34912C3.98987 4.1499 4.09502 3.67122 3.83216 3.33089C3.66891 3.11507 3.27601 3.0293 3.02145 3.15381ZM3.45862 3.59375C3.58037 3.71549 3.5444 3.89534 3.38668 3.95345C3.28984 3.99219 3.27877 3.98942 3.1847 3.90918C3.07679 3.81787 3.07125 3.70443 3.1681 3.60758C3.2511 3.52181 3.38115 3.51628 3.45862 3.59375Z" fill="#86A1FF"/>
<path d="M5.81333 3.38898C5.70542 3.52456 5.76353 3.70717 5.92678 3.74591C5.96275 3.75421 6.5604 3.75698 7.25767 3.75421L8.52769 3.74591L8.58026 3.6795C8.6522 3.59096 8.64943 3.45262 8.56919 3.37791C8.50555 3.31704 8.50278 3.31704 7.18849 3.31704H5.86867L5.81333 3.38898Z" fill="#86A1FF"/>
<path d="M5.82439 4.49296C5.74139 4.5732 5.73585 4.69771 5.80779 4.78626L5.86036 4.85266L6.95607 4.86096L8.05177 4.86926L8.12094 4.80009C8.21225 4.70878 8.21502 4.56767 8.12647 4.48466C8.06283 4.42379 8.05177 4.42379 6.97543 4.42379H5.8908L5.82439 4.49296Z" fill="#86A1FF"/>
<path d="M1.62138 6.47404C1.56604 6.51831 1.54944 6.55428 1.54944 6.63729C1.54944 6.7203 1.56604 6.75627 1.62138 6.80054C1.69609 6.85864 1.69885 6.85864 5.0911 6.85864C8.48336 6.85864 8.48612 6.85864 8.56083 6.80054C8.66321 6.7203 8.66321 6.55428 8.56083 6.47404C8.48612 6.41593 8.48336 6.41593 5.0911 6.41593C1.69885 6.41593 1.69609 6.41593 1.62138 6.47404Z" fill="#86A1FF"/>
<path d="M1.62138 7.58085C1.56604 7.62512 1.54944 7.66109 1.54944 7.7441C1.54944 7.82711 1.56604 7.86308 1.62138 7.90735C1.69609 7.96545 1.70162 7.96545 4.65393 7.96545H7.61178L7.67818 7.89628C7.72245 7.85478 7.74735 7.79667 7.74735 7.7441C7.74735 7.69153 7.72245 7.63342 7.67818 7.59192L7.61178 7.52275H4.65393C1.70162 7.52275 1.69609 7.52275 1.62138 7.58085Z" fill="#86A1FF"/>
<path d="M1.6214 8.68766C1.52456 8.76237 1.52179 8.92562 1.6131 9.01139L1.67674 9.07227H3.87091H6.06231L6.12872 9.00309C6.17299 8.96159 6.19789 8.90348 6.19789 8.85091C6.19789 8.79834 6.17299 8.74023 6.12872 8.69873L6.06231 8.62956H3.87921C1.71271 8.62956 1.69334 8.62956 1.6214 8.68766Z" fill="#86A1FF"/>
<path d="M1.61871 9.80271C1.5274 9.89402 1.52463 10.0351 1.61317 10.1181L1.67681 10.179H4.65126H7.62847L7.68658 10.1154C7.76129 10.0351 7.76405 9.90232 7.69488 9.81655L7.64231 9.75014L4.6651 9.74184L1.68511 9.73631L1.61871 9.80271Z" fill="#86A1FF"/>
</svg>
