<svg width="17" height="17" viewBox="0 0 17 17" fill="none" xmlns="http://www.w3.org/2000/svg">
<path d="M7.89997 0.0400011C7.54909 0.154644 7.2399 0.432567 7.06273 0.790392C6.96893 0.981463 6.96893 0.988412 6.96893 1.71101V2.44056L7.06967 2.65942C7.13916 2.81228 7.23643 2.93734 7.39276 3.08325L7.6151 3.29169L7.30938 3.43066C7.14263 3.51056 6.82649 3.65299 6.60763 3.75374C6.11432 3.97608 5.86071 4.19494 5.69396 4.5354L5.57932 4.76816L5.56889 6.26894L5.55847 7.77319H5.83639H6.11432L6.12474 6.37316C6.13516 5.00786 6.13516 4.97312 6.21159 4.81679C6.25675 4.72994 6.33665 4.6153 6.39224 4.56319C6.44782 4.51108 6.9064 4.27484 7.41708 4.03861L8.34464 3.6113L9.26874 4.04208C9.77942 4.27832 10.238 4.51455 10.2936 4.56666C10.3457 4.61877 10.4256 4.72994 10.4707 4.81679C10.5472 4.97312 10.5472 5.00786 10.5576 6.37316L10.568 7.77319H10.8459H11.1239L11.1134 6.26894L11.103 4.76816L10.9884 4.5354C10.8216 4.19147 10.568 3.97608 10.0747 3.75374C9.85585 3.65299 9.53971 3.50708 9.37296 3.43066L9.07072 3.28822L9.27916 3.09715C9.41812 2.96513 9.52234 2.82617 9.59877 2.67332L9.71341 2.44056V1.71101V0.981463L9.61266 0.773022C9.48065 0.505521 9.21662 0.241495 8.94912 0.112956C8.76847 0.022631 8.69899 0.00873487 8.39328 0.00178681C8.17094 -0.00516125 7.99377 0.00873487 7.89997 0.0400011ZM8.68162 0.647957C8.8588 0.738281 8.99776 0.884191 9.08461 1.06831C9.14714 1.2038 9.15757 1.28718 9.15757 1.72838C9.15409 2.28075 9.12977 2.38497 8.9387 2.60036C8.88312 2.66637 8.72331 2.77406 8.58783 2.84007L8.34117 2.95819L8.12231 2.85049C7.83396 2.70806 7.70195 2.59341 7.60468 2.39539C7.53172 2.24601 7.52477 2.18695 7.52477 1.72838C7.52477 1.29065 7.53519 1.2038 7.59773 1.06831C7.6811 0.887665 7.82006 0.741755 7.99377 0.647957C8.16052 0.561106 8.50792 0.561106 8.68162 0.647957Z" fill="#86A1FF"/>
<path d="M2.97383 1.72491C2.8974 1.75965 2.78623 1.84302 2.7237 1.90556C2.49441 2.14874 2.50483 1.99936 2.50483 5.02871V7.77319H2.78276H3.06068V5.1503C3.06068 2.25296 3.05373 2.32939 3.26912 2.25296C3.34902 2.22864 3.85623 2.21475 4.88802 2.21475H6.39575V1.93682V1.6589H4.75601C3.23091 1.6589 3.10237 1.66585 2.97383 1.72491Z" fill="#86A1FF"/>
<path d="M10.2866 1.93682V2.21474H11.7978C13.4793 2.21474 13.5105 2.21822 13.5835 2.42319C13.6113 2.50656 13.6217 3.29169 13.6217 5.15377V7.77319H13.8996H14.1775V5.02871C14.1775 1.99935 14.188 2.14874 13.9587 1.90556C13.7224 1.65543 13.7607 1.6589 11.9298 1.6589H10.2866V1.93682Z" fill="#86A1FF"/>
<path d="M6.67358 6.1056V7.21729H6.95151H7.22943V6.1056V4.99391H6.95151H6.67358V6.1056Z" fill="#86A1FF"/>
<path d="M9.45288 6.1056V7.21729H9.7308H10.0087V6.1056V4.99391H9.7308H9.45288V6.1056Z" fill="#86A1FF"/>
<path d="M7.54208 7.56127C6.51377 7.79055 5.65221 8.36724 5.09636 9.20796C4.89487 9.5102 4.61 10.1112 4.63084 10.1772C4.64474 10.2189 5.145 10.3822 5.18669 10.3579C5.20058 10.3474 5.21448 10.3196 5.21448 10.2953C5.21448 10.2085 5.52367 9.62484 5.67653 9.41987C5.86065 9.17669 6.24627 8.80497 6.47903 8.64516C6.74653 8.46104 7.19468 8.26302 7.55945 8.17269C8.26815 7.99204 9.08455 8.07542 9.75851 8.39851C9.91484 8.47146 10.1163 8.58263 10.2032 8.64516C10.4359 8.80497 10.8216 9.17669 11.0057 9.41987C11.1585 9.62484 11.4677 10.2085 11.4677 10.2953C11.4677 10.3196 11.4816 10.3474 11.4955 10.3579C11.5372 10.3822 12.034 10.2258 12.0479 10.1807C12.0548 10.1598 11.9993 10.0035 11.9263 9.82981C11.4538 8.73549 10.4881 7.91214 9.31383 7.59948C8.89 7.48831 7.96591 7.46747 7.54208 7.56127Z" fill="#86A1FF"/>
<path d="M2.3415 8.37765C1.99062 8.49229 1.68143 8.77022 1.50426 9.12804C1.41046 9.31911 1.41046 9.32606 1.41046 10.0487V10.7782L1.5112 10.9971C1.58068 11.1499 1.67796 11.275 1.83429 11.4209L2.05663 11.6293L1.75091 11.7683C1.58416 11.8482 1.26802 11.9906 1.04916 12.0914C0.555845 12.3137 0.302241 12.5326 0.135487 12.873L0.0208442 13.1058L0.0104221 14.8845L0 16.6667H0.277922H0.555845L0.566267 14.9887C0.576689 13.3351 0.576689 13.3108 0.653118 13.1544C0.69828 13.0676 0.778183 12.9529 0.833767 12.9008C0.889352 12.8487 1.34792 12.6125 1.85861 12.3763L2.78617 11.949L3.71026 12.3797C4.22095 12.616 4.67952 12.8522 4.7351 12.9043C4.78721 12.9564 4.86712 13.0676 4.91228 13.1544C4.98871 13.3108 4.98871 13.3351 4.99913 14.9887L5.00955 16.6667H5.28747H5.5654L5.55497 14.8845L5.54455 13.1058L5.42991 12.873C5.26316 12.5291 5.00955 12.3137 4.51624 12.0914C4.29738 11.9906 3.98124 11.8447 3.81449 11.7683L3.51224 11.6259L3.72069 11.4348C3.85965 11.3028 3.96387 11.1638 4.0403 11.011L4.15494 10.7782V10.0487V9.31911L4.05419 9.11067C3.92218 8.84317 3.65815 8.57914 3.39065 8.45061C3.21 8.36028 3.14052 8.34638 2.83481 8.33944C2.61247 8.33249 2.4353 8.34638 2.3415 8.37765ZM3.12315 8.98561C3.30033 9.07593 3.43929 9.22184 3.52614 9.40596C3.58867 9.54145 3.5991 9.62483 3.5991 10.066C3.59562 10.6184 3.5713 10.7226 3.38023 10.938C3.32465 11.004 3.16484 11.1117 3.02935 11.1777L2.7827 11.2958L2.56383 11.1881C2.27549 11.0457 2.14348 10.9311 2.0462 10.733C1.97325 10.5837 1.9663 10.5246 1.9663 10.066C1.9663 9.6283 1.97672 9.54145 2.03926 9.40596C2.12263 9.22531 2.26159 9.0794 2.4353 8.98561C2.60205 8.89876 2.94945 8.89876 3.12315 8.98561Z" fill="#86A1FF"/>
<path d="M13.4584 8.37765C13.1076 8.49229 12.7984 8.77022 12.6212 9.12804C12.5274 9.31911 12.5274 9.32606 12.5274 10.0487V10.7782L12.6281 10.9971C12.6976 11.1499 12.7949 11.275 12.9512 11.4209L13.1736 11.6293L12.8679 11.7683C12.7011 11.8482 12.385 11.9906 12.1661 12.0914C11.6728 12.3137 11.4192 12.5326 11.2524 12.873L11.1378 13.1058L11.1274 14.8845L11.1169 16.6667H11.3949H11.6728L11.6832 14.9887C11.6936 13.3351 11.6936 13.3108 11.7701 13.1544C11.8152 13.0676 11.8951 12.9529 11.9507 12.9008C12.0063 12.8487 12.4649 12.6125 12.9755 12.3763L13.9031 11.949L14.8272 12.3797C15.3379 12.616 15.7965 12.8522 15.852 12.9043C15.9042 12.9564 15.9841 13.0676 16.0292 13.1544C16.1056 13.3108 16.1056 13.3351 16.1161 14.9887L16.1265 16.6667H16.4044H16.6823L16.6719 14.8845L16.6615 13.1058L16.5469 12.873C16.3801 12.5291 16.1265 12.3137 15.6332 12.0914C15.4143 11.9906 15.0982 11.8447 14.9314 11.7683L14.6292 11.6259L14.8376 11.4348C14.9766 11.3028 15.0808 11.1638 15.1572 11.011L15.2719 10.7782V10.0487V9.31911L15.1711 9.11067C15.0391 8.84317 14.7751 8.57914 14.5076 8.45061C14.3269 8.36028 14.2575 8.34638 13.9518 8.33944C13.7294 8.33249 13.5522 8.34638 13.4584 8.37765ZM14.2401 8.98561C14.4173 9.07593 14.5562 9.22184 14.6431 9.40596C14.7056 9.54145 14.716 9.62483 14.716 10.066C14.7126 10.6184 14.6882 10.7226 14.4972 10.938C14.4416 11.004 14.2818 11.1117 14.1463 11.1777L13.8996 11.2958L13.6808 11.1881C13.3924 11.0457 13.2604 10.9311 13.1631 10.733C13.0902 10.5837 13.0832 10.5246 13.0832 10.066C13.0832 9.6283 13.0937 9.54145 13.1562 9.40596C13.2396 9.22531 13.3785 9.0794 13.5522 8.98561C13.719 8.89876 14.0664 8.89876 14.2401 8.98561Z" fill="#86A1FF"/>
<path d="M7.77493 8.63125C7.76798 8.64862 7.7263 8.80148 7.68461 8.97518C7.6186 9.24268 7.59081 9.29826 7.52133 9.333C7.39626 9.38859 7.38584 9.38859 7.07318 9.19752C6.91337 9.10024 6.77094 9.02382 6.75357 9.02382C6.71535 9.02382 5.97886 9.76378 5.97886 9.802C5.97886 9.81589 6.05876 9.9618 6.15603 10.1251C6.32974 10.41 6.34711 10.4864 6.26373 10.6114C6.24983 10.6323 6.09003 10.6879 5.90938 10.733L5.57935 10.8164V11.3862V11.9559L5.90938 12.0393C6.09003 12.0844 6.24983 12.14 6.26373 12.1609C6.34711 12.2859 6.32974 12.3624 6.15603 12.6472C6.05876 12.8105 5.97886 12.9564 5.97886 12.9738C5.97886 13.012 6.71883 13.7485 6.75704 13.7485C6.77094 13.7485 6.91685 13.6686 7.08013 13.5713C7.365 13.3976 7.44143 13.3802 7.56649 13.4636C7.58734 13.4775 7.64292 13.6373 7.68808 13.818L7.77146 14.148H8.3412H8.91094L8.99432 13.818C9.03948 13.6373 9.09506 13.4775 9.11591 13.4636C9.24097 13.3802 9.3174 13.3976 9.60227 13.5713C9.76555 13.6686 9.91146 13.7485 9.92883 13.7485C9.96705 13.7485 10.7035 13.0085 10.7035 12.9703C10.7035 12.9564 10.6236 12.8105 10.5264 12.6472C10.3527 12.3624 10.3353 12.2859 10.4187 12.1609C10.4326 12.14 10.5924 12.0844 10.773 12.0393L11.1031 11.9559V11.3862V10.8164L10.773 10.733C10.5924 10.6879 10.4326 10.6323 10.4187 10.6114C10.3353 10.4864 10.3527 10.41 10.5264 10.1251C10.6236 9.9618 10.7035 9.81589 10.7035 9.79852C10.7035 9.76031 9.96357 9.02382 9.92536 9.02382C9.91146 9.02382 9.76555 9.10372 9.60227 9.20099C9.3174 9.37469 9.24097 9.39206 9.11591 9.30869C9.09506 9.29479 9.03948 9.13498 8.99432 8.95434L8.91094 8.6243L8.35162 8.61388C8.04243 8.61041 7.78535 8.61735 7.77493 8.63125ZM8.50101 9.44765L8.56701 9.73252L8.96305 9.8958L9.35909 10.0591L9.57795 9.92012C9.92883 9.70125 10.0261 9.79852 9.80724 10.1494L9.66828 10.3683L9.83156 10.7643L9.99484 11.1603L10.2797 11.2264C10.5472 11.2924 10.5646 11.2993 10.5646 11.3862C10.5646 11.473 10.5472 11.48 10.2797 11.546L9.99484 11.612L9.83156 12.008L9.66828 12.404L9.80724 12.6229C10.0261 12.9738 9.92883 13.0711 9.57795 12.8522L9.35909 12.7132L8.96305 12.8765L8.56701 13.0398L8.50101 13.3247C8.435 13.5922 8.42805 13.6095 8.3412 13.6095C8.25435 13.6095 8.2474 13.5922 8.18139 13.3247L8.11539 13.0398L7.71935 12.8765L7.32331 12.7132L7.10444 12.8522C6.75357 13.0711 6.6563 12.9738 6.87516 12.6194L7.01759 12.3971L6.85084 12.0045L6.68409 11.612L6.40269 11.546C6.13519 11.48 6.11782 11.473 6.11782 11.3862C6.11782 11.2993 6.13519 11.2924 6.40269 11.2264L6.68409 11.1603L6.85084 10.7678L7.01759 10.3752L6.87516 10.1529C6.6563 9.79852 6.75357 9.70125 7.10444 9.92012L7.32331 10.0591L7.71935 9.8958L8.11539 9.73252L8.18139 9.44765C8.2474 9.18015 8.25435 9.16278 8.3412 9.16278C8.42805 9.16278 8.435 9.18015 8.50101 9.44765Z" fill="#86A1FF"/>
<path d="M7.90001 10.3474C7.68809 10.4307 7.44144 10.6566 7.33027 10.8685C7.21215 11.0978 7.19826 11.5424 7.299 11.8134C7.64293 12.7236 9.03949 12.7271 9.37995 11.8204C9.53628 11.4035 9.44595 10.9032 9.16108 10.6079C8.92485 10.3682 8.76157 10.2987 8.39332 10.2848C8.13972 10.2779 8.04592 10.2883 7.90001 10.3474ZM8.61219 10.9345C9.06381 11.2089 8.86926 11.9072 8.34121 11.9072C8.04592 11.9072 7.82011 11.6814 7.82011 11.3861C7.82011 10.9831 8.26826 10.726 8.61219 10.9345Z" fill="#86A1FF"/>
<path d="M1.11523 15.2771V16.6667H1.39316H1.67108V15.2771V13.8875H1.39316H1.11523V15.2771Z" fill="#86A1FF"/>
<path d="M3.89441 15.2771V16.6667H4.17233H4.45025V15.2771V13.8875H4.17233H3.89441V15.2771Z" fill="#86A1FF"/>
<path d="M12.2321 15.2771V16.6667H12.51H12.7879V15.2771V13.8875H12.51H12.2321V15.2771Z" fill="#86A1FF"/>
<path d="M15.0114 15.2771V16.6667H15.2893H15.5672V15.2771V13.8875H15.2893H15.0114V15.2771Z" fill="#86A1FF"/>
<path d="M6.12132 14.1896C6.03794 14.2973 5.96846 14.412 5.96498 14.4398C5.96151 14.5162 6.44787 14.8323 6.79528 14.9748C7.3546 15.211 7.6221 15.2596 8.34122 15.2596C9.06035 15.2596 9.32785 15.211 9.88717 14.9748C10.1755 14.8567 10.707 14.5266 10.7279 14.4571C10.7383 14.4328 10.5021 14.0958 10.4083 13.9986C10.4013 13.9916 10.3214 14.0403 10.2276 14.1063C9.40427 14.6934 8.237 14.8567 7.26427 14.5197C7.00719 14.4294 6.65979 14.2522 6.45482 14.1097C6.3645 14.0437 6.28807 13.9916 6.28112 13.9916C6.27765 13.9916 6.20469 14.0819 6.12132 14.1896Z" fill="#86A1FF"/>
</svg>
