<svg width="12" height="15" viewBox="0 0 12 15" fill="none" xmlns="http://www.w3.org/2000/svg">
<path d="M0.199219 0.0521232C0.149414 0.0825594 0.0857747 0.146199 0.0553385 0.196003C0 0.287312 0 0.350951 0 6.63741C0 12.9239 0 12.9875 0.0553385 13.0788C0.154948 13.2421 0.25179 13.278 0.589356 13.278H0.885417V13.5741C0.885417 13.9117 0.921387 14.0085 1.08464 14.1081C1.17594 14.1635 1.23405 14.1635 5.97656 14.1635C10.7191 14.1635 10.7772 14.1635 10.8685 14.1081C10.9183 14.0777 10.9819 14.014 11.0124 13.9642C11.0677 13.8729 11.0677 13.8093 11.0677 7.52283C11.0677 1.23637 11.0677 1.17273 11.0124 1.08142C10.9045 0.904337 10.8325 0.882201 10.3179 0.882201C9.81152 0.882201 9.78662 0.890502 9.75065 1.06759C9.73958 1.13122 9.75065 1.16719 9.80322 1.23083L9.8724 1.31108L10.2487 1.31938L10.625 1.33044V7.53943V13.7484H5.97656H1.32813V13.5132V13.278H5.61133C9.83366 13.278 9.89176 13.278 9.98307 13.2227C10.1602 13.1148 10.1823 13.0401 10.1823 12.542C10.1823 12.1464 10.1768 12.0883 10.1297 12.0302C10.055 11.9361 9.89176 11.9416 9.80599 12.044C9.74235 12.1132 9.73958 12.1408 9.73958 12.4784V12.8353H5.09115H0.442708V6.62358V0.411824H3.9401C5.86312 0.411824 7.45687 0.420125 7.48177 0.428425C7.52051 0.44226 7.52604 0.552937 7.52604 1.36365C7.52604 2.26013 7.52881 2.28503 7.58968 2.40401C7.70589 2.63643 7.70866 2.6392 8.79053 2.6475L9.73958 2.6558L9.74512 7.02755L9.75342 11.4021L9.81982 11.4546C9.9056 11.5238 10.055 11.5238 10.127 11.4519C10.1823 11.3965 10.1823 11.3606 10.1823 6.95561V2.51746L10.1242 2.35697C10.0688 2.20756 9.99414 2.12455 9.03678 1.16719C8.36165 0.492065 7.96875 0.118529 7.88574 0.0742586L7.76123 0.0106193L4.02588 0.00231854C0.334798 -0.00321531 0.290527 -0.00321531 0.199219 0.0521232ZM8.71582 1.47709L9.44906 2.21033H8.70752H7.96875V1.47709C7.96875 1.07312 7.97152 0.743855 7.97705 0.743855C7.97982 0.743855 8.31185 1.07312 8.71582 1.47709Z" fill="#36E1E8"/>
<path d="M2.87759 2.25465C2.24396 2.42343 1.75698 2.91595 1.59097 3.55234C1.5384 3.76262 1.5384 4.16383 1.59374 4.39625C1.73208 4.98561 2.23013 5.50579 2.82225 5.6801C3.51122 5.88209 4.30532 5.61647 4.73143 5.03818C5.14094 4.48479 5.19904 3.8152 4.89468 3.1788C4.80614 2.99065 4.73973 2.90488 4.55712 2.72226C4.18358 2.35703 3.82111 2.20761 3.30646 2.21315C3.15428 2.21315 2.9606 2.23251 2.87759 2.25465ZM3.71597 2.71119C4.37726 2.93255 4.77294 3.62705 4.60692 4.27174C4.55712 4.46819 4.45474 4.67848 4.34683 4.81129L4.26659 4.90537L4.16144 4.81406C3.90965 4.5927 3.46141 4.47096 3.11278 4.52906C2.89696 4.56503 2.60643 4.69231 2.46809 4.81406L2.36848 4.9026L2.28824 4.80852C2.11115 4.59824 1.99217 4.26897 1.99217 3.98121C1.99217 3.39739 2.36848 2.88551 2.9274 2.70566C3.15152 2.63372 3.49462 2.63649 3.71597 2.71119ZM3.7049 5.05201C3.78791 5.09628 3.85432 5.14055 3.85432 5.15716C3.85708 5.21803 3.58316 5.28997 3.33413 5.29274C3.07128 5.2955 2.75585 5.2208 2.77521 5.15992C2.78075 5.14332 2.82779 5.10458 2.87759 5.07691C3.12661 4.93027 3.44758 4.92197 3.7049 5.05201Z" fill="#36E1E8"/>
<path d="M3.02145 3.15393C2.52894 3.39742 2.53724 4.11405 3.03528 4.35754C3.18193 4.42948 3.46416 4.42395 3.61081 4.34924C3.98987 4.15002 4.09502 3.67135 3.83216 3.33101C3.66891 3.11519 3.27601 3.02942 3.02145 3.15393ZM3.45862 3.59387C3.58037 3.71562 3.5444 3.89547 3.38668 3.95357C3.28984 3.99231 3.27877 3.98954 3.1847 3.9093C3.07679 3.81799 3.07125 3.70455 3.1681 3.60771C3.2511 3.52193 3.38115 3.5164 3.45862 3.59387Z" fill="#36E1E8"/>
<path d="M5.81333 3.3891C5.70542 3.52468 5.76353 3.7073 5.92678 3.74603C5.96275 3.75433 6.5604 3.7571 7.25767 3.75433L8.52769 3.74603L8.58026 3.67963C8.6522 3.59108 8.64943 3.45274 8.56919 3.37803C8.50555 3.31716 8.50278 3.31716 7.18849 3.31716H5.86867L5.81333 3.3891Z" fill="#36E1E8"/>
<path d="M5.82439 4.49308C5.74139 4.57332 5.73585 4.69784 5.80779 4.78638L5.86036 4.85278L6.95607 4.86108L8.05177 4.86938L8.12094 4.80021C8.21225 4.7089 8.21502 4.56779 8.12647 4.48478C8.06283 4.42391 8.05177 4.42391 6.97543 4.42391H5.8908L5.82439 4.49308Z" fill="#36E1E8"/>
<path d="M1.62138 6.47416C1.56604 6.51843 1.54944 6.5544 1.54944 6.63741C1.54944 6.72042 1.56604 6.75639 1.62138 6.80066C1.69609 6.85876 1.69885 6.85876 5.0911 6.85876C8.48336 6.85876 8.48612 6.85876 8.56083 6.80066C8.66321 6.72042 8.66321 6.5544 8.56083 6.47416C8.48612 6.41606 8.48336 6.41606 5.0911 6.41606C1.69885 6.41606 1.69609 6.41606 1.62138 6.47416Z" fill="#36E1E8"/>
<path d="M1.62138 7.58097C1.56604 7.62524 1.54944 7.66121 1.54944 7.74422C1.54944 7.82723 1.56604 7.8632 1.62138 7.90747C1.69609 7.96558 1.70162 7.96558 4.65393 7.96558H7.61178L7.67818 7.8964C7.72245 7.8549 7.74735 7.79679 7.74735 7.74422C7.74735 7.69165 7.72245 7.63354 7.67818 7.59204L7.61178 7.52287H4.65393C1.70162 7.52287 1.69609 7.52287 1.62138 7.58097Z" fill="#36E1E8"/>
<path d="M1.6214 8.68778C1.52456 8.76249 1.52179 8.92574 1.6131 9.01152L1.67674 9.07239H3.87091H6.06231L6.12872 9.00321C6.17299 8.96171 6.19789 8.90361 6.19789 8.85103C6.19789 8.79846 6.17299 8.74036 6.12872 8.69885L6.06231 8.62968H3.87921C1.71271 8.62968 1.69334 8.62968 1.6214 8.68778Z" fill="#36E1E8"/>
<path d="M1.61871 9.80284C1.5274 9.89414 1.52463 10.0353 1.61317 10.1183L1.67681 10.1791H4.65126H7.62847L7.68658 10.1155C7.76129 10.0353 7.76405 9.90245 7.69488 9.81667L7.64231 9.75026L4.6651 9.74196L1.68511 9.73643L1.61871 9.80284Z" fill="#36E1E8"/>
</svg>
