<svg width="12" height="15" viewBox="0 0 12 15" fill="none" xmlns="http://www.w3.org/2000/svg">
<path d="M0.282532 0.302123C0.232727 0.332559 0.169088 0.396199 0.138652 0.446003C0.083313 0.537312 0.083313 0.600951 0.083313 6.88741C0.083313 13.1739 0.083313 13.2375 0.138652 13.3288C0.238261 13.4921 0.335103 13.528 0.672668 13.528H0.96873V13.8241C0.96873 14.1617 1.0047 14.2585 1.16795 14.3581C1.25926 14.4135 1.31736 14.4135 6.05988 14.4135C10.8024 14.4135 10.8605 14.4135 10.9518 14.3581C11.0016 14.3277 11.0652 14.264 11.0957 14.2142C11.151 14.1229 11.151 14.0593 11.151 7.77283C11.151 1.48637 11.151 1.42273 11.0957 1.33142C10.9878 1.15434 10.9158 1.1322 10.4012 1.1322C9.89484 1.1322 9.86993 1.1405 9.83396 1.31759C9.8229 1.38122 9.83396 1.41719 9.88654 1.48083L9.95571 1.56108L10.332 1.56938L10.7083 1.58044V7.78943V13.9984H6.05988H1.41144V13.7632V13.528H5.69464C9.91697 13.528 9.97508 13.528 10.0664 13.4727C10.2435 13.3648 10.2656 13.2901 10.2656 12.792C10.2656 12.3964 10.2601 12.3383 10.213 12.2802C10.1383 12.1861 9.97508 12.1916 9.8893 12.294C9.82566 12.3632 9.8229 12.3908 9.8229 12.7284V13.0853H5.17446H0.526021V6.87358V0.661824H4.02342C5.94643 0.661824 7.54018 0.670125 7.56508 0.678425C7.60382 0.69226 7.60936 0.802937 7.60936 1.61365C7.60936 2.51013 7.61212 2.53503 7.67299 2.65401C7.78921 2.88643 7.79197 2.8892 8.87384 2.8975L9.8229 2.9058L9.82843 7.27755L9.83673 11.6521L9.90314 11.7046C9.98891 11.7738 10.1383 11.7738 10.2103 11.7019C10.2656 11.6465 10.2656 11.6106 10.2656 7.20561V2.76746L10.2075 2.60697C10.1522 2.45756 10.0775 2.37455 9.1201 1.41719C8.44497 0.742065 8.05206 0.368529 7.96906 0.324259L7.84454 0.260619L4.10919 0.252319C0.418111 0.246785 0.37384 0.246785 0.282532 0.302123ZM8.79913 1.72709L9.53237 2.46033H8.79083H8.05206V1.72709C8.05206 1.32312 8.05483 0.993855 8.06036 0.993855C8.06313 0.993855 8.39516 1.32312 8.79913 1.72709Z" fill="white"/>
<path d="M2.9609 2.50465C2.32728 2.67343 1.8403 3.16595 1.67428 3.80234C1.62171 4.01262 1.62171 4.41383 1.67705 4.64625C1.8154 5.23561 2.31344 5.75579 2.90556 5.9301C3.59453 6.13209 4.38864 5.86647 4.81474 5.28818C5.22425 4.73479 5.28236 4.0652 4.97799 3.4288C4.88945 3.24065 4.82305 3.15488 4.64043 2.97226C4.26689 2.60703 3.90443 2.45761 3.38978 2.46315C3.2376 2.46315 3.04391 2.48251 2.9609 2.50465ZM3.79928 2.96119C4.46058 3.18255 4.85625 3.87705 4.69023 4.52174C4.64043 4.71819 4.53805 4.92848 4.43014 5.06129L4.3499 5.15537L4.24476 5.06406C3.99297 4.8427 3.54472 4.72096 3.19609 4.77906C2.98027 4.81503 2.68974 4.94231 2.5514 5.06406L2.45179 5.1526L2.37155 5.05852C2.19446 4.84824 2.07549 4.51897 2.07549 4.23121C2.07549 3.64739 2.45179 3.13551 3.01071 2.95566C3.23483 2.88372 3.57793 2.88649 3.79928 2.96119ZM3.78821 5.30201C3.87122 5.34628 3.93763 5.39055 3.93763 5.40716C3.9404 5.46803 3.66647 5.53997 3.41745 5.54274C3.15459 5.5455 2.83916 5.4708 2.85853 5.40992C2.86406 5.39332 2.9111 5.35458 2.9609 5.32691C3.20993 5.18027 3.53089 5.17197 3.78821 5.30201Z" fill="white"/>
<path d="M3.10476 3.40393C2.61225 3.64742 2.62055 4.36405 3.1186 4.60754C3.26524 4.67948 3.54747 4.67395 3.69412 4.59924C4.07319 4.40002 4.17833 3.92135 3.91547 3.58101C3.75222 3.36519 3.35932 3.27942 3.10476 3.40393ZM3.54194 3.84387C3.66368 3.96562 3.62771 4.14547 3.47 4.20357C3.37315 4.24231 3.36209 4.23954 3.26801 4.1593C3.1601 4.06799 3.15457 3.95455 3.25141 3.85771C3.33442 3.77193 3.46446 3.7664 3.54194 3.84387Z" fill="white"/>
<path d="M5.89664 3.6391C5.78873 3.77468 5.84684 3.9573 6.01009 3.99603C6.04606 4.00433 6.64371 4.0071 7.34098 4.00433L8.611 3.99603L8.66357 3.92963C8.73551 3.84108 8.73274 3.70274 8.6525 3.62803C8.58886 3.56716 8.5861 3.56716 7.27181 3.56716H5.95198L5.89664 3.6391Z" fill="white"/>
<path d="M5.90771 4.74308C5.8247 4.82332 5.81916 4.94784 5.8911 5.03638L5.94368 5.10278L7.03938 5.11108L8.13508 5.11938L8.20425 5.05021C8.29556 4.9589 8.29833 4.81779 8.20979 4.73478C8.14615 4.67391 8.13508 4.67391 7.05875 4.67391H5.97411L5.90771 4.74308Z" fill="white"/>
<path d="M1.70469 6.72416C1.64935 6.76843 1.63275 6.8044 1.63275 6.88741C1.63275 6.97042 1.64935 7.00639 1.70469 7.05066C1.7794 7.10876 1.78217 7.10876 5.17442 7.10876C8.56667 7.10876 8.56944 7.10876 8.64414 7.05066C8.74652 6.97042 8.74652 6.8044 8.64414 6.72416C8.56944 6.66606 8.56667 6.66606 5.17442 6.66606C1.78217 6.66606 1.7794 6.66606 1.70469 6.72416Z" fill="white"/>
<path d="M1.70469 7.83097C1.64935 7.87524 1.63275 7.91121 1.63275 7.99422C1.63275 8.07723 1.64935 8.1132 1.70469 8.15747C1.7794 8.21558 1.78493 8.21558 4.73724 8.21558H7.69509L7.76149 8.1464C7.80577 8.1049 7.83067 8.04679 7.83067 7.99422C7.83067 7.94165 7.80577 7.88354 7.76149 7.84204L7.69509 7.77287H4.73724C1.78493 7.77287 1.7794 7.77287 1.70469 7.83097Z" fill="white"/>
<path d="M1.70477 8.93778C1.60793 9.01249 1.60516 9.17574 1.69647 9.26152L1.76011 9.32239H3.95428H6.14569L6.21209 9.25321C6.25637 9.21171 6.28127 9.15361 6.28127 9.10103C6.28127 9.04846 6.25637 8.99036 6.21209 8.94885L6.14569 8.87968H3.96258C1.79608 8.87968 1.77671 8.87968 1.70477 8.93778Z" fill="white"/>
<path d="M1.70202 10.0528C1.61071 10.1441 1.60795 10.2853 1.69649 10.3683L1.76013 10.4291H4.73457H7.71179L7.76989 10.3655C7.8446 10.2853 7.84737 10.1524 7.77819 10.0667L7.72562 10.0003L4.74841 9.99196L1.76843 9.98643L1.70202 10.0528Z" fill="white"/>
</svg>
