<?xml version="1.0" standalone="no"?>
<!DOCTYPE svg PUBLIC "-//W3C//DTD SVG 20010904//EN"
 "http://www.w3.org/TR/2001/REC-SVG-20010904/DTD/svg10.dtd">
<svg version="1.0" xmlns="http://www.w3.org/2000/svg"
 width="512.000000pt" height="512.000000pt" viewBox="0 0 512.000000 512.000000"
 preserveAspectRatio="xMidYMid meet">
<metadata>
Created by potrace 1.16, written by Peter Selinger 2001-2019
</metadata>
<g transform="translate(0.000000,512.000000) scale(0.100000,-0.100000)"
fill="#000000" stroke="none">
<path d="M660 5020 c-20 -20 -20 -33 -20 -1760 l0 -1740 -280 0 -280 0 0 -80
0 -80 480 0 480 0 0 -480 0 -480 -480 0 -480 0 0 -80 0 -80 625 0 625 0 160
-80 160 -80 527 0 c589 0 571 -2 640 71 65 69 63 46 63 719 0 597 0 610 -20
630 -19 19 -33 20 -400 20 l-380 0 0 275 c0 322 -6 350 -90 435 -68 67 -132
90 -255 90 -142 0 -135 14 -135 -278 l0 -237 -143 -143 -142 -142 -258 0 -257
0 0 1680 0 1680 1440 0 1440 0 0 -300 c0 -287 1 -301 20 -320 19 -19 33 -20
320 -20 l300 0 0 -840 0 -840 80 0 80 0 0 902 0 903 -338 337 -337 338 -1563
0 c-1549 0 -1562 0 -1582 -20z m3360 -445 l175 -175 -178 0 -177 0 0 175 c0
96 1 175 3 175 1 0 81 -79 177 -175z m-2180 -2448 c19 -12 43 -38 54 -57 20
-33 21 -55 26 -358 5 -306 6 -324 24 -338 16 -11 87 -14 398 -14 l378 0 0 -80
0 -80 -320 0 -320 0 0 -80 0 -80 320 0 320 0 0 -80 0 -80 -320 0 -320 0 0 -80
0 -80 320 0 320 0 0 -80 0 -80 -320 0 -320 0 0 -80 0 -80 320 0 320 0 0 -34
c0 -18 -5 -48 -11 -66 -21 -59 -28 -60 -539 -60 l-460 0 -160 80 -160 80 -95
0 -95 0 0 480 0 480 102 0 102 0 178 178 178 178 0 217 0 217 24 0 c12 0 38
-10 56 -23z"/>
<path d="M960 4640 l0 -80 1280 0 1280 0 0 80 0 80 -1280 0 -1280 0 0 -80z"/>
<path d="M960 4320 l0 -80 1280 0 1280 0 0 80 0 80 -1280 0 -1280 0 0 -80z"/>
<path d="M960 4000 l0 -80 1280 0 1280 0 0 80 0 80 -1280 0 -1280 0 0 -80z"/>
<path d="M2665 3739 c-310 -76 -570 -338 -645 -649 -28 -117 -28 -303 0 -420
79 -328 349 -589 682 -656 100 -20 321 -14 413 11 98 26 253 109 334 177 139
117 249 295 291 468 28 117 28 303 0 420 -75 314 -336 575 -650 650 -115 27
-311 27 -425 -1z m318 -153 c137 -16 303 -102 409 -214 80 -85 128 -163 165
-267 26 -74 28 -91 28 -225 0 -137 -2 -150 -31 -231 -38 -108 -105 -209 -189
-287 -381 -357 -986 -202 -1163 297 -25 69 -27 89 -27 221 0 134 2 151 28 225
93 262 334 458 597 484 74 7 88 7 183 -3z"/>
<path d="M3111 3288 c-33 -86 -254 -635 -258 -642 -3 -4 -57 43 -119 105
l-114 114 -63 -63 -62 -62 171 -170 c160 -160 172 -170 208 -170 20 0 46 4 56
10 11 6 76 155 184 426 92 229 166 417 164 419 -9 6 -140 55 -148 55 -6 0 -14
-10 -19 -22z"/>
<path d="M3943 2461 c-105 -39 -180 -107 -231 -211 -23 -47 -27 -70 -31 -163
-3 -105 -3 -109 34 -194 78 -181 109 -324 120 -550 l7 -143 -111 0 c-126 0
-165 -11 -220 -63 -51 -48 -71 -100 -71 -184 l0 -73 -70 0 c-82 0 -130 -17
-179 -63 -59 -57 -71 -95 -71 -245 0 -162 6 -172 100 -172 l60 0 0 -140 c0
-127 2 -142 20 -160 20 -20 33 -20 780 -20 747 0 760 0 780 20 18 18 20 33 20
160 l0 140 60 0 c94 0 100 10 100 173 0 149 -12 187 -71 244 -49 46 -97 63
-179 63 l-70 0 0 70 c0 82 -17 130 -63 179 -55 57 -97 71 -226 71 l-113 0 7
143 c11 227 43 375 120 548 36 83 37 86 33 194 -3 97 -6 117 -32 170 -38 77
-114 153 -191 190 -52 26 -73 30 -160 33 -79 2 -111 -2 -152 -17z m232 -170
c79 -37 126 -107 140 -207 5 -42 3 -59 -15 -93 -36 -71 -81 -201 -107 -311
-20 -86 -26 -139 -30 -292 l-5 -188 -78 0 -77 0 -6 188 c-4 136 -11 211 -26
275 -24 106 -75 254 -108 321 -21 41 -23 57 -18 100 13 96 61 168 140 209 42
22 140 21 190 -2z m329 -1265 c36 -15 56 -54 56 -112 l0 -34 -480 0 -480 0 0
34 c0 56 20 97 54 112 46 20 802 20 850 0z m320 -320 c36 -15 56 -54 56 -112
l0 -34 -800 0 -800 0 0 34 c0 56 20 97 54 112 47 20 1441 20 1490 0z m-104
-386 l0 -80 -640 0 -640 0 0 80 0 80 640 0 640 0 0 -80z"/>
</g>
</svg>
