<svg width="9" height="6" viewBox="0 0 9 6" fill="none" xmlns="http://www.w3.org/2000/svg">
<path d="M0.422701 0.0179043C0.264188 0.0707419 0.121526 0.197552 0.0422701 0.356065C0.00528376 0.431799 0 0.468785 0 0.629059C0 0.798139 0.0035225 0.822797 0.0493151 0.910859C0.0915851 0.990116 0.475538 1.38287 2.10117 3.01027C3.7638 4.67466 4.12133 5.02338 4.20939 5.07094C4.30978 5.12554 4.32387 5.12906 4.5 5.12906C4.67613 5.12906 4.69022 5.12554 4.79061 5.07094C4.88043 5.02338 5.23444 4.67642 6.90587 3.00147C8.4998 1.40577 8.9225 0.972503 8.95773 0.902053C8.99472 0.826319 9 0.789333 9 0.629059C9 0.459979 8.99472 0.435321 8.94892 0.343736C8.88728 0.22221 8.78513 0.120057 8.65656 0.0531294C8.56849 0.00909808 8.54207 0.00381433 8.38356 0.00381433C8.07534 0.00381433 8.25147 -0.149415 6.25773 1.84256L4.5 3.59677L2.74403 1.84256C0.769667 -0.126518 0.926419 0.00909808 0.642857 0.000291821C0.554795 -0.00146943 0.464971 0.00557558 0.422701 0.0179043Z" fill="#666666"/>
</svg>
