<svg width="14" height="16" viewBox="0 0 14 16" fill="none" xmlns="http://www.w3.org/2000/svg">
<path d="M6.36801 0.0609215C6.07423 0.217187 5.99297 0.410956 5.99297 0.970386V1.37043L5.87733 1.38918C4.12091 1.68608 2.65514 3.01746 2.16447 4.76138C2.03008 5.23018 2.01758 5.38332 1.99258 6.95222C1.9707 8.443 1.96757 8.493 1.88944 8.81178C1.65504 9.7775 1.1925 10.562 0.479928 11.1995C0.0923896 11.5496 -0.0638758 11.9465 0.0236328 12.384C0.0986402 12.7715 0.323662 13.0591 0.679947 13.231L0.883092 13.3279H6.68054H12.478L12.6811 13.231C13.2812 12.9434 13.525 12.259 13.2437 11.6621C13.1749 11.512 13.0655 11.3808 12.753 11.0714C12.0592 10.3838 11.6967 9.74 11.4716 8.81178C11.3935 8.493 11.3904 8.443 11.3685 6.95222C11.3435 5.38332 11.331 5.23018 11.1966 4.76138C10.8559 3.55189 10.0309 2.50804 8.94951 1.90798C8.51197 1.66733 7.96504 1.47356 7.48687 1.3923L7.3681 1.37043V0.976636C7.3681 0.76099 7.35248 0.529718 7.33373 0.464086C7.28685 0.307821 7.13996 0.135929 6.98994 0.0609215C6.83055 -0.0203365 6.52115 -0.0203365 6.36801 0.0609215Z" fill="#666666"/>
<path d="M4.21155 14.0123C4.21155 14.0654 4.35844 14.4842 4.42407 14.6092C4.66472 15.0874 5.07413 15.5031 5.53043 15.7312C5.93047 15.9312 6.22425 16 6.68054 16C7.13684 16 7.43061 15.9312 7.83065 15.7312C8.28695 15.5031 8.69636 15.0874 8.93701 14.6092C9.00264 14.4842 9.14953 14.0654 9.14953 14.0123C9.14953 14.0061 8.04005 13.9998 6.68054 13.9998C5.32416 13.9998 4.21155 14.0061 4.21155 14.0123Z" fill="#666666"/>
</svg>
