<?xml version="1.0" encoding="UTF-8"?>
<svg xmlns="http://www.w3.org/2000/svg" xmlns:xlink="http://www.w3.org/1999/xlink" width="20px" height="20px" viewBox="0 0 20 20" version="1.1">
<g id="surface1">
<path style=" stroke:none;fill-rule:nonzero;fill:rgb(0%,0%,0%);fill-opacity:1;" d="M 7.050781 0.789062 C 6.8125 0.832031 6.796875 0.832031 6.308594 0.796875 C 5.839844 0.765625 5.714844 0.8125 5.421875 1.125 C 5.226562 1.332031 5.136719 1.496094 4.898438 2.050781 C 4.710938 2.496094 4.53125 2.8125 4.34375 3.042969 C 4.015625 3.441406 4.023438 3.414062 4.035156 3.96875 C 4.042969 4.460938 4.039062 4.480469 3.890625 4.902344 C 3.636719 5.628906 3.359375 6.164062 3.066406 6.492188 C 2.699219 6.898438 2.679688 6.941406 2.707031 7.339844 C 2.71875 7.554688 2.707031 7.769531 2.675781 7.929688 C 2.546875 8.546875 2.074219 9.667969 1.769531 10.082031 C 1.53125 10.40625 1.519531 10.441406 1.511719 10.890625 C 1.503906 11.269531 1.484375 11.351562 1.332031 11.796875 C 1.101562 12.453125 0.765625 13.144531 0.449219 13.609375 C 0.117188 14.09375 0.0976562 14.15625 0.152344 14.464844 C 0.1875 14.65625 0.1875 14.800781 0.140625 15.15625 C 0.109375 15.402344 0.0664062 15.65625 0.0429688 15.714844 C -0.0195312 15.875 -0.0078125 16.496094 0.0585938 16.757812 C 0.34375 17.859375 1.308594 18.820312 2.480469 19.167969 C 2.699219 19.234375 3.082031 19.238281 8.417969 19.25 C 12.003906 19.257812 14.238281 19.246094 14.4375 19.222656 C 14.613281 19.199219 14.859375 19.148438 14.980469 19.105469 C 15.578125 18.894531 16.179688 18.375 16.441406 17.835938 C 16.554688 17.609375 17.066406 15.96875 18.289062 11.953125 L 19.980469 6.386719 L 19.980469 5.9375 C 19.980469 5.53125 19.96875 5.464844 19.875 5.265625 C 19.820312 5.144531 19.695312 4.960938 19.605469 4.863281 C 19.445312 4.691406 19.097656 4.453125 19 4.453125 C 18.972656 4.453125 18.949219 4.574219 18.9375 4.773438 C 18.917969 5.0625 18.707031 5.78125 17.09375 11.09375 C 15.738281 15.539062 15.242188 17.121094 15.171875 17.21875 C 15.050781 17.375 14.84375 17.515625 14.613281 17.597656 C 14.464844 17.648438 13.757812 17.65625 8.578125 17.65625 C 2.242188 17.65625 2.421875 17.660156 2.007812 17.449219 C 1.738281 17.3125 1.539062 17.097656 1.441406 16.839844 C 1.339844 16.574219 1.371094 16.394531 1.535156 16.273438 L 1.644531 16.191406 L 7.296875 16.167969 C 11.46875 16.152344 13 16.132812 13.144531 16.101562 C 13.484375 16.019531 13.804688 15.84375 13.953125 15.660156 C 14.144531 15.421875 14.382812 14.9375 14.570312 14.386719 C 14.808594 13.695312 18.03125 3.027344 18.085938 2.742188 C 18.273438 1.796875 17.636719 0.902344 16.6875 0.777344 C 16.335938 0.734375 7.300781 0.742188 7.050781 0.789062 Z M 15.136719 3.964844 C 15.191406 4.015625 15.234375 4.082031 15.234375 4.109375 C 15.234375 4.136719 15.164062 4.375 15.074219 4.636719 C 14.9375 5.050781 14.894531 5.132812 14.773438 5.234375 L 14.628906 5.351562 L 10.824219 5.34375 L 7.015625 5.332031 L 6.957031 5.226562 C 6.898438 5.128906 6.90625 5.09375 7.027344 4.71875 C 7.207031 4.171875 7.277344 4.039062 7.453125 3.949219 C 7.59375 3.871094 7.691406 3.871094 11.320312 3.867188 L 15.042969 3.867188 Z M 14.148438 7.019531 C 14.246094 7.109375 14.238281 7.230469 14.085938 7.683594 C 13.9375 8.140625 13.871094 8.253906 13.699219 8.359375 C 13.578125 8.433594 13.472656 8.4375 9.828125 8.4375 C 6.394531 8.4375 6.074219 8.433594 6.007812 8.371094 C 5.90625 8.277344 5.921875 8.117188 6.078125 7.648438 C 6.195312 7.296875 6.242188 7.210938 6.371094 7.09375 L 6.523438 6.953125 L 10.300781 6.953125 C 13.757812 6.953125 14.082031 6.957031 14.148438 7.019531 Z M 14.148438 7.019531 "/>
</g>
</svg>
