<svg width="25" height="21" viewBox="0 0 25 21" fill="none" xmlns="http://www.w3.org/2000/svg">
<path d="M6.33148 2.23786C3.03086 3.4048 0.291734 4.39596 0.238025 4.44479C-0.0793418 4.72798 -0.0793418 5.31389 0.238025 5.59707C0.291734 5.6459 3.02109 6.64195 6.30707 7.81376C10.7942 9.41037 12.337 9.94257 12.5031 9.94257C12.6691 9.94257 14.168 9.42501 18.6551 7.82841C21.9167 6.67124 24.6362 5.68984 24.6997 5.65078C25.1001 5.39201 25.1001 4.64986 24.6997 4.39108C24.4898 4.25925 12.6593 0.113944 12.4933 0.113944C12.4054 0.118827 9.6321 1.07093 6.33148 2.23786Z" fill="#86A1FF"/>
<path d="M22.8296 7.8333C22.6148 7.91142 22.2779 8.03349 22.0875 8.10184L21.731 8.22879V11.1535V14.0781L21.5113 14.2783C21.1842 14.581 21.0328 14.9326 21.0328 15.372C21.0328 15.6796 21.0524 15.7821 21.1891 16.0507C21.2818 16.246 21.4186 16.4266 21.5357 16.5194L21.7262 16.6708L21.7408 18.5603C21.7555 20.3473 21.7603 20.4596 21.8531 20.6159C21.9947 20.8551 22.1802 20.9723 22.4488 20.9967C22.7369 21.0211 22.9761 20.9088 23.1323 20.6745C23.2446 20.5085 23.2446 20.5036 23.2446 18.5896C23.2446 17.5154 23.2642 16.6659 23.2886 16.6659C23.3862 16.6659 23.7524 16.246 23.8647 15.997C23.9624 15.787 23.9868 15.6503 23.9868 15.3671C23.9868 14.913 23.8403 14.5761 23.4985 14.2685L23.2691 14.0537L23.2446 10.8751L23.2202 7.69171L22.8296 7.8333Z" fill="#86A1FF"/>
<path d="M5.13037 10.6456C5.13037 12.3838 5.13037 12.3936 5.24755 12.6377C5.52586 13.2188 6.27778 13.7119 7.51307 14.122C9.86647 14.8984 13.0743 15.0741 15.75 14.5664C17.8983 14.1562 19.3875 13.4434 19.7586 12.6377C19.8757 12.3985 19.8757 12.3741 19.8757 10.6456C19.8757 9.68866 19.866 8.90257 19.8513 8.90257C19.8416 8.90257 18.6795 9.3127 17.2782 9.81073C12.5324 11.5001 12.7081 11.4464 12.2003 11.3487C12.0539 11.3243 10.4182 10.7628 8.55794 10.1037C6.70256 9.44453 5.16943 8.90257 5.15478 8.90257C5.14014 8.90257 5.13037 9.68866 5.13037 10.6456Z" fill="#86A1FF"/>
</svg>
