<?xml version="1.0" standalone="no"?>
<!DOCTYPE svg PUBLIC "-//W3C//DTD SVG 20010904//EN"
 "http://www.w3.org/TR/2001/REC-SVG-20010904/DTD/svg10.dtd">
<svg version="1.0" xmlns="http://www.w3.org/2000/svg"
 width="512.000000pt" height="512.000000pt" viewBox="0 0 512.000000 512.000000"
 preserveAspectRatio="xMidYMid meet">
<metadata>
Created by potrace 1.16, written by Peter Selinger 2001-2019
</metadata>
<g transform="translate(0.000000,512.000000) scale(0.100000,-0.100000)"
fill="#000000" stroke="none">
<path d="M2215 5025 c-71 -25 -204 -71 -295 -102 -90 -32 -172 -65 -182 -75
-25 -25 -23 -83 2 -108 12 -12 33 -20 54 -20 18 0 159 43 312 96 209 72 292
96 329 96 40 0 272 -77 1110 -367 583 -202 1063 -370 1067 -374 4 -3 -148 -60
-338 -126 -191 -66 -350 -121 -354 -123 -4 -2 -11 14 -15 35 -20 107 -77 153
-220 177 -418 71 -774 100 -1250 100 -444 0 -682 -16 -1090 -75 -213 -31 -273
-45 -312 -75 -39 -29 -72 -93 -73 -138 0 -18 -4 -27 -13 -24 -6 3 -166 59
-355 124 -188 65 -342 121 -342 124 0 3 280 101 623 219 364 125 631 222 645
234 44 41 12 137 -47 137 -11 0 -309 -100 -662 -222 -439 -152 -652 -230 -672
-247 -57 -48 -73 -131 -38 -200 11 -21 30 -45 43 -53 19 -12 798 -288 814
-288 2 0 4 -165 4 -367 l0 -368 -84 -16 c-157 -31 -331 -135 -436 -262 -60
-73 -133 -215 -157 -307 -24 -90 -24 -300 0 -390 40 -150 155 -330 261 -409
25 -19 43 -38 39 -41 -5 -4 -28 -12 -53 -19 -110 -32 -229 -110 -328 -216 -87
-93 -163 -238 -187 -353 -22 -106 -19 -271 5 -368 69 -274 290 -495 564 -564
78 -20 112 -20 2095 -20 1929 0 2018 1 2056 19 50 22 109 86 125 136 8 23 10
63 7 102 -8 103 -71 179 -172 205 -28 7 -53 17 -57 23 -4 5 -17 51 -29 100
-29 122 -29 268 0 389 24 101 33 116 68 116 13 0 41 9 61 19 148 75 179 265
62 381 -47 47 -99 70 -162 70 l-34 0 0 73 c0 55 -5 82 -21 113 -33 62 -96 111
-159 125 l-54 12 -20 65 c-41 133 -45 304 -9 445 12 50 19 56 39 32 31 -37
110 -47 353 -43 215 3 235 5 272 25 79 42 115 103 115 192 0 52 -11 88 -86
272 l-86 212 29 56 c25 50 28 66 28 151 0 81 -4 102 -25 143 -29 58 -86 112
-146 139 l-44 19 0 272 c0 150 -5 288 -10 308 -21 77 12 63 -1152 467 l-1083
376 -100 3 c-97 4 -104 2 -230 -42z m585 -955 c237 -13 451 -34 665 -65 230
-33 266 -41 276 -56 5 -8 9 -128 9 -266 l0 -253 -235 0 c-188 0 -242 -3 -264
-15 -46 -24 -55 -74 -20 -119 l20 -26 250 0 249 0 0 -125 0 -125 -1315 0
-1315 0 0 125 0 125 929 0 930 0 20 26 c35 45 26 95 -20 119 -24 13 -160 15
-944 15 l-915 0 0 260 0 260 23 10 c27 12 303 54 487 74 375 42 813 55 1170
36z m1830 -250 l0 -179 -47 -21 c-111 -49 -177 -153 -178 -280 0 -65 4 -84 33
-141 l32 -66 -25 -57 -25 -56 -255 0 -255 0 0 364 0 364 198 68 c146 51 489
171 520 183 1 1 2 -80 2 -179z m140 -349 c50 -26 80 -74 80 -128 0 -141 -157
-203 -249 -98 -53 61 -50 143 7 198 51 49 106 59 162 28z m115 -613 c41 -103
75 -198 75 -212 0 -50 -25 -56 -251 -56 -194 0 -208 1 -233 21 -14 11 -26 26
-26 32 0 7 35 98 77 204 l78 192 70 -5 c39 -3 84 -1 100 4 17 5 31 8 32 8 1
-1 36 -86 78 -188z m-559 -78 l-31 -79 -1655 -1 c-1455 0 -1663 -2 -1715 -15
-136 -36 -241 -124 -303 -252 -36 -77 -37 -80 -37 -198 0 -118 1 -121 37 -198
62 -128 167 -216 303 -252 48 -12 127 -15 413 -15 l353 0 24 25 c33 32 33 78
0 110 l-24 25 -350 0 c-402 0 -421 3 -505 84 -73 71 -91 115 -91 221 0 106 18
150 91 221 72 70 125 84 314 84 l160 0 0 -220 0 -221 25 -24 c33 -34 60 -32
182 16 l105 41 105 -41 c121 -48 145 -50 178 -16 l25 24 0 221 0 220 1136 0
c1078 0 1136 -1 1129 -17 -50 -131 -50 -445 0 -575 7 -17 -50 -18 -1104 -18
l-1112 0 -24 -25 c-33 -32 -33 -78 0 -110 l24 -25 1206 0 1207 0 29 -29 c37
-37 37 -65 0 -102 l-29 -29 -1697 0 c-1881 0 -1779 -3 -1920 66 -127 62 -228
162 -291 289 -151 305 -21 676 291 829 137 68 34 64 1896 65 l1686 1 -31 -80z
m-2556 -385 c0 -80 -1 -145 -3 -145 -2 0 -31 11 -65 25 -34 14 -70 25 -80 25
-10 0 -46 -11 -80 -25 -34 -14 -64 -25 -67 -25 -3 0 -5 65 -5 145 l0 145 150
0 150 0 0 -145z m2915 -970 c33 -32 33 -74 -1 -106 l-26 -24 -2002 -5 -2002
-5 -75 -37 c-116 -58 -200 -150 -240 -265 -94 -273 79 -567 361 -613 45 -7
539 -10 1573 -8 l1509 3 19 24 c25 30 24 72 -2 104 l-20 27 -1537 2 -1537 3
-50 25 c-199 98 -241 344 -84 498 25 24 66 51 96 62 53 20 79 20 1263 20
l1210 0 0 -220 0 -221 25 -24 c13 -14 35 -25 49 -25 13 0 72 18 130 41 l106
41 103 -41 c119 -48 148 -50 182 -16 l25 24 0 221 0 220 354 0 354 0 -14 -52
c-42 -162 -38 -368 12 -540 5 -17 -9 -18 -205 -18 l-210 0 -20 -26 c-26 -33
-27 -75 -2 -105 l19 -24 312 -5 312 -5 19 -24 c27 -33 24 -73 -7 -102 l-26
-24 -1921 -3 c-1302 -2 -1952 0 -2015 8 -154 17 -276 75 -382 180 -116 117
-170 239 -178 404 -6 132 6 192 60 306 75 158 241 292 413 334 51 12 349 14
2043 15 l1983 1 24 -25z m-1085 -441 c0 -113 -3 -145 -12 -141 -7 2 -42 15
-76 27 l-64 23 -56 -20 c-32 -12 -65 -24 -74 -28 -17 -7 -18 4 -18 139 l0 146
150 0 150 0 0 -146z"/>
</g>
</svg>
