<svg width="24" height="23" viewBox="0 0 24 23" fill="none" xmlns="http://www.w3.org/2000/svg">
<path d="M7.92656 0.0769043C7.19063 0.247803 6.5625 0.921631 6.42188 1.70776C6.39844 1.84937 6.375 2.37183 6.375 2.86499V3.76343H3.68906C0.740625 3.76343 0.754688 3.76343 0.4125 4.0564C0.31875 4.1394 0.1875 4.31519 0.121875 4.45679L0 4.71069V9.67163V14.6326L0.121875 14.8865C0.248438 15.1501 0.510938 15.4187 0.689063 15.4626L0.796875 15.4919V18.5388C0.796875 21.8347 0.7875 21.7322 1.05 22.0886C1.11563 22.1814 1.28438 22.3181 1.41563 22.3962L1.66406 22.5378H12H22.3359L22.5844 22.3962C22.7156 22.3181 22.8844 22.1814 22.95 22.0886C23.2125 21.7322 23.2031 21.8347 23.2031 18.5388V15.4919L23.3109 15.4626C23.4891 15.4187 23.7516 15.1501 23.8781 14.8865L24 14.6326V9.67163V4.71069L23.8781 4.45679C23.8125 4.31519 23.6813 4.1394 23.5875 4.0564C23.2453 3.76343 23.2594 3.76343 20.3109 3.76343H17.625V2.86499C17.625 2.37183 17.6016 1.84937 17.5781 1.70776C17.4328 0.911865 16.8094 0.24292 16.05 0.0769043C15.5859 -0.0256348 8.38125 -0.0256348 7.92656 0.0769043ZM15.9422 0.960693C16.125 1.01929 16.2563 1.10229 16.4109 1.26831C16.7297 1.60034 16.7813 1.82007 16.7813 2.89429V3.76343H16.4063H16.0313V2.90894C16.0313 1.94702 15.9984 1.8103 15.7453 1.71753C15.5344 1.6394 8.46563 1.6394 8.25469 1.71753C8.00156 1.8103 7.96875 1.94702 7.96875 2.90894V3.76343H7.59375H7.21875V2.89429C7.21875 1.84937 7.27031 1.61011 7.56094 1.28784C7.94063 0.86792 7.75313 0.887451 11.9813 0.882568C15.2531 0.882568 15.7172 0.892334 15.9422 0.960693ZM15.1875 3.15308V3.76343H12H8.8125V3.15308V2.54272H12H15.1875V3.15308ZM23.0391 4.7644L23.1563 4.88159V9.64722C23.1563 12.9138 23.1422 14.447 23.1047 14.5105C23.0813 14.5642 23.0063 14.6277 22.9453 14.6521C22.8844 14.6765 20.8313 14.9841 18.3891 15.3308C15.9469 15.6824 13.8797 15.9802 13.8 15.9949L13.6547 16.0193L13.6266 15.5701C13.5656 14.5593 13.1063 14.1638 12 14.1638C11.4563 14.1638 11.1609 14.2322 10.8891 14.4226C10.5609 14.6521 10.4109 14.989 10.3734 15.5701L10.3453 16.0193L10.2 15.9949C10.1203 15.9802 8.05781 15.6824 5.61094 15.3357C3.16875 14.9841 1.12031 14.6765 1.05469 14.6521C0.99375 14.6277 0.91875 14.5642 0.895313 14.5105C0.857813 14.447 0.84375 12.9138 0.84375 9.64722V4.88159L0.960938 4.7644L1.07344 4.64233H12H22.9266L23.0391 4.7644ZM12.5344 15.1111C12.7734 15.2136 12.7969 15.3455 12.7969 16.7126C12.7969 18.0847 12.7734 18.2117 12.5156 18.3093C12.4313 18.3386 12.1969 18.363 12 18.363C11.8031 18.363 11.5688 18.3386 11.4844 18.3093C11.2266 18.2117 11.2031 18.0847 11.2031 16.7126C11.2031 15.3601 11.2266 15.2185 11.4563 15.1111C11.6484 15.0232 12.3328 15.0232 12.5344 15.1111ZM6.01875 16.2878C8.35313 16.6248 10.2797 16.8982 10.3031 16.8982C10.3266 16.8982 10.3547 17.2009 10.3688 17.5671C10.3922 18.324 10.4578 18.5583 10.7391 18.8464C11.0391 19.1589 11.2359 19.2175 12 19.2175C12.7641 19.2175 12.9609 19.1589 13.2609 18.8464C13.5422 18.5583 13.6078 18.324 13.6313 17.5671C13.6453 17.2009 13.6734 16.8982 13.6969 16.8982C13.7203 16.8982 15.6469 16.6248 17.9813 16.2878C20.3156 15.9509 22.2563 15.6775 22.2938 15.6775C22.35 15.6775 22.3594 16.1072 22.3594 18.5291C22.3594 20.0964 22.3453 21.4197 22.3313 21.4636C22.2469 21.6931 22.7203 21.6833 12 21.6833C1.27969 21.6833 1.75313 21.6931 1.66875 21.4636C1.65469 21.4197 1.64063 20.0964 1.64063 18.5291C1.64063 16.1072 1.65 15.6775 1.70625 15.6775C1.74375 15.6775 3.68438 15.9509 6.01875 16.2878Z" fill="#86A1FF"/>
</svg>
