<svg width="25" height="25" viewBox="0 0 25 25" fill="none" xmlns="http://www.w3.org/2000/svg">
<path d="M10.8678 0.0720925C6.30188 0.658087 2.36595 3.78828 0.759351 8.1051C0.412638 9.04269 0.153824 10.1317 0.0512745 11.0888C-0.0170915 11.6992 -0.0170915 13.2912 0.0512745 13.9016C0.583553 18.8239 4.08487 23.0333 8.84608 24.4788C10.062 24.845 11.1168 24.9964 12.4988 24.9964C13.9052 24.9964 14.9111 24.8548 16.1612 24.4739C17.5676 24.049 18.7885 23.4289 19.9946 22.5255C22.739 20.4745 24.5068 17.4371 24.9268 14.0578C25.0244 13.2667 25.0244 11.7236 24.9268 10.9325C24.458 7.15286 22.2898 3.80293 19.0131 1.79101C17.5432 0.887602 15.8096 0.282074 14.0614 0.0672092C13.3045 -0.0255733 11.61 -0.02069 10.8678 0.0720925ZM13.9149 2.07424C14.5888 2.16214 15.6046 2.42095 16.1905 2.64559C17.6799 3.22181 18.808 3.95431 19.9214 5.07258C21.4791 6.62547 22.4363 8.4567 22.866 10.6835C22.9588 11.1767 22.9734 11.4111 22.9734 12.4952C22.9734 13.5793 22.9588 13.8137 22.866 14.3069C22.5388 16.0063 21.8942 17.481 20.8785 18.8435C20.439 19.4392 19.4428 20.4354 18.8471 20.8749C15.7706 23.17 11.8005 23.6486 8.32845 22.1446C7.10763 21.6172 6.04795 20.8944 5.07618 19.9178C3.51841 18.3649 2.5564 16.5288 2.13156 14.3069C2.03877 13.8137 2.02412 13.5793 2.02412 12.4952C2.02412 11.4111 2.03877 11.1767 2.13156 10.6835C2.72243 7.61677 4.44623 5.10188 7.07833 3.48551C9.06094 2.26469 11.527 1.75683 13.9149 2.07424Z" fill="#86A1FF"/>
<path d="M12.1422 6.65476C11.8151 6.74266 11.5269 6.95752 11.3511 7.24075C11.2388 7.4312 11.2046 7.5484 11.19 7.81698C11.1607 8.26136 11.2486 8.53971 11.4879 8.81805C12.0299 9.42846 12.9675 9.43335 13.5047 8.81805C13.7391 8.55436 13.8172 8.31996 13.8172 7.89511C13.8172 7.03565 12.987 6.42036 12.1422 6.65476Z" fill="#86A1FF"/>
<path d="M12.0837 10.537C11.8542 10.6444 11.6491 10.8495 11.5758 11.0448C11.5367 11.1376 11.5221 12.3047 11.5221 14.5999C11.5221 17.857 11.527 18.0279 11.6149 18.1989C11.9518 18.8581 12.9334 18.9021 13.3338 18.2721L13.4754 18.0426V14.6145C13.4754 12.3096 13.4608 11.1376 13.4217 11.0448C13.2996 10.7128 12.8845 10.4442 12.4988 10.4442C12.3767 10.4442 12.1911 10.4881 12.0837 10.537Z" fill="#86A1FF"/>
</svg>
