<svg width="19" height="20" viewBox="0 0 19 20" fill="none" xmlns="http://www.w3.org/2000/svg">
<path d="M8.7824 0.113554C6.15543 1.27203 3.54886 2.07154 1.08097 2.4713C0.722009 2.52841 0.367123 2.58552 0.293698 2.59775C0.220274 2.60999 0.122374 2.65486 0.0775038 2.69973C0 2.77724 0 2.86698 0 6.67282C0 9.12846 0.0163166 10.7193 0.0448706 10.9682C0.465023 14.8719 3.13278 17.813 7.51379 19.208C8.13382 19.4079 8.9007 19.5833 9.13729 19.5833C9.53704 19.5833 10.7975 19.2325 11.7479 18.8613C12.2252 18.6737 13.1389 18.229 13.5387 17.9965C16.2839 16.373 17.9074 13.9378 18.2297 10.9682C18.2583 10.7193 18.2746 9.12846 18.2746 6.67282C18.2746 2.86698 18.2746 2.77724 18.1971 2.69973C18.1522 2.65486 18.0543 2.60999 17.9809 2.59775C17.9074 2.58552 17.5607 2.52841 17.214 2.4713C14.7706 2.06746 12.1355 1.28019 9.84298 0.264483C9.11281 -0.0618489 9.15768 -0.0536906 8.7824 0.113554ZM9.68797 3.9765C11.1646 4.06625 12.7392 4.92695 13.7345 6.19148C14.5585 7.23982 14.9705 8.43909 14.9705 9.79337C14.9705 10.7193 14.8032 11.4699 14.4239 12.2612C13.9629 13.2239 13.4041 13.9011 12.5475 14.5333C12.1395 14.8393 11.2748 15.2635 10.7893 15.4022C9.78587 15.6877 8.67634 15.7081 7.69735 15.4593C5.46198 14.8882 3.7365 12.9996 3.36529 10.7112C3.28779 10.238 3.28779 9.34466 3.36529 8.87556C3.74873 6.52597 5.48645 4.6618 7.81156 4.09888C8.21948 4.00098 8.97412 3.9194 9.21887 3.94387C9.27598 3.95203 9.48809 3.96427 9.68797 3.9765Z" fill="#86A1FF"/>
<path d="M7.94217 6.57899C7.81572 6.67689 7.79124 6.85637 7.79124 7.67628V8.48803H6.93054C6.42881 8.48803 6.04129 8.50434 5.99642 8.52882C5.86589 8.59817 5.83325 8.83883 5.83325 9.79335C5.83325 10.7479 5.86589 10.9885 5.99642 11.0579C6.04129 11.0824 6.42881 11.0987 6.93054 11.0987H7.79124V11.8819C7.79124 12.7099 7.82795 12.9465 7.95441 13.0159C7.99928 13.0404 8.47654 13.0567 9.15368 13.0567C10.2265 13.0567 10.2836 13.0526 10.3611 12.9751C10.4386 12.8976 10.4427 12.8405 10.4427 11.9961V11.0987H11.3238C11.8378 11.0987 12.2334 11.0824 12.2783 11.0579C12.4088 10.9885 12.4415 10.7479 12.4415 9.79335C12.4415 8.83883 12.4088 8.59817 12.2783 8.52882C12.2334 8.50434 11.8378 8.48803 11.3238 8.48803H10.4427V7.59062C10.4427 6.74623 10.4386 6.68913 10.3611 6.61162C10.2836 6.53412 10.2265 6.53004 9.14552 6.53004C8.30113 6.53004 7.9952 6.54228 7.94217 6.57899Z" fill="#86A1FF"/>
</svg>
