<svg width="19" height="21" viewBox="0 0 19 21" fill="none" xmlns="http://www.w3.org/2000/svg">
<path d="M8.7824 0.613554C6.15543 1.77203 3.54886 2.57154 1.08097 2.9713C0.722009 3.02841 0.367123 3.08552 0.293698 3.09775C0.220274 3.10999 0.122374 3.15486 0.0775038 3.19973C0 3.27724 0 3.36698 0 7.17282C0 9.62846 0.0163166 11.2193 0.0448706 11.4682C0.465023 15.3719 3.13278 18.313 7.51379 19.708C8.13382 19.9079 8.9007 20.0833 9.13729 20.0833C9.53704 20.0833 10.7975 19.7325 11.7479 19.3613C12.2252 19.1737 13.1389 18.729 13.5387 18.4965C16.2839 16.873 17.9074 14.4378 18.2297 11.4682C18.2583 11.2193 18.2746 9.62846 18.2746 7.17282C18.2746 3.36698 18.2746 3.27724 18.1971 3.19973C18.1522 3.15486 18.0543 3.10999 17.9809 3.09775C17.9074 3.08552 17.5607 3.02841 17.214 2.9713C14.7706 2.56746 12.1355 1.78019 9.84298 0.764483C9.11281 0.438151 9.15768 0.446309 8.7824 0.613554ZM9.68797 4.4765C11.1646 4.56625 12.7392 5.42695 13.7345 6.69148C14.5585 7.73982 14.9705 8.93909 14.9705 10.2934C14.9705 11.2193 14.8032 11.9699 14.4239 12.7612C13.9629 13.7239 13.4041 14.4011 12.5475 15.0333C12.1395 15.3393 11.2748 15.7635 10.7893 15.9022C9.78587 16.1877 8.67634 16.2081 7.69735 15.9593C5.46198 15.3882 3.7365 13.4996 3.36529 11.2112C3.28779 10.738 3.28779 9.84466 3.36529 9.37556C3.74873 7.02597 5.48645 5.1618 7.81156 4.59888C8.21948 4.50098 8.97412 4.4194 9.21887 4.44387C9.27598 4.45203 9.48809 4.46427 9.68797 4.4765Z" fill="white"/>
<path d="M7.94211 7.07902C7.81566 7.17692 7.79118 7.3564 7.79118 8.17631V8.98806H6.93048C6.42875 8.98806 6.04123 9.00438 5.99636 9.02885C5.86582 9.0982 5.83319 9.33887 5.83319 10.2934C5.83319 11.2479 5.86582 11.4886 5.99636 11.5579C6.04123 11.5824 6.42875 11.5987 6.93048 11.5987H7.79118V12.3819C7.79118 13.21 7.82789 13.4466 7.95435 13.5159C7.99922 13.5404 8.47648 13.5567 9.15362 13.5567C10.2264 13.5567 10.2835 13.5526 10.361 13.4751C10.4385 13.3976 10.4426 13.3405 10.4426 12.4961V11.5987H11.3237C11.8377 11.5987 12.2334 11.5824 12.2782 11.5579C12.4088 11.4886 12.4414 11.2479 12.4414 10.2934C12.4414 9.33887 12.4088 9.0982 12.2782 9.02885C12.2334 9.00438 11.8377 8.98806 11.3237 8.98806H10.4426V8.09065C10.4426 7.24626 10.4385 7.18916 10.361 7.11165C10.2835 7.03415 10.2264 7.03007 9.14546 7.03007C8.30107 7.03007 7.99514 7.04231 7.94211 7.07902Z" fill="white"/>
</svg>
