<svg width="25" height="19" viewBox="0 0 25 19" fill="none" xmlns="http://www.w3.org/2000/svg">
<path d="M1.8125 0.0954788C0.989583 0.361104 0.354167 0.99652 0.104167 1.80902C0 2.13715 0 2.30902 0 9.21527C0 16.0955 0.00520833 16.2986 0.104167 16.6163C0.354167 17.434 1 18.0799 1.8125 18.3299C2.14063 18.434 2.31771 18.434 12.5 18.434C22.6458 18.434 22.8594 18.434 23.1823 18.3299C24 18.0799 24.6458 17.434 24.8958 16.6215C25 16.2934 25 16.1215 25 9.21527C25 2.30902 25 2.13715 24.8958 1.80902C24.6458 0.99652 24 0.350687 23.1823 0.100687C22.8594 -0.00347955 22.6458 -0.00347955 12.4792 0.00172878C2.59375 0.00172878 2.09375 0.00693711 1.8125 0.0954788ZM22.8646 1.13715C23.3333 1.32465 23.7031 1.69965 23.8594 2.15798C23.9688 2.47048 23.9688 15.9601 23.8594 16.2726C23.6927 16.7465 23.3125 17.1267 22.8385 17.2934C22.526 17.4028 2.47396 17.4028 2.16146 17.2934C1.70313 17.1371 1.32813 16.7674 1.14063 16.2986C1.07813 16.1476 1.06771 15.0382 1.05208 9.44965C1.04167 5.38715 1.05729 2.65798 1.08854 2.46006C1.15104 2.0486 1.27604 1.7934 1.53646 1.53298C1.78125 1.28819 2.04688 1.14756 2.39063 1.09027C2.52083 1.06944 7.14063 1.05381 12.6563 1.05902C21.1458 1.06423 22.7083 1.07465 22.8646 1.13715Z" fill="#36E1E8"/>
<path d="M6.90112 3.64755C6.44278 3.7413 5.90633 4.03818 5.54695 4.39234C5.15633 4.78297 4.92716 5.22568 4.80737 5.81422C4.58862 6.87151 5.06778 7.98609 6.01049 8.60068C6.4532 8.88714 6.88549 9.00693 7.47403 9.00693C8.06258 9.00693 8.49487 8.88714 8.93758 8.60068C10.823 7.37151 10.4845 4.48089 8.35945 3.74651C7.99487 3.6163 7.28133 3.56943 6.90112 3.64755ZM8.13028 4.84547C8.47403 4.99651 8.86987 5.4288 8.98966 5.78818C9.19278 6.40276 9.05216 6.9913 8.59903 7.44964C7.96362 8.08505 7.05216 8.10068 6.38549 7.4913C6.02091 7.15797 5.86466 6.81422 5.86466 6.32464C5.85945 5.15276 7.04174 4.38193 8.13028 4.84547Z" fill="#36E1E8"/>
<path d="M14.7031 5.45485C14.4583 5.64235 14.4479 6.0434 14.6719 6.27256L14.8073 6.40277H18.0833H21.3594L21.4844 6.27777C21.7187 6.0434 21.7187 5.72048 21.4844 5.4861L21.3594 5.3611H18.0885C15.0677 5.3611 14.8073 5.37152 14.7031 5.45485Z" fill="#36E1E8"/>
<path d="M14.7031 8.78817C14.4583 8.97567 14.4479 9.37671 14.6719 9.60588L14.8073 9.73608H18.0833H21.3594L21.4844 9.61108C21.7187 9.37671 21.7187 9.05379 21.4844 8.81942L21.3594 8.69442H18.0885C15.0677 8.69442 14.8073 8.70483 14.7031 8.78817Z" fill="#36E1E8"/>
<path d="M6.45839 10.1007C5.95839 10.2257 5.6511 10.3559 5.2136 10.6424C4.30214 11.2309 3.64068 12.2049 3.41672 13.2934C3.32297 13.7465 3.30735 14.434 3.38547 14.5851C3.5261 14.8455 3.47922 14.8403 7.43755 14.8403C9.93756 14.8403 11.1823 14.8247 11.2917 14.783C11.5365 14.6997 11.6146 14.533 11.6146 14.1111C11.6146 13.4184 11.3907 12.6268 11.0001 11.9497C10.9011 11.7778 10.6042 11.4236 10.3386 11.158C9.92193 10.7413 9.79172 10.6528 9.31776 10.4236C9.02089 10.2778 8.60943 10.1215 8.4011 10.0799C7.88547 9.96529 6.9636 9.97571 6.45839 10.1007ZM8.20318 11.1684C9.21881 11.434 10.0938 12.2778 10.3855 13.2726C10.5417 13.7986 10.8803 13.7465 7.45318 13.7465H4.43755L4.51047 13.4288C4.75526 12.3872 5.67193 11.4497 6.7188 11.1736C7.09901 11.0747 7.82297 11.0695 8.20318 11.1684Z" fill="#36E1E8"/>
<path d="M14.7031 12.1215C14.4583 12.309 14.4479 12.7101 14.6719 12.9392L14.8073 13.0695H18.0833H21.3594L21.4844 12.9445C21.7187 12.7101 21.7187 12.3872 21.4844 12.1528L21.3594 12.0278H18.0885C15.0677 12.0278 14.8073 12.0382 14.7031 12.1215Z" fill="#36E1E8"/>
</svg>
