<?xml version="1.0" encoding="UTF-8"?>
<svg xmlns="http://www.w3.org/2000/svg" xmlns:xlink="http://www.w3.org/1999/xlink" width="16px" height="16px" viewBox="0 0 16 16" version="1.1">
<g id="surface1">
<path style=" stroke:none;fill-rule:nonzero;fill:rgb(0%,0%,0%);fill-opacity:1;" d="M 2.71875 0.0429688 C 2.375 0.171875 2.164062 0.429688 2.039062 0.875 C 1.988281 1.070312 1.984375 1.449219 1.984375 8 C 1.984375 14.542969 1.988281 14.933594 2.039062 15.125 C 2.117188 15.398438 2.207031 15.570312 2.363281 15.730469 C 2.71875 16.101562 3.394531 16.089844 4.050781 15.695312 C 4.390625 15.492188 13.0625 9.558594 13.304688 9.367188 C 13.824219 8.945312 14.089844 8.347656 14 7.773438 C 13.9375 7.347656 13.660156 6.898438 13.289062 6.617188 C 12.898438 6.320312 4.171875 0.363281 3.953125 0.242188 C 3.621094 0.0703125 3.378906 0 3.078125 0.00390625 C 2.941406 0.00390625 2.777344 0.0234375 2.71875 0.0429688 Z M 2.71875 0.0429688 "/>
</g>
</svg>
