<svg width="25" height="21" viewBox="0 0 25 21" fill="none" xmlns="http://www.w3.org/2000/svg">
<path d="M2.08008 0.160159C1.20605 0.326175 0.361328 1.08789 0.0976562 1.94727C0.00976562 2.23047 0 2.40137 0 3.66114V5.0625L0.136719 5.19922C0.317383 5.36524 0.571289 5.40918 0.771484 5.30664C1.04004 5.16993 1.0498 5.1211 1.07422 3.66602C1.09863 2.32325 1.09863 2.32325 1.23047 2.07422C1.30371 1.9375 1.47461 1.72266 1.61133 1.60059C2.0166 1.23926 2.13379 1.20996 3.56445 1.19043C4.24805 1.18067 4.8584 1.16114 4.92188 1.14649C5.1709 1.09278 5.3125 0.589847 5.14648 0.355472C4.98047 0.116214 4.87793 0.101565 3.55469 0.106448C2.87598 0.111331 2.21191 0.130862 2.08008 0.160159Z" fill="#36E1E8"/>
<path d="M20.0342 0.199222C19.9512 0.24805 19.8536 0.335941 19.8292 0.389652C19.6973 0.633792 19.8487 1.09766 20.0782 1.14649C20.1417 1.16114 20.752 1.18067 21.4356 1.19043C22.8663 1.20996 22.9835 1.23926 23.3887 1.60059C23.5255 1.72266 23.6963 1.9375 23.7696 2.07422C23.9014 2.32325 23.9014 2.32325 23.9258 3.66602C23.9503 5.1211 23.96 5.16993 24.2286 5.30664C24.4288 5.40918 24.6827 5.36524 24.8633 5.19922L25.0001 5.0625V3.69043C25.0001 1.87403 24.9317 1.625 24.2725 0.916995C23.9112 0.536136 23.379 0.243167 22.8809 0.155276C22.7198 0.12598 22.0508 0.101565 21.3917 0.101565C20.2881 0.101565 20.1758 0.111331 20.0342 0.199222Z" fill="#36E1E8"/>
<path d="M11.4014 4.33008C10.835 4.41309 10.1025 4.5791 9.64355 4.72559C7.10449 5.54102 5.09766 7.47949 4.32617 9.85742C4.22852 10.1553 4.15039 10.4678 4.15039 10.5508C4.15039 10.8047 4.49219 11.7666 4.79004 12.3525C5.88867 14.5205 8.02246 16.083 10.6396 16.6396C11.2109 16.7617 11.3428 16.7715 12.4756 16.7764C13.5645 16.7764 13.7549 16.7617 14.2578 16.6641C16.9189 16.1221 19.0967 14.5498 20.21 12.3525C20.5078 11.7666 20.8496 10.8047 20.8496 10.5508C20.8496 10.4678 20.7715 10.1553 20.6738 9.85742C19.79 7.12793 17.3584 5.06738 14.2822 4.44238C13.8379 4.35449 13.5547 4.33496 12.6465 4.32031C12.041 4.31543 11.4844 4.32031 11.4014 4.33008ZM13.4766 5.42383C14.4629 5.5459 15.5908 5.91211 16.4111 6.37598C17.9443 7.24512 19.1455 8.6709 19.6338 10.1943L19.7461 10.5508L19.6338 10.9023C19.3604 11.7568 18.8135 12.6602 18.1494 13.3682C15.1709 16.5127 9.8291 16.5127 6.85059 13.3682C6.18652 12.6602 5.63965 11.7568 5.36621 10.9023L5.25391 10.5508L5.36621 10.1943C5.95703 8.34863 7.54883 6.71289 9.5166 5.93652C10.0488 5.72656 10.9229 5.49707 11.4355 5.43359C11.9385 5.37012 12.9883 5.36524 13.4766 5.42383Z" fill="#36E1E8"/>
<path d="M11.6455 7.51855C10.5908 7.82129 9.72168 8.70508 9.45312 9.75C9.35059 10.1455 9.35059 10.9561 9.45312 11.3516C9.73145 12.4258 10.6641 13.3535 11.7236 13.6025C12.124 13.6953 12.876 13.6953 13.2764 13.6025C14.0869 13.4121 14.8828 12.7871 15.2686 12.04C15.5371 11.5176 15.625 11.1562 15.625 10.5508C15.625 9.94531 15.5371 9.58398 15.2686 9.06152C14.8877 8.32422 14.1162 7.71386 13.3008 7.5039C12.8906 7.39648 12.0361 7.40625 11.6455 7.51855ZM13.2324 8.6416C14.0527 8.95898 14.5996 9.80371 14.541 10.6631C14.4775 11.5469 13.916 12.2549 13.0713 12.5137C12.2461 12.7627 11.3281 12.4355 10.8252 11.7227C10.0391 10.5947 10.5713 9.02734 11.8896 8.59765C12.2705 8.4707 12.8467 8.49023 13.2324 8.6416Z" fill="#36E1E8"/>
<path d="M0.341797 15.7607C0.302734 15.7754 0.209961 15.8437 0.136719 15.9121L0 16.0391V17.4404C0 18.7002 0.00976562 18.8711 0.0976562 19.1543C0.366211 20.0332 1.21094 20.7803 2.11914 20.9463C2.28027 20.9756 2.94434 21 3.59863 21C4.87305 21 4.98047 20.9805 5.14648 20.7461C5.3125 20.5117 5.1709 20.0088 4.92188 19.9551C4.8584 19.9404 4.24805 19.9209 3.56445 19.9111C2.13379 19.8916 2.0166 19.8623 1.61133 19.501C1.47461 19.3789 1.30371 19.1641 1.23047 19.0273C1.09863 18.7783 1.09863 18.7783 1.07422 17.4355C1.05469 16.4736 1.03027 16.0635 0.986328 15.9853C0.874023 15.7852 0.561523 15.6777 0.341797 15.7607Z" fill="#36E1E8"/>
<path d="M24.209 15.7998C23.9599 15.9365 23.9502 16 23.9258 17.4355C23.9014 18.7783 23.9014 18.7783 23.7695 19.0273C23.6963 19.1641 23.5254 19.3789 23.3887 19.501C22.9834 19.8623 22.8662 19.8916 21.4355 19.9111C20.7519 19.9209 20.1416 19.9404 20.0781 19.9551C19.8291 20.0088 19.6875 20.5117 19.8535 20.7461C20.0195 20.9805 20.1269 21 21.4014 21C22.0556 21 22.7197 20.9756 22.8808 20.9463C23.3789 20.8584 23.9111 20.5654 24.2724 20.1846C24.9316 19.4766 25 19.2275 25 17.4111V16.0391L24.8584 15.9023C24.6875 15.7363 24.3994 15.6924 24.209 15.7998Z" fill="#36E1E8"/>
</svg>
