<?xml version="1.0" standalone="no"?>
<!DOCTYPE svg PUBLIC "-//W3C//DTD SVG 20010904//EN"
 "http://www.w3.org/TR/2001/REC-SVG-20010904/DTD/svg10.dtd">
<svg version="1.0" xmlns="http://www.w3.org/2000/svg"
 width="512.000000pt" height="512.000000pt" viewBox="0 0 512.000000 512.000000"
 preserveAspectRatio="xMidYMid meet">
<metadata>
Created by potrace 1.16, written by Peter Selinger 2001-2019
</metadata>
<g transform="translate(0.000000,512.000000) scale(0.100000,-0.100000)"
fill="#000000" stroke="none">
<path d="M1374 5096 c-65 -30 -120 -85 -150 -150 -22 -48 -24 -62 -24 -237 l0
-186 -147 -6 c-183 -7 -290 -34 -448 -112 -277 -138 -489 -397 -572 -700 -26
-92 -28 -114 -28 -285 0 -171 2 -193 28 -285 83 -303 295 -562 572 -700 158
-78 265 -105 448 -112 l147 -6 0 -1046 0 -1046 24 -51 c30 -65 85 -120 150
-150 l51 -24 1735 0 1735 0 51 24 c65 30 120 85 150 150 l24 51 0 1925 0 1925
-523 522 -522 523 -1325 0 -1325 0 -51 -24z m2546 -650 l0 -473 26 -27 27 -26
473 0 474 0 -2 -1822 c-3 -1980 1 -1849 -57 -1880 -36 -19 -3366 -19 -3402 0
-57 30 -54 -30 -57 1098 l-2 1041 42 12 c24 7 80 30 126 52 294 136 510 395
599 715 26 92 28 113 28 284 0 171 -2 192 -28 284 -89 320 -305 579 -599 715
-46 22 -102 45 -125 52 l-43 12 0 157 c0 87 3 171 6 189 7 36 46 78 77 84 12
2 565 5 1230 6 l1207 1 0 -474z m525 -6 l320 -320 -323 0 -322 0 0 320 c0 176
1 320 3 320 1 0 146 -144 322 -320z m-3445 -599 l0 -468 26 -27 27 -26 468 0
469 0 -6 -32 c-67 -381 -333 -660 -708 -743 -106 -24 -308 -16 -416 15 -294
84 -537 326 -620 620 -31 107 -38 299 -16 411 60 296 263 543 539 654 65 27
180 59 230 64 4 1 7 -210 7 -468z m316 444 c348 -88 604 -370 668 -732 l6 -33
-395 0 -395 0 0 395 c0 218 4 395 9 395 5 0 53 -11 107 -25z"/>
<path d="M2486 4494 c-21 -21 -26 -36 -26 -74 0 -38 5 -53 26 -74 l27 -26 577
0 577 0 27 26 c21 21 26 36 26 74 0 38 -5 53 -26 74 l-27 26 -577 0 -577 0
-27 -26z"/>
<path d="M2486 4094 c-21 -21 -26 -36 -26 -74 0 -38 5 -53 26 -74 l27 -26 577
0 577 0 27 26 c21 21 26 36 26 74 0 38 -5 53 -26 74 l-27 26 -577 0 -577 0
-27 -26z"/>
<path d="M2426 3494 c-21 -21 -26 -36 -26 -74 0 -38 5 -53 26 -74 21 -21 36
-26 74 -26 38 0 53 5 74 26 21 21 26 36 26 74 0 38 -5 53 -26 74 -21 21 -36
26 -74 26 -38 0 -53 -5 -74 -26z"/>
<path d="M2826 3494 c-21 -21 -26 -36 -26 -74 0 -38 5 -53 26 -74 l27 -26 807
0 807 0 27 26 c21 21 26 36 26 74 0 38 -5 53 -26 74 l-27 26 -807 0 -807 0
-27 -26z"/>
<path d="M2426 3094 c-21 -21 -26 -36 -26 -74 0 -38 5 -53 26 -74 21 -21 36
-26 74 -26 38 0 53 5 74 26 21 21 26 36 26 74 0 38 -5 53 -26 74 -21 21 -36
26 -74 26 -38 0 -53 -5 -74 -26z"/>
<path d="M2826 3094 c-21 -21 -26 -36 -26 -74 0 -38 5 -53 26 -74 l27 -26 807
0 807 0 27 26 c21 21 26 36 26 74 0 38 -5 53 -26 74 l-27 26 -807 0 -807 0
-27 -26z"/>
<path d="M4264 2436 c-65 -30 -120 -85 -150 -150 -32 -68 -33 -176 -3 -246
l21 -49 -343 -368 -344 -368 -73 3 c-40 2 -86 -1 -102 -6 -28 -10 -30 -8 -182
181 -153 190 -154 192 -142 222 23 52 17 173 -10 231 -52 112 -151 174 -276
174 -127 0 -225 -63 -277 -177 -22 -48 -24 -63 -20 -136 3 -45 7 -92 9 -104 4
-30 -339 -407 -362 -396 -8 3 -52 8 -97 11 -71 3 -89 1 -136 -21 -114 -52
-177 -150 -177 -277 0 -176 124 -300 300 -300 127 0 225 63 277 177 22 48 24
63 20 136 -3 45 -7 92 -9 104 -4 30 339 407 362 397 27 -13 169 -16 199 -6 29
10 30 10 183 -181 153 -190 154 -192 142 -222 -23 -52 -17 -173 10 -231 52
-112 151 -174 276 -174 125 0 224 62 276 174 32 68 33 176 3 246 l-21 49 343
368 344 368 77 -3 c66 -3 86 0 131 21 114 52 177 151 177 277 0 176 -124 300
-300 300 -58 0 -87 -6 -126 -24z m190 -212 c57 -58 17 -154 -64 -154 -27 0
-45 7 -64 26 -57 58 -17 154 64 154 27 0 45 -7 64 -26z m-1730 -400 c57 -58
17 -154 -64 -154 -27 0 -45 7 -64 26 -57 58 -17 154 64 154 27 0 45 -7 64 -26z
m-760 -800 c57 -58 17 -154 -64 -154 -51 0 -90 39 -90 90 0 81 96 121 154 64z
m1460 0 c57 -58 17 -154 -64 -154 -51 0 -90 39 -90 90 0 81 96 121 154 64z"/>
<path d="M425 3493 c-27 -28 -27 -29 -22 -128 9 -176 70 -309 201 -441 132
-131 265 -192 441 -201 99 -5 100 -5 128 22 22 22 27 37 27 75 0 67 -31 97
-108 104 -149 15 -244 58 -337 151 -93 93 -136 188 -151 337 -7 77 -37 108
-104 108 -38 0 -53 -5 -75 -27z"/>
</g>
</svg>
