<?xml version="1.0" standalone="no"?>
<!DOCTYPE svg PUBLIC "-//W3C//DTD SVG 20010904//EN"
 "http://www.w3.org/TR/2001/REC-SVG-20010904/DTD/svg10.dtd">
<svg version="1.0" xmlns="http://www.w3.org/2000/svg"
 width="512.000000pt" height="512.000000pt" viewBox="0 0 512.000000 512.000000"
 preserveAspectRatio="xMidYMid meet">
<metadata>
Created by potrace 1.16, written by Peter Selinger 2001-2019
</metadata>
<g transform="translate(0.000000,512.000000) scale(0.100000,-0.100000)"
fill="#000000" stroke="none">
<path d="M632 5100 c-18 -11 -41 -34 -52 -52 -20 -33 -20 -56 -20 -2328 0
-2272 0 -2295 20 -2328 36 -59 71 -72 193 -72 l107 0 0 -107 c0 -122 13 -157
72 -193 33 -20 54 -20 1768 -20 1714 0 1735 0 1768 20 18 11 41 34 52 52 20
33 20 56 20 2328 0 2272 0 2295 -20 2328 -39 64 -65 72 -251 72 -183 0 -192
-3 -205 -67 -4 -23 0 -36 19 -59 l25 -29 136 -3 136 -4 0 -2244 0 -2244 -1680
0 -1680 0 0 85 0 85 1548 0 c1526 0 1547 0 1580 20 64 39 72 66 72 246 0 143
-2 164 -19 185 -27 34 -86 32 -117 -5 -23 -25 -24 -35 -24 -157 l0 -129 -1680
0 -1680 0 0 2245 0 2245 1264 0 c695 0 1271 -3 1280 -6 14 -5 16 -45 16 -338
0 -324 1 -333 23 -376 42 -84 43 -85 434 -88 l343 -3 2 -1580 3 -1581 24 -19
c31 -25 85 -25 111 1 20 20 20 33 20 1625 l0 1604 -21 58 c-20 54 -47 84 -393
430 -244 244 -386 379 -416 395 l-45 23 -1350 3 c-1334 2 -1350 2 -1383 -18z
m3078 -515 l265 -265 -268 0 -267 0 0 265 c0 146 1 265 3 265 1 0 121 -119
267 -265z"/>
<path d="M1600 4304 c-229 -61 -405 -239 -465 -469 -19 -76 -19 -221 1 -305
50 -213 230 -401 444 -464 249 -73 536 23 690 232 148 200 169 442 59 672 -32
68 -56 99 -122 165 -135 132 -266 186 -452 184 -55 0 -125 -7 -155 -15z m303
-165 c239 -80 382 -331 322 -564 -18 -71 -55 -147 -94 -195 l-29 -34 -38 33
c-91 80 -253 124 -379 103 -78 -13 -183 -59 -233 -103 l-36 -32 -29 34 c-64
76 -107 195 -107 299 0 211 136 396 338 461 81 26 205 25 285 -2z m-4 -846
c30 -16 54 -32 54 -38 1 -22 -98 -48 -188 -49 -95 -1 -209 26 -202 48 2 6 19
20 37 30 90 53 206 56 299 9z"/>
<path d="M1652 3979 c-178 -88 -175 -347 5 -435 53 -26 155 -24 208 3 137 72
175 245 80 368 -59 78 -201 109 -293 64z m158 -159 c44 -44 31 -109 -26 -130
-35 -14 -39 -13 -73 16 -39 33 -41 74 -6 109 30 31 77 33 105 5z"/>
<path d="M2661 3894 c-39 -49 -18 -115 41 -129 13 -3 229 -4 481 -3 l459 3 19
24 c26 32 25 82 -4 109 -23 22 -24 22 -499 22 l-477 0 -20 -26z"/>
<path d="M2665 3495 c-30 -29 -32 -74 -6 -106 l19 -24 396 -3 396 -3 25 25
c33 33 34 84 2 114 -23 22 -27 22 -416 22 l-392 0 -24 -25z"/>
<path d="M1146 2779 c-20 -16 -26 -29 -26 -59 0 -30 6 -43 26 -59 27 -21 28
-21 1254 -21 1226 0 1227 0 1254 21 37 29 37 89 0 118 -27 21 -28 21 -1254 21
-1226 0 -1227 0 -1254 -21z"/>
<path d="M1146 2379 c-20 -16 -26 -29 -26 -59 0 -30 6 -43 26 -59 27 -21 29
-21 1096 -21 l1069 0 24 25 c16 15 25 36 25 55 0 19 -9 40 -25 55 l-24 25
-1069 0 c-1067 0 -1069 0 -1096 -21z"/>
<path d="M1146 1979 c-35 -27 -36 -86 -3 -117 l23 -22 793 0 792 0 24 25 c16
15 25 36 25 55 0 19 -9 40 -25 55 l-24 25 -789 0 c-783 0 -790 0 -816 -21z"/>
<path d="M1145 1576 c-33 -33 -34 -84 -2 -114 l23 -22 1075 0 1076 0 21 23
c27 29 28 77 3 108 l-19 24 -1076 3 -1077 2 -24 -24z"/>
</g>
</svg>
