<svg width="17" height="18" viewBox="0 0 17 18" fill="none" xmlns="http://www.w3.org/2000/svg">
<path d="M8.06659 0.78994C7.71572 0.904583 7.40653 1.18251 7.22935 1.54033C7.13555 1.7314 7.13555 1.73835 7.13555 2.46095V3.1905L7.2363 3.40936C7.30578 3.56222 7.40305 3.68728 7.55939 3.83319L7.78172 4.04163L7.47601 4.18059C7.30926 4.2605 6.99312 4.40293 6.77425 4.50368C6.28094 4.72602 6.02734 4.94488 5.86058 5.28534L5.74594 5.5181L5.73552 7.01888L5.7251 8.52313H6.00302H6.28094L6.29136 7.1231C6.30179 5.7578 6.30179 5.72306 6.37822 5.56673C6.42338 5.47988 6.50328 5.36524 6.55886 5.31313C6.61445 5.26102 7.07302 5.02478 7.5837 4.78855L8.51127 4.36124L9.43536 4.79202C9.94604 5.02826 10.4046 5.26449 10.4602 5.3166C10.5123 5.36871 10.5922 5.47988 10.6374 5.56673C10.7138 5.72306 10.7138 5.7578 10.7242 7.1231L10.7346 8.52313H11.0126H11.2905L11.2801 7.01888L11.2696 5.5181L11.155 5.28534C10.9883 4.94141 10.7346 4.72602 10.2413 4.50368C10.0225 4.40293 9.70634 4.25702 9.53958 4.18059L9.23734 4.03816L9.44578 3.84709C9.58474 3.71507 9.68897 3.57611 9.76539 3.42326L9.88004 3.1905V2.46095V1.7314L9.77929 1.52296C9.64728 1.25546 9.38325 0.991434 9.11575 0.862895C8.9351 0.77257 8.86562 0.758674 8.55991 0.751726C8.33757 0.744778 8.16039 0.758674 8.06659 0.78994ZM8.84825 1.3979C9.02543 1.48822 9.16439 1.63413 9.25124 1.81825C9.31377 1.95374 9.32419 2.03712 9.32419 2.47832C9.32072 3.03069 9.2964 3.13491 9.10533 3.3503C9.04974 3.41631 8.88994 3.524 8.75445 3.59001L8.5078 3.70813L8.28893 3.60043C8.00059 3.458 7.86857 3.34335 7.7713 3.14533C7.69835 2.99595 7.6914 2.93689 7.6914 2.47832C7.6914 2.04059 7.70182 1.95374 7.76435 1.81825C7.84773 1.6376 7.98669 1.49169 8.16039 1.3979C8.32715 1.31104 8.67455 1.31104 8.84825 1.3979Z" fill="white"/>
<path d="M3.14039 2.47485C3.06396 2.50959 2.95279 2.59296 2.89026 2.6555C2.66098 2.89868 2.6714 2.74929 2.6714 5.77865V8.52313H2.94932H3.22724V5.90024C3.22724 3.0029 3.22029 3.07933 3.43568 3.0029C3.51559 2.97858 4.0228 2.96468 5.05458 2.96468H6.56231V2.68676V2.40884H4.92257C3.39747 2.40884 3.26893 2.41579 3.14039 2.47485Z" fill="white"/>
<path d="M10.4532 2.68676V2.96468H11.9645C13.6459 2.96468 13.6771 2.96816 13.7501 3.17313C13.7779 3.2565 13.7883 4.04163 13.7883 5.90371V8.52313H14.0662H14.3442V5.77865C14.3442 2.74929 14.3546 2.89868 14.1253 2.65549C13.8891 2.40536 13.9273 2.40884 12.0965 2.40884H10.4532V2.68676Z" fill="white"/>
<path d="M6.84027 6.85553V7.96722H7.11819H7.39612V6.85553V5.74384H7.11819H6.84027V6.85553Z" fill="white"/>
<path d="M9.61951 6.85553V7.96722H9.89743H10.1754V6.85553V5.74384H9.89743H9.61951V6.85553Z" fill="white"/>
<path d="M7.70877 8.3112C6.68045 8.54049 5.81889 9.11718 5.26305 9.95789C5.06156 10.2601 4.77669 10.8611 4.79753 10.9271C4.81143 10.9688 5.31169 11.1321 5.35337 11.1078C5.36727 11.0974 5.38117 11.0696 5.38117 11.0453C5.38117 10.9584 5.69036 10.3748 5.84321 10.1698C6.02734 9.92663 6.41295 9.55491 6.64571 9.3951C6.91321 9.21098 7.36136 9.01296 7.72614 8.92263C8.43484 8.74198 9.25124 8.82536 9.9252 9.14845C10.0815 9.2214 10.283 9.33257 10.3699 9.3951C10.6026 9.55491 10.9883 9.92663 11.1724 10.1698C11.3252 10.3748 11.6344 10.9584 11.6344 11.0453C11.6344 11.0696 11.6483 11.0974 11.6622 11.1078C11.7039 11.1321 12.2007 10.9758 12.2146 10.9306C12.2215 10.9098 12.1659 10.7534 12.093 10.5797C11.6205 9.48543 10.6547 8.66208 9.48052 8.34942C9.05669 8.23825 8.1326 8.21741 7.70877 8.3112Z" fill="white"/>
<path d="M2.50812 9.12759C2.15725 9.24223 1.84806 9.52015 1.67088 9.87798C1.57708 10.0691 1.57708 10.076 1.57708 10.7986V11.5281L1.67783 11.747C1.74731 11.8999 1.84458 12.0249 2.00091 12.1708L2.22325 12.3793L1.91754 12.5182C1.75078 12.5981 1.43465 12.7406 1.21578 12.8413C0.722471 13.0637 0.468867 13.2825 0.302113 13.623L0.18747 13.8557L0.177048 15.6344L0.166626 17.4166H0.444548H0.722471L0.732893 15.7387C0.743315 14.085 0.743315 14.0607 0.819744 13.9044C0.864906 13.8175 0.944809 13.7029 1.00039 13.6508C1.05598 13.5987 1.51455 13.3624 2.02523 13.1262L2.9528 12.6989L3.87689 13.1297C4.38757 13.3659 4.84615 13.6021 4.90173 13.6543C4.95384 13.7064 5.03374 13.8175 5.07891 13.9044C5.15533 14.0607 5.15533 14.085 5.16576 15.7387L5.17618 17.4166H5.4541H5.73202L5.7216 15.6344L5.71118 13.8557L5.59654 13.623C5.42978 13.2791 5.17618 13.0637 4.68287 12.8413C4.464 12.7406 4.14787 12.5947 3.98111 12.5182L3.67887 12.3758L3.88731 12.1847C4.02627 12.0527 4.13049 11.9138 4.20692 11.7609L4.32157 11.5281V10.7986V10.0691L4.22082 9.86061C4.08881 9.59311 3.82478 9.32908 3.55728 9.20054C3.37663 9.11022 3.30715 9.09632 3.00143 9.08938C2.7791 9.08243 2.60192 9.09632 2.50812 9.12759ZM3.28978 9.73554C3.46696 9.82587 3.60592 9.97178 3.69277 10.1559C3.7553 10.2914 3.76572 10.3748 3.76572 10.816C3.76225 11.3683 3.73793 11.4726 3.54686 11.6879C3.49127 11.754 3.33147 11.8617 3.19598 11.9277L2.94932 12.0458L2.73046 11.9381C2.44212 11.7956 2.3101 11.681 2.21283 11.483C2.13988 11.3336 2.13293 11.2745 2.13293 10.816C2.13293 10.3782 2.14335 10.2914 2.20588 10.1559C2.28926 9.97525 2.42822 9.82934 2.60192 9.73554C2.76867 9.64869 3.11608 9.64869 3.28978 9.73554Z" fill="white"/>
<path d="M13.6251 9.12759C13.2742 9.24223 12.965 9.52015 12.7878 9.87798C12.694 10.0691 12.694 10.076 12.694 10.7986V11.5281L12.7948 11.747C12.8643 11.8999 12.9615 12.0249 13.1179 12.1708L13.3402 12.3793L13.0345 12.5182C12.8677 12.5981 12.5516 12.7406 12.3327 12.8413C11.8394 13.0637 11.5858 13.2825 11.4191 13.623L11.3044 13.8557L11.294 15.6344L11.2836 17.4166H11.5615H11.8394L11.8498 15.7387C11.8603 14.085 11.8603 14.0607 11.9367 13.9044C11.9818 13.8175 12.0618 13.7029 12.1173 13.6508C12.1729 13.5987 12.6315 13.3624 13.1422 13.1262L14.0697 12.6989L14.9938 13.1297C15.5045 13.3659 15.9631 13.6021 16.0187 13.6543C16.0708 13.7064 16.1507 13.8175 16.1958 13.9044C16.2723 14.0607 16.2723 14.085 16.2827 15.7387L16.2931 17.4166H16.571H16.849L16.8385 15.6344L16.8281 13.8557L16.7135 13.623C16.5467 13.2791 16.2931 13.0637 15.7998 12.8413C15.5809 12.7406 15.2648 12.5947 15.0981 12.5182L14.7958 12.3758L15.0043 12.1847C15.1432 12.0527 15.2474 11.9138 15.3239 11.7609L15.4385 11.5281V10.7986V10.0691L15.3378 9.86061C15.2057 9.59311 14.9417 9.32908 14.6742 9.20054C14.4936 9.11022 14.4241 9.09632 14.1184 9.08938C13.896 9.08243 13.7189 9.09632 13.6251 9.12759ZM14.4067 9.73554C14.5839 9.82587 14.7229 9.97178 14.8097 10.1559C14.8722 10.2914 14.8827 10.3748 14.8827 10.816C14.8792 11.3683 14.8549 11.4726 14.6638 11.6879C14.6082 11.754 14.4484 11.8617 14.3129 11.9277L14.0663 12.0458L13.8474 11.9381C13.5591 11.7956 13.427 11.681 13.3298 11.483C13.2568 11.3336 13.2499 11.2745 13.2499 10.816C13.2499 10.3782 13.2603 10.2914 13.3228 10.1559C13.4062 9.97525 13.5452 9.82934 13.7189 9.73554C13.8856 9.64869 14.233 9.64869 14.4067 9.73554Z" fill="white"/>
<path d="M7.94156 9.38119C7.93461 9.39856 7.89292 9.55142 7.85123 9.72512C7.78523 9.99262 7.75744 10.0482 7.68795 10.0829C7.56289 10.1385 7.55247 10.1385 7.2398 9.94746C7.08 9.85018 6.93756 9.77375 6.92019 9.77375C6.88198 9.77375 6.14549 10.5137 6.14549 10.5519C6.14549 10.5658 6.22539 10.7117 6.32266 10.875C6.49636 11.1599 6.51373 11.2363 6.43036 11.3614C6.41646 11.3822 6.25665 11.4378 6.076 11.483L5.74597 11.5664V12.1361V12.7058L6.076 12.7892C6.25665 12.8344 6.41646 12.89 6.43036 12.9108C6.51373 13.0359 6.49636 13.1123 6.32266 13.3972C6.22539 13.5604 6.14549 13.7064 6.14549 13.7237C6.14549 13.7619 6.88545 14.4984 6.92367 14.4984C6.93756 14.4984 7.08347 14.4185 7.24675 14.3213C7.53162 14.1476 7.60805 14.1302 7.73312 14.2136C7.75396 14.2275 7.80955 14.3873 7.85471 14.5679L7.93808 14.8979H8.50783H9.07757L9.16094 14.5679C9.20611 14.3873 9.26169 14.2275 9.28253 14.2136C9.4076 14.1302 9.48403 14.1476 9.7689 14.3213C9.93218 14.4185 10.0781 14.4984 10.0955 14.4984C10.1337 14.4984 10.8702 13.7585 10.8702 13.7203C10.8702 13.7064 10.7903 13.5604 10.693 13.3972C10.5193 13.1123 10.5019 13.0359 10.5853 12.9108C10.5992 12.89 10.759 12.8344 10.9396 12.7892L11.2697 12.7058V12.1361V11.5664L10.9396 11.483C10.759 11.4378 10.5992 11.3822 10.5853 11.3614C10.5019 11.2363 10.5193 11.1599 10.693 10.875C10.7903 10.7117 10.8702 10.5658 10.8702 10.5485C10.8702 10.5102 10.1302 9.77375 10.092 9.77375C10.0781 9.77375 9.93218 9.85366 9.7689 9.95093C9.48403 10.1246 9.4076 10.142 9.28253 10.0586C9.26169 10.0447 9.20611 9.88492 9.16094 9.70427L9.07757 9.37424L8.51825 9.36382C8.20906 9.36035 7.95198 9.36729 7.94156 9.38119ZM8.66763 10.1976L8.73364 10.4825L9.12968 10.6457L9.52572 10.809L9.74458 10.6701C10.0955 10.4512 10.1927 10.5485 9.97387 10.8993L9.83491 11.1182L9.99818 11.5142L10.1615 11.9103L10.4463 11.9763C10.7138 12.0423 10.7312 12.0492 10.7312 12.1361C10.7312 12.2229 10.7138 12.2299 10.4463 12.2959L10.1615 12.3619L9.99818 12.7579L9.83491 13.154L9.97387 13.3728C10.1927 13.7237 10.0955 13.821 9.74458 13.6021L9.52572 13.4632L9.12968 13.6265L8.73364 13.7897L8.66763 14.0746C8.60162 14.3421 8.59468 14.3595 8.50783 14.3595C8.42097 14.3595 8.41403 14.3421 8.34802 14.0746L8.28201 13.7897L7.88597 13.6265L7.48993 13.4632L7.27107 13.6021C6.92019 13.821 6.82292 13.7237 7.04178 13.3694L7.18422 13.147L7.01747 12.7545L6.85071 12.3619L6.56932 12.2959C6.30182 12.2299 6.28445 12.2229 6.28445 12.1361C6.28445 12.0492 6.30182 12.0423 6.56932 11.9763L6.85071 11.9103L7.01747 11.5177L7.18422 11.1252L7.04178 10.9028C6.82292 10.5485 6.92019 10.4512 7.27107 10.6701L7.48993 10.809L7.88597 10.6457L8.28201 10.4825L8.34802 10.1976C8.41403 9.93009 8.42097 9.91272 8.50783 9.91272C8.59468 9.91272 8.60162 9.93009 8.66763 10.1976Z" fill="white"/>
<path d="M8.06664 11.0973C7.85472 11.1807 7.60806 11.4065 7.49689 11.6184C7.37878 11.8477 7.36488 12.2924 7.46563 12.5633C7.80956 13.4735 9.20612 13.477 9.54657 12.5703C9.7029 12.1534 9.61258 11.6531 9.32771 11.3579C9.09147 11.1181 8.9282 11.0487 8.55995 11.0348C8.30634 11.0278 8.21255 11.0382 8.06664 11.0973ZM8.77881 11.6844C9.23044 11.9589 9.03589 12.6571 8.50784 12.6571C8.21255 12.6571 7.98673 12.4313 7.98673 12.136C7.98673 11.7331 8.43488 11.476 8.77881 11.6844Z" fill="white"/>
<path d="M1.2818 16.027V17.4166H1.55972H1.83764V16.027V14.6374H1.55972H1.2818V16.027Z" fill="white"/>
<path d="M4.06104 16.027V17.4166H4.33896H4.61688V16.027V14.6374H4.33896H4.06104V16.027Z" fill="white"/>
<path d="M12.3987 16.027V17.4166H12.6766H12.9545V16.027V14.6374H12.6766H12.3987V16.027Z" fill="white"/>
<path d="M15.1779 16.027V17.4166H15.4558H15.7338V16.027V14.6374H15.4558H15.1779V16.027Z" fill="white"/>
<path d="M6.28788 14.9396C6.2045 15.0473 6.13502 15.1619 6.13155 15.1897C6.12808 15.2661 6.61444 15.5823 6.96184 15.7247C7.52116 15.9609 7.78866 16.0096 8.50779 16.0096C9.22691 16.0096 9.49441 15.9609 10.0537 15.7247C10.3421 15.6066 10.8736 15.2766 10.8944 15.2071C10.9049 15.1828 10.6686 14.8458 10.5748 14.7485C10.5679 14.7416 10.488 14.7902 10.3942 14.8562C9.57084 15.4433 8.40357 15.6066 7.43084 15.2696C7.17376 15.1793 6.82636 15.0021 6.62139 14.8597C6.53106 14.7937 6.45463 14.7416 6.44769 14.7416C6.44421 14.7416 6.37126 14.8319 6.28788 14.9396Z" fill="white"/>
</svg>
