<?xml version="1.0" standalone="no"?>
<!DOCTYPE svg PUBLIC "-//W3C//DTD SVG 20010904//EN"
 "http://www.w3.org/TR/2001/REC-SVG-20010904/DTD/svg10.dtd">
<svg version="1.0" xmlns="http://www.w3.org/2000/svg"
 width="512.000000pt" height="512.000000pt" viewBox="0 0 512.000000 512.000000"
 preserveAspectRatio="xMidYMid meet">
<metadata>
Created by potrace 1.16, written by Peter Selinger 2001-2019
</metadata>
<g transform="translate(0.000000,512.000000) scale(0.100000,-0.100000)"
fill="#000000" stroke="none">
<path d="M2326 5098 c-7 -13 -26 -74 -41 -136 -19 -78 -33 -115 -44 -119 -9
-3 -40 -16 -70 -29 l-55 -25 -109 66 c-60 36 -120 65 -135 65 -21 0 -58 -32
-174 -148 -103 -103 -148 -155 -148 -170 0 -13 29 -71 65 -130 l66 -108 -28
-71 -28 -72 -128 -32 c-102 -25 -131 -36 -143 -54 -23 -35 -16 -431 7 -449 9
-6 72 -25 139 -41 82 -20 124 -34 127 -45 3 -8 17 -40 30 -71 l25 -56 -66
-108 c-36 -59 -66 -119 -66 -133 0 -18 20 -46 73 -99 60 -59 79 -73 105 -73
33 0 62 29 62 63 0 10 -23 43 -51 72 l-51 54 62 101 c71 115 71 112 15 240
-20 47 -40 94 -45 106 -6 16 -28 26 -97 43 -48 12 -105 26 -125 32 l-38 10 0
137 0 138 118 28 c125 30 146 42 157 84 4 15 22 60 41 101 19 40 34 84 34 97
0 13 -28 68 -62 123 -34 56 -59 102 -57 104 3 1 48 44 101 96 l95 93 104 -61
c56 -34 111 -61 121 -61 10 0 40 11 66 24 26 13 75 34 110 46 35 13 67 30 71
39 5 9 21 67 36 129 l27 112 139 0 138 0 10 -37 c6 -21 20 -78 32 -126 17 -69
27 -91 43 -97 12 -5 59 -25 106 -45 128 -56 124 -56 241 15 l102 61 97 -93
c54 -51 98 -97 99 -101 0 -5 -26 -53 -59 -106 -33 -54 -60 -108 -60 -120 0
-12 13 -47 29 -79 15 -31 36 -81 45 -109 20 -59 13 -56 196 -101 l75 -18 0
-139 0 -139 -75 -18 c-185 -46 -175 -40 -200 -110 -12 -35 -33 -84 -46 -110
-13 -26 -24 -58 -24 -71 0 -12 27 -67 60 -121 l61 -98 -56 -58 c-55 -59 -65
-84 -45 -121 8 -13 21 -19 47 -19 32 0 46 9 115 78 52 52 78 86 78 101 0 13
-30 72 -66 133 l-66 109 26 58 c14 32 26 63 26 70 0 6 12 14 28 18 15 3 74 18
132 33 87 22 107 30 117 51 18 34 18 394 0 428 -10 21 -31 30 -140 57 -71 18
-129 34 -131 35 -1 2 -14 35 -29 72 l-27 68 65 106 c36 59 65 118 65 132 0 35
-285 321 -319 321 -13 0 -72 -30 -133 -66 l-109 -66 -57 25 c-31 13 -64 27
-72 30 -11 3 -25 46 -45 127 -16 68 -36 129 -43 137 -10 10 -63 13 -232 13
-217 0 -220 0 -234 -22z"/>
<path d="M2443 4365 c-73 -20 -140 -56 -194 -104 -206 -181 -198 -534 15 -704
258 -204 631 -97 735 211 42 125 22 291 -49 402 -104 163 -320 245 -507 195z
m260 -138 c101 -46 179 -149 196 -259 26 -163 -80 -330 -241 -379 -123 -38
-234 -11 -329 78 -193 180 -127 485 124 575 73 26 174 20 250 -15z"/>
<path d="M2405 3413 c-151 -21 -280 -87 -396 -202 -99 -99 -149 -188 -175
-311 -25 -117 -15 -535 15 -645 42 -156 128 -298 237 -392 l54 -47 0 -130 0
-131 -163 -59 c-188 -68 -217 -82 -281 -131 l-48 -36 -41 27 c-23 16 -112 53
-197 84 l-155 55 -3 36 -3 35 71 12 c134 23 250 101 317 213 58 97 63 138 63
494 0 370 -6 412 -74 550 -81 163 -212 278 -389 340 -51 17 -115 43 -143 58
-173 88 -418 81 -617 -19 -187 -93 -314 -241 -378 -439 -21 -65 -23 -91 -27
-397 -4 -350 3 -451 38 -534 61 -141 193 -242 352 -269 36 -6 38 -8 38 -44 l0
-38 -102 -38 c-236 -87 -318 -156 -375 -312 -23 -63 -23 -69 -23 -476 0 -308
3 -416 12 -425 9 -9 190 -12 755 -12 l743 0 0 -103 c0 -67 4 -107 12 -115 17
-17 2059 -17 2076 0 8 8 12 48 12 115 l0 103 744 0 c626 0 745 2 755 14 9 10
11 126 9 438 l-3 423 -32 65 c-70 142 -148 201 -366 275 l-147 50 0 36 0 36
66 11 c183 30 330 163 368 332 22 97 23 642 1 756 -17 90 -69 206 -126 282
-78 102 -216 196 -345 235 -27 8 -77 28 -110 45 -157 79 -346 89 -532 27 -114
-38 -206 -97 -298 -190 -101 -101 -167 -223 -189 -350 -20 -114 -20 -692 0
-788 39 -186 182 -319 378 -352 35 -6 37 -8 37 -44 l0 -38 -102 -38 c-115 -43
-188 -77 -229 -108 l-28 -20 -33 28 c-48 41 -121 73 -320 140 l-178 60 0 115
0 115 68 51 c126 95 228 251 273 419 18 66 22 118 26 291 6 246 -6 332 -63
452 -66 137 -215 266 -359 311 -33 11 -90 33 -126 50 -106 50 -230 70 -344 54z
m193 -128 c34 -8 85 -26 113 -40 28 -15 79 -35 113 -45 110 -34 223 -122 284
-221 48 -79 64 -146 69 -296 3 -79 2 -143 -2 -143 -16 0 -124 79 -182 134 -78
72 -124 134 -182 245 -44 81 -48 86 -82 89 -33 3 -39 -2 -98 -72 -49 -59 -75
-82 -126 -107 -63 -31 -69 -32 -207 -33 -138 -1 -145 -2 -209 -32 -37 -18 -85
-49 -108 -69 l-41 -37 0 84 c0 147 42 262 134 364 134 151 342 222 524 179z
m1634 -119 c77 -15 137 -37 178 -66 14 -9 48 -22 75 -29 124 -31 270 -142 335
-256 65 -113 73 -151 77 -370 l5 -200 -181 180 c-100 99 -237 242 -304 317
-155 174 -151 173 -261 52 -102 -111 -186 -174 -321 -239 -101 -49 -249 -95
-306 -95 -21 0 -22 2 -16 83 23 310 188 541 437 611 103 28 179 32 282 12z
m-3220 -25 c31 -12 67 -30 80 -40 13 -10 46 -23 73 -30 137 -34 279 -148 348
-278 55 -105 67 -170 67 -373 l0 -175 -175 175 c-97 96 -233 239 -303 317
-104 118 -132 143 -154 143 -22 0 -52 -25 -145 -117 -124 -124 -213 -185 -343
-237 -75 -30 -211 -66 -248 -66 l-25 0 7 88 c22 308 177 521 434 599 104 31
295 28 384 -6z m1741 -368 c79 -128 213 -256 339 -325 l79 -43 -4 -50 c-12
-123 -86 -272 -185 -369 -190 -189 -448 -235 -677 -122 -165 82 -293 240 -339
421 -26 104 -24 134 17 208 51 90 76 118 139 152 51 29 58 30 193 31 112 2
152 6 197 22 61 21 128 64 167 106 14 14 28 26 31 26 4 0 23 -26 43 -57z
m-1572 -300 c134 -140 139 -149 139 -248 0 -62 -26 -167 -55 -230 -36 -74
-130 -174 -197 -208 -148 -75 -298 -50 -429 71 -133 123 -188 327 -137 515 11
41 16 47 64 67 84 34 226 133 305 213 l74 74 55 -61 c30 -34 112 -120 181
-193z m3316 2 c129 -137 132 -141 139 -195 18 -143 -48 -323 -155 -422 -130
-121 -280 -146 -428 -72 -96 49 -183 155 -224 274 -26 77 -32 226 -11 305 13
50 14 50 100 92 102 50 203 124 287 209 l60 60 50 -55 c27 -31 109 -119 182
-196z m-4131 -177 c-18 -134 23 -310 99 -425 31 -47 35 -60 35 -118 l0 -64
-32 5 c-63 11 -136 54 -186 109 -75 82 -85 117 -90 337 l-4 187 24 6 c21 5
146 32 159 34 3 1 1 -31 -5 -71z m3320 -60 c0 -116 4 -143 27 -214 15 -44 45
-108 67 -143 36 -56 40 -68 40 -126 l0 -64 -32 5 c-49 9 -129 49 -166 85 -92
87 -114 163 -110 390 l3 163 85 17 c47 9 85 17 85 18 0 0 1 -59 1 -131z
m-2109 -228 c-5 -85 -28 -145 -83 -208 -39 -46 -136 -98 -201 -108 l-43 -7 0
36 c0 28 12 51 50 102 28 37 59 83 69 103 27 53 57 157 65 224 l7 58 71 -63
70 -62 -5 -75z m3320 -2 c-8 -130 -77 -232 -192 -284 -27 -13 -69 -26 -92 -30
l-43 -7 0 37 c0 29 11 51 52 104 75 98 114 196 133 335 l6 47 70 -62 71 -63
-5 -77z m-2522 -302 c129 -32 287 -29 394 8 l41 14 0 -96 0 -95 -112 -211
c-61 -116 -117 -219 -124 -230 -11 -16 -28 6 -163 208 l-151 226 0 110 0 111
28 -15 c15 -8 55 -21 87 -30z m-1625 -57 c112 -35 273 -25 363 22 16 9 17 1
17 -107 l0 -117 -112 -173 c-62 -95 -115 -173 -118 -173 -3 0 -67 85 -142 189
l-138 190 0 115 0 115 33 -20 c17 -11 61 -29 97 -41z m3320 0 c93 -29 216 -27
309 4 l71 23 0 -114 0 -114 -112 -174 c-62 -95 -115 -173 -118 -173 -3 0 -67
85 -142 188 l-138 189 0 116 0 116 33 -20 c17 -11 61 -29 97 -41z m-1732 -454
l162 -245 0 -130 c0 -117 2 -132 20 -150 11 -11 29 -20 40 -20 11 0 29 9 40
20 18 18 20 33 20 136 l0 115 137 257 c75 141 137 258 138 259 4 7 386 -132
421 -152 88 -51 156 -157 174 -272 6 -32 10 -248 10 -480 l0 -423 -195 0 -195
0 0 273 c0 199 -3 276 -12 285 -7 7 -27 12 -44 12 -61 0 -64 -12 -64 -307 l0
-263 -430 0 -430 0 0 263 c0 295 -3 307 -64 307 -17 0 -37 -5 -44 -12 -9 -9
-12 -86 -12 -285 l0 -273 -196 0 -195 0 3 468 c3 458 4 468 26 524 29 72 81
139 138 179 34 23 351 154 384 158 3 0 78 -110 168 -244z m-1644 -24 l146
-199 0 -154 c0 -175 7 -198 64 -198 53 0 56 9 56 184 l0 159 128 195 c70 107
130 200 134 206 8 12 196 -49 279 -90 71 -35 73 -42 42 -110 l-28 -59 -3 -382
-3 -383 -700 0 -701 0 4 358 3 357 28 61 c48 103 103 148 259 210 73 29 136
50 140 48 4 -2 72 -94 152 -203z m3329 -12 l137 -187 0 -154 c0 -177 7 -198
65 -198 24 0 38 6 45 19 5 11 10 86 10 173 l0 154 131 199 c72 110 133 202
136 205 6 6 217 -67 276 -97 96 -48 159 -136 177 -249 6 -33 10 -200 10 -371
l0 -313 -700 0 -699 0 -3 378 -3 377 -32 67 -31 66 24 23 c13 12 84 46 156 75
124 49 134 52 149 36 9 -9 77 -101 152 -203z"/>
<path d="M2527 563 c-24 -6 -50 -59 -41 -86 12 -39 35 -57 74 -57 60 0 93 55
66 108 -19 36 -51 47 -99 35z"/>
</g>
</svg>
