<?xml version="1.0" standalone="no"?>
<!DOCTYPE svg PUBLIC "-//W3C//DTD SVG 20010904//EN"
 "http://www.w3.org/TR/2001/REC-SVG-20010904/DTD/svg10.dtd">
<svg version="1.0" xmlns="http://www.w3.org/2000/svg"
 width="512.000000pt" height="512.000000pt" viewBox="0 0 512.000000 512.000000"
 preserveAspectRatio="xMidYMid meet">
<metadata>
Created by potrace 1.16, written by Peter Selinger 2001-2019
</metadata>
<g transform="translate(0.000000,512.000000) scale(0.100000,-0.100000)"
fill="#000000" stroke="none">
<path d="M1895 4892 c-40 -25 -1203 -1134 -1232 -1175 -30 -41 -32 -128 -4
-173 30 -49 1206 -1167 1248 -1187 76 -36 180 1 214 77 17 38 19 72 19 404 l0
362 753 0 c413 0 804 -5 867 -10 275 -23 514 -134 705 -325 194 -194 302 -430
325 -714 11 -138 24 -171 80 -208 24 -17 47 -23 89 -23 66 0 111 23 142 72 19
32 20 44 16 343 -4 270 -7 322 -26 403 -152 673 -653 1162 -1324 1294 -108 21
-137 22 -869 26 l-758 3 0 357 c0 351 0 359 -22 402 -32 61 -66 83 -135 87
-44 3 -65 0 -88 -15z"/>
<path d="M72 3180 c-18 -11 -41 -34 -53 -52 -19 -32 -20 -44 -16 -343 5 -343
11 -391 81 -600 182 -544 660 -970 1218 -1085 177 -36 273 -40 983 -40 l695 0
0 -358 c0 -351 0 -359 22 -402 13 -24 35 -53 50 -64 37 -26 125 -33 165 -13
35 19 1207 1133 1241 1180 29 41 31 128 3 173 -30 49 -1206 1167 -1248 1187
-77 36 -179 0 -214 -77 -17 -38 -19 -72 -19 -403 l0 -363 -752 0 c-414 0 -805
5 -868 10 -275 23 -514 134 -705 325 -194 194 -302 430 -325 714 -11 138 -24
171 -80 208 -44 30 -131 32 -178 3z"/>
</g>
</svg>
