<svg width="26" height="26" viewBox="0 0 26 26" fill="none" xmlns="http://www.w3.org/2000/svg">
<path d="M7.05375 0.886125C4.55625 2.03362 1.65375 5.07112 0.70875 7.56862C-0.23625 9.99862 -0.23625 15.5336 0.70875 17.9636C2.46375 22.6211 7.12125 25.5911 12.7913 25.5911C18.4613 25.5911 23.1188 22.6211 24.8738 17.9636C25.8188 15.5336 25.8188 9.99862 24.8738 7.56862C23.9288 5.00362 21.0263 1.96612 18.3938 0.886125C15.6263 -0.328876 9.68625 -0.261376 7.05375 0.886125ZM16.3688 6.62362C17.4488 7.70362 17.5163 11.2136 16.5038 13.6436C15.6263 15.7361 15.6263 16.0736 16.7063 16.9511C17.3138 17.4911 18.8663 18.3011 20.0813 18.8411C22.8488 19.9211 22.7813 20.7986 19.8788 22.8236C15.3563 25.8611 8.40375 25.4561 4.48875 21.8786C2.12625 19.6511 2.19375 19.1111 4.96125 18.5711C6.24375 18.3011 7.93125 17.5586 8.80875 16.9511C10.2263 15.8036 10.2263 15.6686 9.14625 13.5761C7.72875 10.7411 7.79625 9.25612 9.55125 7.02862C10.7663 5.47612 11.3063 5.27362 13.3313 5.61112C14.6138 5.81362 16.0313 6.28612 16.3688 6.62362Z" fill="#666666"/>
</svg>
